<svg width="64" height="64" viewBox="0 0 64 64" fill="none" xmlns="http://www.w3.org/2000/svg">
<g clip-path="url(#clip0_2655_13)">
<path d="M46.8571 48.0006C46.8569 49.2934 46.4182 50.5479 45.6128 51.5592C44.8074 52.5705 43.6829 53.2788 42.4229 53.5684L46.8571 48.0006ZM46.8571 48.0006V21.1536V48.0006ZM16.6429 21.1501L16.6429 21.1501V21.1582V41.1437C16.6429 42.2235 16.2139 43.259 15.4504 44.0225C14.6868 44.786 13.6512 45.215 12.5714 45.215H6.85714C5.17112 45.215 3.55415 44.5452 2.36196 43.3531C1.16976 42.1609 0.5 40.544 0.5 38.8581V29.7156C0.5 28.0296 1.16976 26.4127 2.36196 25.2206C3.55415 24.0284 5.17112 23.3587 6.85714 23.3587H10.2857H10.7857V22.8587V21.0796C10.8269 18.337 11.4078 15.6294 12.4951 13.1112C13.583 10.5918 15.1565 8.31144 17.1258 6.40026C19.0951 4.48908 21.4216 2.98454 23.9724 1.97257C26.5233 0.960602 29.2485 0.461024 31.9925 0.502372L32 0.502486L32.0075 0.502372C34.7515 0.461024 37.4767 0.960602 40.0276 1.97257C42.5784 2.98454 44.9049 4.48908 46.8742 6.40026C48.8435 8.31144 50.417 10.5918 51.5049 13.1112C52.5923 15.6294 53.1731 18.3371 53.2143 21.0798V22.8587V23.3587H53.7143H57.1429C58.8289 23.3587 60.4459 24.0284 61.638 25.2206C62.8302 26.4127 63.5 28.0296 63.5 29.7156V38.8581C63.5 40.544 62.8302 42.1609 61.638 43.3531C60.4459 44.5452 58.8289 45.215 57.1429 45.215H53.7143H53.2143V45.715V48.0006V48.0007C53.2149 50.9669 52.1232 53.8295 50.1477 56.0421C48.1722 58.2548 45.4511 59.6627 42.5036 59.997L42.249 60.0259L42.1238 60.2495C41.5711 61.2361 40.7653 62.0575 39.7894 62.6289C38.8135 63.2003 37.7028 63.501 36.5719 63.5H36.5714H29.7143C28.0283 63.5 26.4113 62.8302 25.2191 61.6381C24.0269 60.446 23.3571 58.8291 23.3571 57.1431C23.3571 55.4572 24.0269 53.8403 25.2191 52.6481C26.4113 51.456 28.0283 50.7862 29.7143 50.7862H36.5714C38.8683 50.7862 40.8811 52.0018 41.9961 53.8288L42.1837 54.1364L42.5349 54.0557C43.9051 53.7408 45.1281 52.9705 46.004 51.8707C46.8798 50.7709 47.3569 49.4066 47.3571 48.0007V48.0006V21.1536H47.3572L47.3571 21.1455C47.3246 19.1585 46.8987 17.1978 46.1038 15.3765C45.3089 13.5552 44.1609 11.9095 42.7261 10.5346C41.2914 9.15965 39.5983 8.08275 37.7447 7.36612C35.8947 6.65082 33.9214 6.30862 31.9385 6.3592C29.9655 6.32502 28.005 6.6795 26.1689 7.40247C24.3293 8.12679 22.6506 9.20675 21.2289 10.5806C19.8071 11.9544 18.6703 13.595 17.8834 15.4087C17.0965 17.2223 16.6749 19.1734 16.6429 21.1501Z" fill="#FFD6C9" stroke="#FF5722"/>
</g>
<defs>
<clipPath id="clip0_2655_13">
<rect width="64" height="64" fill="white"/>
</clipPath>
</defs>
</svg>
