<svg width="360" height="200" viewBox="0 0 360 200" fill="none" xmlns="http://www.w3.org/2000/svg">
<rect width="360" height="200" fill="white"/>
<path d="M180.481 189.713C226.478 189.713 263.766 152.425 263.766 106.428C263.766 60.4313 226.478 23.1436 180.481 23.1436C134.484 23.1436 97.1963 60.4313 97.1963 106.428C97.1963 152.425 134.484 189.713 180.481 189.713Z" fill="white"/>
<path d="M97.1967 106.428C97.1967 106.428 97.1967 104.596 97.3156 101.111C97.817 92.3381 99.7288 83.7031 102.977 75.5382C104.579 71.4636 106.508 67.5255 108.746 63.7628C114.233 54.5671 121.413 46.4949 129.906 39.974C140.238 32.081 152.276 26.7199 165.054 24.3209C172.153 22.9919 179.394 22.5921 186.595 23.1315C190.362 23.3893 194.106 23.91 197.8 24.6896C201.593 25.5002 205.328 26.5612 208.98 27.8655C224.532 33.5124 238.06 43.6457 247.851 56.983C250.41 60.4547 252.693 64.1214 254.679 67.9496C256.715 71.8294 258.426 75.8716 259.793 80.0343C265.502 97.167 265.502 115.689 259.793 132.822C259.127 134.927 258.295 136.961 257.486 138.995C256.677 141.029 255.713 142.991 254.679 144.942C252.699 148.775 250.421 152.446 247.863 155.921C238.062 169.256 224.533 179.392 208.98 185.05C205.326 186.349 201.591 187.41 197.8 188.226C187.011 190.469 175.888 190.586 165.054 188.571C152.277 186.161 140.241 180.797 129.906 172.906C121.407 166.391 114.225 158.318 108.746 149.117C106.506 145.355 104.576 141.417 102.977 137.342C99.7292 129.177 97.8174 120.542 97.3156 111.769C97.1491 108.284 97.1967 106.452 97.1967 106.452C97.1967 106.452 97.1967 106.904 97.2562 107.796C97.3157 108.688 97.2562 110.02 97.4465 111.757C98.0095 120.501 99.9692 129.098 103.251 137.223C104.857 141.276 106.795 145.191 109.044 148.927C114.529 158.062 121.697 166.073 130.168 172.537C140.463 180.349 152.443 185.644 165.149 188C175.915 189.986 186.964 189.857 197.681 187.619C201.445 186.808 205.152 185.752 208.778 184.455C224.219 178.826 237.649 168.753 247.375 155.504C249.911 152.056 252.17 148.413 254.132 144.609C255.154 142.706 256.023 140.72 256.927 138.733C257.831 136.747 258.544 134.689 259.21 132.608C264.843 115.617 264.843 97.2626 259.21 80.2722C257.855 76.1372 256.156 72.1228 254.132 68.2707C244.537 49.7805 228.352 35.5649 208.778 28.4364C205.152 27.1361 201.445 26.0752 197.681 25.2606C186.002 22.7845 173.927 22.8553 162.279 25.4683C150.63 28.0813 139.682 33.175 130.18 40.4022C121.704 46.8588 114.531 54.867 109.044 64.0007C106.797 67.7418 104.86 71.6601 103.251 75.7167C101.881 79.1188 100.737 82.6075 99.8254 86.1599C98.5831 91.0859 97.787 96.1138 97.4465 101.183C97.28 102.907 97.3157 104.239 97.2562 105.132C97.1967 106.024 97.1967 106.428 97.1967 106.428Z" fill="#263238"/>
<path d="M82.2207 166.483C82.2207 166.316 127.217 166.173 182.705 166.173C238.192 166.173 283.212 166.316 283.212 166.483C283.212 166.649 238.228 166.792 182.705 166.792C127.182 166.792 82.2207 166.59 82.2207 166.483Z" fill="#263238"/>
<path d="M80.2227 86.9809L96.4585 86.9571L125.873 52.4515L114.633 40.0337L80.2227 86.9809Z" fill="url(#paint0_linear_2604_298)"/>
<g opacity="0.3">
<path d="M80.2227 86.9809L96.4585 86.9571L125.873 52.4515L114.633 40.0337L80.2227 86.9809Z" fill="black"/>
</g>
<path d="M272.757 84.5786L283.736 130.027H278.264L268.511 90.1452L272.757 84.5786Z" fill="url(#paint1_linear_2604_298)"/>
<g opacity="0.3">
<path d="M272.757 84.5786L283.736 130.027H278.264L268.511 90.1452L272.757 84.5786Z" fill="black"/>
</g>
<path d="M279.882 165.77L279.847 128.326L271.556 93.5708L264.776 131.74L264.8 165.782L279.882 165.77Z" fill="#E0E0E0"/>
<path d="M139.057 133.101L167.521 133.076L167.47 75.341L139.007 75.3658L139.057 133.101Z" fill="#E0E0E0"/>
<path d="M272.758 84.7205L264.777 131.894L142.015 132.001L166.279 84.8156L272.758 84.7205Z" fill="url(#paint2_linear_2604_298)"/>
<path d="M142.765 165.884L264.802 165.777L264.772 131.747L142.736 131.854L142.765 165.884Z" fill="#EBEBEB"/>
<path d="M253.857 131.906L253.893 165.793L239.191 165.805L239.406 131.763L253.857 131.906Z" fill="#E0E0E0"/>
<path d="M201.677 88.9075L239.406 131.763L239.192 165.805L166.897 165.864L167.516 133.071L201.677 88.9075Z" fill="#EBEBEB"/>
<path d="M257.331 131.752L219.066 84.626L201.677 84.6379L241.261 131.764L257.331 131.752Z" fill="url(#paint3_linear_2604_298)"/>
<path d="M175.58 84.6617L147.283 85.0423L113.61 40.0339L114.966 38.1545L142.014 38.666L175.58 84.6617Z" fill="url(#paint4_linear_2604_298)"/>
<path d="M138.672 69.2465L150.709 85.0423H147.283L113.61 40.0339L114.966 38.1545L138.672 69.2465Z" fill="url(#paint5_linear_2604_298)"/>
<path d="M138.672 69.2461L138.577 69.0914L138.244 68.6395L136.972 66.9147L132.119 60.468L115.122 38.0232L114.967 37.821L114.824 38.0232L113.456 39.9026L113.373 40.0096L113.456 40.1167L124.851 55.3653L147.165 85.1013H150.959L150.781 84.8634L141.92 73.3615L139.541 70.2333L138.898 69.4364C138.83 69.3401 138.754 69.2487 138.672 69.1628C138.728 69.2665 138.792 69.3659 138.863 69.4602L139.469 70.2928L141.848 73.4567L150.603 85.0418L150.722 84.8039H147.296H147.427L125.184 55.0679C121.176 49.7155 117.31 44.5652 113.777 39.8312V40.0572C114.253 39.4149 114.717 38.7726 115.133 38.1898H114.836L131.94 60.6226L136.876 67.0099L138.197 68.6989L138.542 69.1271L138.672 69.2461Z" fill="#263238"/>
<path d="M91.8799 80.4029L91.9512 165.924L142.764 165.888L142.693 78.9042L118.488 46.5396L91.8799 80.4029Z" fill="#EBEBEB"/>
<g opacity="0.3">
<path d="M258.389 131.752L219.066 84.626L201.677 84.6379L241.261 131.764L258.389 131.752Z" fill="black"/>
</g>
<path d="M203.103 90.537L167.515 133.071L164.423 133.083L201.676 88.9075L203.103 90.537Z" fill="url(#paint6_linear_2604_298)"/>
<g opacity="0.3">
<path d="M203.103 90.537L167.515 133.071L164.423 133.083L201.676 88.9075L203.103 90.537Z" fill="black"/>
</g>
<path d="M201.677 84.6372L244.294 131.763H239.406L201.677 88.9073L164.423 133.583L162.675 131.489L201.677 84.6372Z" fill="url(#paint7_linear_2604_298)"/>
<path d="M201.677 84.6372L201.499 84.8394L200.963 85.4698L198.87 87.9795L190.948 97.4356L162.544 131.418L162.449 131.525L162.544 131.632L164.293 133.737L164.424 133.892L164.566 133.737L201.832 89.0738H201.522L202.712 90.4417L239.251 131.906H244.616L244.354 131.62L213.441 97.4951L204.746 87.9795L202.462 85.4817L201.867 84.8394L201.677 84.6372L201.867 84.8751L202.462 85.5293L204.746 88.0866L213.393 97.7211L244.164 131.882L244.295 131.584H239.406H239.537L203.033 90.0967L201.843 88.717L201.689 88.5505L201.534 88.7289L164.305 133.416H164.578L162.818 131.323V131.537L191.008 97.5307L198.894 88.0152L200.975 85.4817L201.51 84.8275L201.677 84.6372Z" fill="#263238"/>
<path d="M239.346 166.114C239.453 166.114 239.537 158.454 239.525 149.01C239.513 139.566 239.43 131.906 239.311 131.906C239.192 131.906 239.12 139.566 239.132 149.01C239.144 158.454 239.239 166.114 239.346 166.114Z" fill="#263238"/>
<path d="M253.68 166.233C253.787 166.233 253.87 158.573 253.858 149.129C253.847 139.685 253.751 132.037 253.644 132.037C253.537 132.037 253.454 139.685 253.466 149.129C253.478 158.573 253.561 166.233 253.68 166.233Z" fill="#263238"/>
<path d="M198.381 165.839L212.702 165.826L212.676 136.031L198.355 136.043L198.381 165.839Z" fill="#455A64"/>
<path d="M211.43 153.566C211.494 153.566 211.556 153.553 211.615 153.528C211.673 153.504 211.726 153.468 211.771 153.422C211.815 153.377 211.85 153.323 211.873 153.264C211.896 153.205 211.907 153.141 211.906 153.078V150.069C211.907 150.005 211.896 149.942 211.873 149.883C211.85 149.824 211.815 149.77 211.771 149.725C211.726 149.679 211.673 149.643 211.615 149.618C211.556 149.594 211.494 149.581 211.43 149.581C211.301 149.581 211.177 149.632 211.085 149.724C210.994 149.815 210.942 149.939 210.942 150.069V153.078C210.942 153.142 210.955 153.205 210.98 153.265C211.004 153.324 211.04 153.378 211.085 153.423C211.131 153.468 211.184 153.504 211.243 153.529C211.303 153.553 211.366 153.566 211.43 153.566Z" fill="#263238"/>
<path d="M211.229 152.59C211.232 152.548 211.25 152.509 211.281 152.48C211.312 152.451 211.353 152.435 211.395 152.436C211.416 152.434 211.438 152.437 211.458 152.444C211.478 152.451 211.497 152.462 211.512 152.476C211.528 152.491 211.54 152.508 211.549 152.528C211.557 152.548 211.562 152.569 211.562 152.59C211.561 152.619 211.551 152.647 211.534 152.67C211.517 152.694 211.494 152.711 211.466 152.721V152.899C211.466 152.918 211.459 152.936 211.445 152.95C211.432 152.963 211.414 152.971 211.395 152.971C211.376 152.971 211.358 152.963 211.345 152.95C211.331 152.936 211.324 152.918 211.324 152.899V152.721C211.297 152.71 211.274 152.692 211.258 152.669C211.241 152.646 211.231 152.619 211.229 152.59Z" fill="#455A64"/>
<path d="M209.028 151.401H211.205C211.268 151.401 211.328 151.376 211.373 151.332C211.417 151.287 211.443 151.226 211.443 151.163C211.443 151.1 211.417 151.04 211.373 150.995C211.328 150.951 211.268 150.926 211.205 150.926H209.028C208.965 150.926 208.904 150.951 208.86 150.995C208.815 151.04 208.79 151.1 208.79 151.163C208.79 151.226 208.815 151.287 208.86 151.332C208.904 151.376 208.965 151.401 209.028 151.401Z" fill="#263238"/>
<path d="M210.479 151.412H210.777C210.884 151.423 210.991 151.423 211.098 151.412C211.171 151.413 211.243 151.398 211.309 151.367C211.375 151.336 211.433 151.291 211.479 151.234C211.496 151.199 211.506 151.16 211.506 151.121C211.506 151.081 211.496 151.043 211.479 151.008C211.458 150.975 211.43 150.947 211.397 150.927C211.364 150.906 211.327 150.893 211.288 150.889C211.182 150.872 211.074 150.872 210.967 150.889C210.869 150.871 210.768 150.871 210.67 150.889H210.967C211.07 150.873 211.174 150.873 211.276 150.889C211.303 150.891 211.329 150.899 211.351 150.914C211.374 150.929 211.392 150.95 211.404 150.974C211.416 150.998 211.421 151.024 211.42 151.051C211.418 151.078 211.41 151.104 211.395 151.127C211.241 151.317 210.931 151.281 210.765 151.293C210.663 151.315 210.567 151.355 210.479 151.412Z" fill="#455A64"/>
<path d="M205.863 142.694C205.863 142.694 205.863 142.195 205.863 141.338C205.863 140.482 205.863 139.197 205.863 137.829H210.11V140.387C210.11 141.196 210.11 141.969 210.11 142.682H207.053H205.863H210.145C210.145 141.969 210.145 141.196 210.145 140.387V137.829H205.863C205.863 139.197 205.863 140.399 205.863 141.398C205.863 142.397 205.863 142.694 205.863 142.694Z" fill="#263238"/>
<path d="M206.613 142.1C206.613 142.1 206.613 141.719 206.613 141.065C206.613 140.411 206.613 139.388 206.613 138.389H209.539V142.088H207.422H209.551V138.353H206.577V141.089C206.601 141.731 206.613 142.1 206.613 142.1Z" fill="#263238"/>
<path d="M205.923 152.971C205.923 151.437 205.923 148.558 205.923 143.884H210.181V146.441C210.181 147.274 210.181 148.071 210.181 148.82C210.181 150.342 210.181 151.734 210.181 152.935V143.884H205.863C205.863 148.558 205.863 151.437 205.923 152.971Z" fill="#263238"/>
<path d="M206.625 152.472C206.625 152.472 206.625 152.257 206.625 151.865V150.188C206.625 148.653 206.625 146.691 206.625 144.443H209.551V146.738C209.551 147.476 209.551 148.202 209.551 148.879C209.551 150.212 209.551 151.413 209.551 152.448H206.625H209.575C209.575 151.413 209.575 150.212 209.575 148.879V144.443H206.577C206.577 146.703 206.577 148.677 206.577 150.212C206.577 150.854 206.577 151.401 206.577 151.877C206.577 152.353 206.625 152.472 206.625 152.472Z" fill="#263238"/>
<path d="M205.935 164.497C205.935 162.95 205.935 160.084 205.935 155.397H210.181V157.943C210.181 158.775 210.181 159.572 210.181 160.322C210.181 161.844 210.181 163.236 210.181 164.437V155.35H205.863C205.863 160.084 205.923 162.915 205.935 164.497Z" fill="#263238"/>
<path d="M206.637 163.998V163.379C206.637 162.915 206.637 162.356 206.637 161.702C206.637 160.18 206.637 158.217 206.637 155.957H209.563V160.394C209.563 161.726 209.563 162.927 209.563 163.962H206.637H209.587C209.587 162.927 209.587 161.726 209.587 160.394V155.957H206.625C206.625 158.217 206.625 160.203 206.625 161.738C206.625 162.38 206.625 162.927 206.625 163.403C206.625 163.879 206.637 163.998 206.637 163.998Z" fill="#263238"/>
<path d="M209.432 142.1C209.537 142.218 209.657 142.321 209.788 142.409C209.907 142.519 210.044 142.608 210.193 142.671C210.193 142.671 210.05 142.505 209.836 142.35C209.622 142.195 209.491 142.076 209.432 142.1Z" fill="#263238"/>
<path d="M205.863 142.694C206 142.638 206.125 142.558 206.232 142.456C206.434 142.313 206.577 142.182 206.565 142.159C206.426 142.216 206.297 142.297 206.184 142.397C206.018 142.48 205.863 142.611 205.863 142.694Z" fill="#263238"/>
<path d="M205.971 137.936C205.971 137.936 206.102 138.079 206.28 138.198C206.458 138.317 206.625 138.412 206.637 138.388C206.551 138.285 206.446 138.2 206.328 138.139C206.221 138.051 206.1 137.983 205.971 137.936Z" fill="#263238"/>
<path d="M209.528 138.329C209.528 138.329 209.695 138.27 209.873 138.151C210.051 138.032 210.206 137.925 210.194 137.901C210.064 137.935 209.942 137.996 209.837 138.08C209.659 138.198 209.516 138.306 209.528 138.329Z" fill="#263238"/>
<path d="M209.562 144.442C209.706 144.395 209.834 144.309 209.931 144.193C210.097 144.014 210.181 143.824 210.157 143.812C210.133 143.8 210.038 143.966 209.871 144.133C209.705 144.3 209.55 144.43 209.562 144.442Z" fill="#263238"/>
<path d="M205.971 143.884C205.971 143.884 206.09 144.027 206.256 144.169C206.423 144.312 206.589 144.419 206.601 144.395C206.518 144.284 206.418 144.188 206.304 144.11C206.207 144.015 206.094 143.938 205.971 143.884Z" fill="#263238"/>
<path d="M209.562 152.507C209.562 152.507 209.693 152.626 209.848 152.757C209.939 152.846 210.038 152.926 210.145 152.995C210.145 152.995 210.062 152.84 209.896 152.697C209.8 152.61 209.686 152.545 209.562 152.507Z" fill="#263238"/>
<path d="M206.042 152.97C206.156 152.917 206.261 152.845 206.351 152.756C206.506 152.625 206.625 152.506 206.601 152.483C206.488 152.539 206.384 152.611 206.292 152.697C206.137 152.828 206.03 152.947 206.042 152.97Z" fill="#263238"/>
<path d="M209.504 156.063C209.504 156.063 209.682 155.944 209.872 155.765C209.996 155.662 210.101 155.537 210.182 155.397C210.047 155.485 209.923 155.589 209.813 155.706C209.623 155.884 209.432 156.051 209.504 156.063Z" fill="#263238"/>
<path d="M205.936 155.374C205.936 155.374 206.066 155.541 206.257 155.707C206.447 155.874 206.602 156.004 206.614 155.981C206.625 155.957 206.495 155.814 206.304 155.648C206.198 155.536 206.073 155.444 205.936 155.374Z" fill="#263238"/>
<path d="M209.646 163.95C209.711 164.06 209.791 164.161 209.884 164.247C210.027 164.402 210.158 164.509 210.182 164.485C210.118 164.375 210.037 164.275 209.944 164.188C209.789 164.105 209.658 163.926 209.646 163.95Z" fill="#263238"/>
<path d="M206.007 164.497C206.007 164.497 206.161 164.413 206.34 164.259C206.518 164.104 206.625 163.985 206.613 163.961C206.491 164.023 206.378 164.103 206.28 164.199C206.174 164.284 206.082 164.384 206.007 164.497Z" fill="#263238"/>
<path d="M200.262 142.694C200.262 142.694 200.262 142.195 200.262 141.338C200.262 140.482 200.262 139.197 200.262 137.829H204.52V139.126C204.52 139.554 204.52 139.97 204.52 140.387V142.694H201.451H204.579V137.936H200.285C200.285 139.316 200.285 140.506 200.285 141.505C200.285 142.504 200.262 142.694 200.262 142.694Z" fill="#263238"/>
<path d="M200.963 142.112C200.963 142.112 200.963 141.719 200.963 141.065C200.963 140.411 200.963 139.4 200.963 138.401H203.889V140.316C203.889 140.922 203.889 141.505 203.889 142.052H201.772H200.963H203.913C203.913 141.505 203.913 140.922 203.913 140.316V138.377H200.951C200.951 139.376 200.951 140.28 200.951 141.065C200.951 141.85 200.963 142.112 200.963 142.112Z" fill="#263238"/>
<path d="M200.273 152.983C200.273 151.437 200.273 148.558 200.273 143.884H204.519V148.856C204.519 150.378 204.519 151.758 204.519 152.971C204.519 151.782 204.519 150.378 204.519 148.856V143.884H200.237C200.249 148.558 200.261 151.437 200.273 152.983Z" fill="#263238"/>
<path d="M200.963 152.472C200.963 152.472 200.963 152.258 200.963 151.865C200.963 151.473 200.963 150.842 200.963 150.188C200.963 148.665 200.963 146.691 200.963 144.443H203.889V148.903C203.889 150.236 203.889 151.437 203.889 152.472H200.963H201.737H203.889V144.419H200.928C200.928 146.679 200.928 148.654 200.928 150.188C200.928 150.842 200.928 151.377 200.928 151.865C200.928 152.353 200.963 152.472 200.963 152.472Z" fill="#263238"/>
<path d="M200.273 164.509C200.273 162.962 200.273 160.084 200.273 155.409H204.519V160.381C204.519 161.892 204.519 163.284 204.519 164.485V155.421H200.237C200.261 160.084 200.273 162.915 200.273 164.509Z" fill="#263238"/>
<path d="M200.975 163.997C200.975 163.997 200.975 163.783 200.975 163.39C200.975 162.998 200.975 162.367 200.975 161.713C200.975 160.191 200.975 158.216 200.975 155.968H203.901V157.158C203.901 157.538 203.901 157.919 203.901 158.347V160.488C203.901 161.82 203.901 163.033 203.901 164.056H200.975H203.936V156.016H200.963C200.963 158.276 200.963 160.25 200.963 161.785C200.963 162.439 200.963 162.974 200.963 163.45C200.963 163.926 200.975 163.997 200.975 163.997Z" fill="#263238"/>
<path d="M203.818 142.099C203.818 142.099 203.961 142.266 204.175 142.42C204.389 142.575 204.556 142.694 204.568 142.67C204.467 142.549 204.351 142.441 204.223 142.349C204.1 142.248 203.964 142.164 203.818 142.099Z" fill="#263238"/>
<path d="M200.237 142.694C200.237 142.694 200.416 142.611 200.606 142.468C200.726 142.384 200.834 142.284 200.927 142.171C200.793 142.226 200.669 142.302 200.558 142.397C200.438 142.481 200.33 142.581 200.237 142.694Z" fill="#263238"/>
<path d="M200.321 137.936C200.407 138.039 200.512 138.124 200.631 138.186C200.737 138.274 200.858 138.342 200.987 138.388C200.987 138.388 200.857 138.246 200.678 138.127C200.5 138.008 200.333 137.936 200.321 137.936Z" fill="#263238"/>
<path d="M203.866 138.329C203.866 138.329 204.045 138.269 204.223 138.15C204.34 138.091 204.444 138.01 204.532 137.913C204.532 137.913 204.366 137.913 204.175 138.091C204.061 138.154 203.957 138.235 203.866 138.329Z" fill="#263238"/>
<path d="M203.901 144.455C204.047 144.406 204.176 144.315 204.27 144.193C204.38 144.093 204.462 143.966 204.508 143.824C204.508 143.824 204.377 143.967 204.21 144.145C204.044 144.324 203.889 144.431 203.901 144.455Z" fill="#263238"/>
<path d="M200.309 143.884C200.391 143.995 200.492 144.091 200.606 144.169C200.702 144.264 200.815 144.341 200.939 144.395C200.939 144.395 200.832 144.241 200.654 144.11C200.475 143.979 200.332 143.884 200.309 143.884Z" fill="#263238"/>
<path d="M203.913 152.519C203.997 152.614 204.093 152.698 204.199 152.768C204.287 152.856 204.387 152.932 204.496 152.994C204.439 152.879 204.353 152.78 204.246 152.709C204.08 152.566 203.925 152.495 203.913 152.519Z" fill="#263238"/>
<path d="M200.393 152.971C200.393 152.971 200.535 152.9 200.69 152.757C200.79 152.684 200.879 152.596 200.952 152.495C200.952 152.495 200.797 152.567 200.642 152.698C200.488 152.828 200.369 152.959 200.393 152.971Z" fill="#263238"/>
<path d="M203.842 156.076C203.98 155.992 204.104 155.887 204.211 155.766C204.334 155.663 204.442 155.543 204.532 155.409C204.391 155.484 204.266 155.585 204.163 155.707C204.037 155.812 203.929 155.937 203.842 156.076Z" fill="#263238"/>
<path d="M200.285 155.386C200.373 155.51 200.477 155.622 200.594 155.719C200.703 155.827 200.828 155.92 200.963 155.992C200.963 155.992 200.844 155.826 200.654 155.659C200.464 155.493 200.297 155.362 200.285 155.386Z" fill="#263238"/>
<path d="M203.996 163.949C203.996 163.949 204.079 164.104 204.222 164.247C204.307 164.346 204.407 164.43 204.519 164.496C204.464 164.38 204.382 164.279 204.282 164.199C204.203 164.099 204.106 164.014 203.996 163.949Z" fill="#263238"/>
<path d="M200.345 164.508C200.467 164.447 200.58 164.367 200.678 164.271C200.785 164.184 200.881 164.084 200.963 163.973C200.839 164.033 200.726 164.113 200.63 164.211C200.463 164.354 200.333 164.485 200.345 164.508Z" fill="#263238"/>
<path d="M244.295 131.763C244.421 131.781 244.549 131.781 244.676 131.763H245.794H250.016L264.777 131.823H264.932V131.668C265.633 127.553 266.419 122.985 267.227 118.18C268.786 108.89 270.177 100.481 271.2 94.3911C271.688 91.3699 272.08 88.9078 272.389 87.1593C272.508 86.3386 272.604 85.6844 272.687 85.1967C272.687 84.9945 272.687 84.8161 272.746 84.6852C272.806 84.5544 272.746 84.5068 272.746 84.5068C272.746 84.5068 272.746 84.5663 272.746 84.6734L272.639 85.1848C272.544 85.6606 272.425 86.3148 272.271 87.1355L270.986 94.3435C269.939 100.469 268.488 108.867 266.894 118.132C266.085 122.89 265.324 127.493 264.634 131.621L264.813 131.466L250.04 131.549L245.829 131.609H244.711L244.295 131.763Z" fill="#263238"/>
<path d="M113.611 40.0337L77.4277 86.9809H81.9476L115.442 42.4839L113.611 40.0337Z" fill="url(#paint8_linear_2604_298)"/>
<path d="M113.611 40.0337L113.718 40.2002C113.801 40.3073 113.92 40.4619 114.051 40.6641L115.395 42.5196V42.4483C110.947 48.2289 97.6487 65.797 81.7934 86.8501L81.9481 86.7787H77.4044L77.5709 87.0998L103.073 53.855L110.768 43.7685L112.862 41.0209L113.409 40.2954L113.587 40.0337L113.409 40.2478L112.862 40.9377L110.756 43.6258L103.001 53.5814L77.2498 86.8857L77 87.2069H82.0313V87.1355C97.8747 66.0705 111.077 48.4311 115.407 42.5553C114.777 41.7346 114.313 41.128 113.98 40.7117L113.647 40.2716L113.611 40.0337Z" fill="#263238"/>
<path d="M146.522 84.8992C146.522 85.0181 153.409 85.1014 161.914 85.0895C170.418 85.0776 177.317 84.9824 177.317 84.8754C177.317 84.7683 170.418 84.6851 161.914 84.6851C153.409 84.6851 146.522 84.7921 146.522 84.8992Z" fill="#263238"/>
<path d="M188.807 136.057H178.971V165.852H188.807V136.057Z" fill="white"/>
<path d="M178.983 165.852C178.983 165.852 178.983 165.793 178.983 165.698C178.983 165.603 178.983 165.424 178.983 165.258C178.983 164.841 178.983 164.282 178.983 163.569C178.983 162.07 178.983 160 178.983 157.324C178.983 152.007 178.983 144.585 179.054 136.057L178.864 136.247H188.7C188.308 135.843 188.593 136.14 188.498 136.057V137.139C188.498 137.508 188.498 137.877 188.498 138.246V144.716C188.498 147.511 188.498 150.188 188.498 152.721C188.498 157.776 188.498 162.237 188.558 165.805L188.688 165.674L181.492 165.757H179.542H181.469L188.736 165.817H188.867V165.686C188.867 162.118 188.867 157.645 188.867 152.602V135.95C188.772 135.855 189.069 136.14 188.665 135.736H178.828H178.638V135.926C178.638 144.514 178.721 151.972 178.745 157.336C178.745 159.953 178.745 162.094 178.804 163.533C178.804 164.235 178.804 164.782 178.804 165.186C178.846 165.413 178.906 165.635 178.983 165.852Z" fill="#263238"/>
<path d="M178.875 144.051C180.508 144.249 182.155 144.313 183.799 144.241C185.44 144.312 187.083 144.245 188.712 144.039C187.082 143.848 185.439 143.784 183.799 143.848C182.155 143.784 180.508 143.852 178.875 144.051Z" fill="#263238"/>
<path d="M178.91 156.396C180.543 156.602 182.19 156.669 183.834 156.598C185.479 156.662 187.125 156.594 188.759 156.396C187.126 156.19 185.479 156.123 183.834 156.194C182.19 156.13 180.544 156.198 178.91 156.396Z" fill="#263238"/>
<path d="M183.811 165.769C183.918 165.769 184.001 159.168 184.001 151.02C184.001 142.873 183.894 136.259 183.787 136.259C183.68 136.259 183.597 142.861 183.597 151.02C183.597 159.18 183.704 165.769 183.811 165.769Z" fill="#263238"/>
<path d="M126.052 136.046H116.216V165.841H126.052V136.046Z" fill="white"/>
<path d="M116.228 165.84C116.228 165.84 116.228 165.84 116.228 165.686V165.293C116.228 164.877 116.228 164.318 116.228 163.604C116.228 162.117 116.228 160.036 116.228 157.36C116.228 152.043 116.228 144.633 116.299 136.093L116.109 136.283H125.946L125.755 136.093V140.482C125.755 141.933 125.755 143.36 125.755 144.752C125.755 147.547 125.755 150.235 125.755 152.768C125.755 157.812 125.755 162.284 125.815 165.852L125.946 165.721L118.749 165.793H116.811H116.109C116.109 165.793 116.109 165.793 116.264 165.793H116.751H118.678L125.946 165.864H126.172V165.733C126.172 162.165 126.172 157.681 126.172 152.65V135.997C126.088 135.902 126.374 136.188 125.969 135.795H115.942V135.985C115.942 144.573 116.026 152.031 116.049 157.395C116.049 160.012 116.049 162.153 116.109 163.592C116.109 164.294 116.109 164.841 116.109 165.246C116.109 165.65 116.228 165.852 116.228 165.84Z" fill="#263238"/>
<path d="M116.572 144.252C118.206 144.451 119.853 144.514 121.497 144.442C123.137 144.514 124.78 144.446 126.409 144.24C124.775 144.049 123.129 143.986 121.485 144.05C119.844 143.986 118.202 144.053 116.572 144.252Z" fill="#263238"/>
<path d="M116.655 156.599C118.288 156.804 119.935 156.872 121.58 156.801C123.224 156.865 124.87 156.797 126.504 156.599C124.871 156.393 123.224 156.325 121.58 156.396C119.935 156.34 118.289 156.407 116.655 156.599Z" fill="#263238"/>
<path d="M121.509 165.971C121.616 165.971 121.699 159.37 121.699 151.222C121.699 143.074 121.592 136.461 121.485 136.461C121.378 136.461 121.295 143.074 121.295 151.222C121.295 159.37 121.414 165.971 121.509 165.971Z" fill="#263238"/>
<path d="M114.491 136.271H104.654V166.067H114.491V136.271Z" fill="white"/>
<path d="M104.666 166.067C104.666 166.067 104.666 166.067 104.666 165.912C104.666 165.757 104.666 165.639 104.666 165.46C104.666 165.056 104.666 164.485 104.666 163.783C104.666 162.284 104.666 160.215 104.726 157.538C104.726 152.222 104.726 144.8 104.797 136.271L104.595 136.462H114.431C114.039 136.057 114.324 136.354 114.241 136.271V140.672C114.241 142.123 114.241 143.551 114.241 144.954C114.241 147.749 114.241 150.426 114.241 152.959C114.241 158.014 114.241 162.475 114.313 166.043L114.443 165.912L107.247 165.995H105.297H107.212L114.491 166.055H114.622V165.924C114.622 162.356 114.622 157.883 114.622 152.84V136.188C114.539 136.093 114.824 136.378 114.42 135.974H104.583H104.393V136.164C104.393 144.752 104.476 152.21 104.5 157.574C104.5 160.191 104.5 162.332 104.559 163.771C104.559 164.461 104.559 165.02 104.559 165.413C104.559 165.805 104.666 166.079 104.666 166.067Z" fill="#263238"/>
<path d="M104.559 144.264C106.192 144.463 107.839 144.526 109.483 144.455C111.123 144.519 112.766 144.451 114.395 144.252C112.765 144.061 111.123 143.998 109.483 144.062C107.839 143.998 106.192 144.065 104.559 144.264Z" fill="#263238"/>
<path d="M104.606 156.611C106.235 156.817 107.879 156.884 109.519 156.813C111.163 156.877 112.81 156.81 114.443 156.611C112.81 156.405 111.163 156.337 109.519 156.408C107.879 156.344 106.236 156.412 104.606 156.611Z" fill="#263238"/>
<path d="M109.52 165.984C109.639 165.984 109.722 159.382 109.71 151.235C109.698 143.087 109.615 136.474 109.496 136.474C109.377 136.474 109.306 143.075 109.318 151.235C109.33 159.394 109.389 165.984 109.52 165.984Z" fill="#263238"/>
<path d="M231.283 136.009H221.446V165.805H231.283V136.009Z" fill="white"/>
<path d="M221.457 165.817C221.457 165.817 221.457 165.757 221.457 165.662V165.21C221.457 164.806 221.457 164.235 221.457 163.533C221.457 162.034 221.457 159.965 221.517 157.288C221.517 151.972 221.517 144.55 221.588 136.021L221.386 136.212H231.222L231.032 136.021V140.422C231.032 141.873 231.032 143.301 231.032 144.704C231.032 147.499 231.032 150.176 231.032 152.709C231.032 157.764 231.032 162.225 231.104 165.793L231.234 165.662L224.038 165.745H222.088H224.003L231.282 165.805H231.413V165.674C231.413 162.106 231.413 157.633 231.413 152.59C231.413 150.057 231.413 147.38 231.413 144.585C231.413 143.182 231.413 141.754 231.413 140.303V135.902C231.33 135.807 231.615 136.093 231.211 135.688H221.374H221.184V135.879C221.184 144.466 221.267 151.924 221.291 157.288C221.291 159.905 221.291 162.046 221.35 163.485C221.35 164.175 221.35 164.675 221.35 165.127C221.35 165.579 221.457 165.829 221.457 165.817Z" fill="#263238"/>
<path d="M221.327 144.015C222.961 144.206 224.608 144.27 226.251 144.205C227.892 144.269 229.534 144.202 231.164 144.003C229.534 143.812 227.891 143.748 226.251 143.813C224.607 143.748 222.961 143.816 221.327 144.015Z" fill="#263238"/>
<path d="M221.398 156.361C223.027 156.567 224.671 156.635 226.311 156.563C227.955 156.62 229.601 156.553 231.235 156.361C229.602 156.155 227.955 156.087 226.311 156.159C224.671 156.094 223.028 156.162 221.398 156.361Z" fill="#263238"/>
<path d="M226.286 165.733C226.405 165.733 226.488 159.132 226.476 150.984C226.465 142.837 226.381 136.223 226.262 136.223C226.143 136.223 226.084 142.825 226.084 151.02C226.084 159.215 226.179 165.733 226.286 165.733Z" fill="#263238"/>
<path d="M216.058 109.973H193.827V126.458H216.058V109.973Z" fill="white"/>
<path d="M193.839 126.47C193.839 126.47 193.839 126.351 193.839 126.149C193.839 125.947 193.839 125.626 193.839 125.269C193.839 124.476 193.839 123.358 193.839 121.914C193.839 119.024 193.839 114.932 193.91 110.02L193.755 110.187H215.986C215.986 110.187 215.605 109.818 215.784 109.996V114.338C215.784 115.777 215.784 117.192 215.784 118.572C215.784 121.332 215.784 123.972 215.784 126.446L215.962 126.268L199.964 126.375H195.385H194.195H193.767H194.16H195.349H199.881L215.998 126.446H216.176V126.268C216.176 123.794 216.176 121.153 216.176 118.394V109.818C216.367 109.984 215.938 109.568 215.986 109.616H193.755H193.589V109.782C193.589 114.778 193.66 118.905 193.684 121.819C193.684 123.223 193.684 124.329 193.684 125.126C193.684 125.483 193.684 125.768 193.684 125.982C193.703 126.153 193.756 126.319 193.839 126.47Z" fill="#263238"/>
<path d="M199.238 114.148C200.682 115.295 202.204 116.34 203.794 117.276C205.311 118.317 206.901 119.247 208.552 120.059C207.105 118.91 205.578 117.865 203.984 116.931C202.472 115.889 200.886 114.958 199.238 114.148Z" fill="#263238"/>
<path d="M205.114 119.869C205.68 120.443 206.334 120.921 207.053 121.285C207.718 121.75 208.453 122.107 209.23 122.343C208.652 121.771 207.985 121.297 207.255 120.94C206.604 120.469 205.881 120.108 205.114 119.869Z" fill="#263238"/>
<path d="M165.72 140.161H143.489V156.647H165.72V140.161Z" fill="white"/>
<path d="M143.502 156.658C143.502 156.658 143.502 156.539 143.502 156.337C143.502 156.135 143.502 155.826 143.502 155.457C143.502 154.648 143.502 153.53 143.502 152.115C143.502 149.212 143.502 145.121 143.573 140.22L143.407 140.387H165.637L165.447 140.196V144.538C165.447 145.977 165.447 147.393 165.447 148.772C165.447 151.532 165.447 154.172 165.447 156.646L165.625 156.468L149.627 156.575H145.048H143.859H143.43C143.561 156.587 143.692 156.587 143.823 156.575H145.012H149.544L165.661 156.646H165.839V156.456C165.839 153.982 165.839 151.342 165.839 148.582V144.348C165.839 143.634 165.839 142.908 165.839 142.183V140.006L165.637 139.804L143.407 139.863H143.252V140.018C143.252 145.014 143.323 149.141 143.347 152.055C143.347 153.459 143.347 154.577 143.347 155.362C143.347 155.719 143.347 156.004 143.347 156.218C143.372 156.373 143.424 156.522 143.502 156.658Z" fill="#263238"/>
<path d="M148.901 144.288C151.861 146.5 154.982 148.488 158.238 150.235C156.792 149.086 155.265 148.041 153.671 147.107C152.151 146.054 150.557 145.112 148.901 144.288Z" fill="#263238"/>
<path d="M154.777 150.069C155.36 150.631 156.026 151.1 156.752 151.46C157.415 151.932 158.15 152.293 158.929 152.531C158.354 151.955 157.687 151.48 156.954 151.127C156.295 150.652 155.558 150.294 154.777 150.069Z" fill="#263238"/>
<path d="M128.502 88.9912H106.271V111.222H128.502V88.9912Z" fill="white"/>
<path d="M106.284 111.234C106.294 111.091 106.294 110.948 106.284 110.806C106.284 110.508 106.284 110.116 106.284 109.616C106.284 108.546 106.284 107.011 106.284 105.084C106.284 101.171 106.284 95.6403 106.355 89.0151L106.188 89.1935H128.55C128.55 89.1935 128.169 88.8248 128.348 89.0032V92.0006C128.348 92.9997 128.348 93.9988 128.348 94.9742V100.719C128.348 104.454 128.348 107.975 128.348 111.21L128.514 111.032L112.457 111.139H107.925H106.736H106.307H106.7H107.889H112.385L128.55 111.21H128.728V111.044C128.728 107.808 128.728 104.288 128.728 100.553V88.8248L128.538 88.6226H106.307H106.129V88.7891C106.129 95.4618 106.212 101.028 106.236 104.965C106.236 106.88 106.236 108.391 106.236 109.462C106.236 109.949 106.236 110.342 106.236 110.651C106.236 110.96 106.284 111.246 106.284 111.234Z" fill="#263238"/>
<path d="M111.685 93.2491C113.131 94.3901 114.653 95.4313 116.24 96.3654C117.756 97.4128 119.346 98.3471 120.998 99.1606C118.034 96.9553 114.913 94.9677 111.661 93.2134L111.685 93.2491Z" fill="#263238"/>
<path d="M117.56 99.0173C118.137 99.59 118.804 100.064 119.534 100.421C120.199 100.886 120.934 101.243 121.711 101.479C121.137 100.903 120.469 100.429 119.736 100.076C119.074 99.6062 118.338 99.2485 117.56 99.0173Z" fill="#263238"/>
<path d="M201.989 132.4L209.186 132.394L209.184 130.146L201.987 130.152L201.989 132.4Z" fill="#E0E0E0"/>
<path d="M143.05 128.23C143.157 128.23 143.24 117.181 143.228 103.561C143.216 89.9424 143.121 78.8687 143.002 78.8687C142.883 78.8687 142.812 89.9186 142.824 103.561C142.835 117.204 142.943 128.23 143.05 128.23Z" fill="#263238"/>
<path d="M279.871 164.164C279.99 164.164 280.073 156.599 280.061 147.25C280.049 137.901 279.954 130.336 279.847 130.336C279.74 130.336 279.609 137.936 279.609 147.25C279.609 156.563 279.764 164.164 279.871 164.164Z" fill="#263238"/>
<path d="M204.444 65.8387C218.701 63.5143 228.374 50.0722 226.05 35.815C223.725 21.5578 210.283 11.8844 196.026 14.2089C181.769 16.5334 172.095 29.9755 174.42 44.2327C176.744 58.4899 190.186 68.1632 204.444 65.8387Z" fill="url(#paint9_linear_2604_298)"/>
<g opacity="0.1">
<path d="M199.477 13.8896C192.542 14.0918 185.971 17.0395 181.209 22.0848C176.447 27.1301 173.884 33.8599 174.082 40.7948C174.082 40.7948 192.483 41.0803 196.681 33.5511C200.88 26.0219 199.477 13.8896 199.477 13.8896Z" fill="white"/>
</g>
<path d="M219.685 39.047C219.801 42.979 218.748 46.857 216.66 50.1906C214.572 53.5242 211.542 56.1637 207.954 57.7753C204.365 59.3868 200.38 59.8979 196.501 59.2441C192.622 58.5903 189.024 56.8008 186.162 54.102C183.3 51.4032 181.303 47.9163 180.423 44.0824C179.543 40.2484 179.82 36.2396 181.218 32.563C182.617 28.8863 185.074 25.7069 188.28 23.427C191.485 21.1471 195.295 19.8689 199.227 19.7543C204.498 19.6006 209.614 21.5467 213.451 25.1646C217.287 28.7825 219.53 33.776 219.685 39.047Z" fill="url(#paint10_linear_2604_298)"/>
<g opacity="0.2">
<path d="M219.685 39.047C219.801 42.979 218.748 46.857 216.66 50.1906C214.572 53.5242 211.542 56.1637 207.954 57.7753C204.365 59.3868 200.38 59.8979 196.501 59.2441C192.622 58.5903 189.024 56.8008 186.162 54.102C183.3 51.4032 181.303 47.9163 180.423 44.0824C179.543 40.2484 179.82 36.2396 181.218 32.563C182.617 28.8863 185.074 25.7069 188.28 23.427C191.485 21.1471 195.295 19.8689 199.227 19.7543C204.498 19.6006 209.614 21.5467 213.451 25.1646C217.287 28.7825 219.53 33.776 219.685 39.047Z" fill="black"/>
</g>
<path d="M220.268 39.8675C220.381 43.7433 219.343 47.5657 217.285 50.8519C215.227 54.138 212.241 56.7404 208.704 58.3301C205.168 59.9199 201.239 60.4258 197.415 59.7839C193.592 59.1419 190.044 57.381 187.22 54.7235C184.396 52.066 182.424 48.6312 181.552 44.8531C180.679 41.0751 180.946 37.1232 182.319 33.4968C183.692 29.8705 186.109 26.7324 189.264 24.479C192.42 22.2256 196.172 20.958 200.048 20.8364C202.626 20.754 205.195 21.1813 207.608 22.0938C210.021 23.0063 212.23 24.3862 214.109 26.1542C215.987 27.9223 217.498 30.0437 218.555 32.3969C219.612 34.7501 220.194 37.2888 220.268 39.8675Z" fill="url(#paint11_linear_2604_298)"/>
<path d="M178.328 52.9509C178.274 52.8911 178.23 52.8228 178.197 52.7487L177.864 52.1658C177.685 51.8535 177.522 51.5319 177.377 51.2024C177.198 50.8337 176.984 50.4055 176.794 49.9178C176.699 49.668 176.592 49.4064 176.485 49.1447C176.378 48.883 176.306 48.5856 176.199 48.3002C175.985 47.7173 175.83 47.1107 175.652 46.3971C175.29 44.9327 175.052 43.4407 174.938 41.9366C174.849 40.4259 174.88 38.9105 175.033 37.4049C175.117 36.715 175.188 36.0608 175.319 35.4542C175.378 35.1449 175.426 34.8595 175.485 34.574C175.545 34.2886 175.628 34.0269 175.688 33.7771C175.795 33.2656 175.961 32.8136 176.08 32.4092C176.199 32.0048 176.33 31.6718 176.437 31.3982C176.544 31.1246 176.615 30.9343 176.687 30.7678L176.782 30.5537C176.782 30.5537 176.782 30.637 176.722 30.7916L176.508 31.422C176.413 31.7075 176.294 32.0405 176.187 32.4449C176.08 32.8493 175.926 33.2894 175.818 33.8128C175.759 34.0626 175.7 34.3242 175.64 34.6097C175.581 34.8952 175.533 35.1806 175.474 35.478C175.355 36.0846 175.295 36.7388 175.212 37.4287C175.067 38.923 175.044 40.4266 175.141 41.9248C175.255 43.4185 175.482 44.9015 175.818 46.3614C175.997 47.0275 176.152 47.6698 176.354 48.2526C176.449 48.5381 176.532 48.8235 176.627 49.0971C176.722 49.3707 176.83 49.6204 176.925 49.8583C177.103 50.3579 177.305 50.7742 177.472 51.1667C177.638 51.5592 177.793 51.8685 177.936 52.1302L178.233 52.7249C178.293 52.8676 178.328 52.939 178.328 52.9509Z" fill="white"/>
<path d="M194.458 37.7737C194.219 37.6358 194.015 37.4445 193.863 37.2147C193.459 36.6767 193.246 36.0198 193.256 35.3473C193.262 34.6772 193.483 34.0268 193.887 33.4917C194.042 33.2637 194.25 33.0761 194.493 32.9446C194.493 32.9446 194.267 33.1706 194.006 33.575C193.649 34.098 193.455 34.7144 193.447 35.3473C193.447 35.9852 193.633 36.6093 193.982 37.1433C194.243 37.5477 194.481 37.7499 194.458 37.7737Z" fill="white"/>
<path d="M198.726 30.0299C198.726 30.0299 198.619 29.6731 198.608 29.2211C198.596 28.7691 198.608 28.4004 198.679 28.4004C198.779 28.6575 198.82 28.9341 198.798 29.2092C198.833 29.4847 198.808 29.7645 198.726 30.0299Z" fill="white"/>
<path d="M201.011 19.1824C200.797 19.2058 200.582 19.2058 200.368 19.1824C200.119 19.1696 199.869 19.1696 199.619 19.1824C199.334 19.1824 199.001 19.1824 198.632 19.1824C198.263 19.1824 197.871 19.1824 197.442 19.2657C197.014 19.3489 196.55 19.3727 196.075 19.4441C195.04 19.6231 194.018 19.8735 193.018 20.1934C192.023 20.5202 191.053 20.9177 190.115 21.3829C189.687 21.6089 189.283 21.8111 188.926 22.049C188.569 22.2869 188.212 22.4772 187.915 22.6794C187.618 22.8816 187.344 23.0838 187.106 23.2622C186.868 23.4406 186.678 23.5833 186.511 23.7142C186.355 23.8589 186.184 23.9865 186 24.0948C186.144 23.9375 186.299 23.7904 186.464 23.6547C186.65 23.4822 186.844 23.3194 187.047 23.167C187.273 22.9886 187.522 22.7745 187.832 22.5723C188.141 22.3701 188.474 22.1322 188.843 21.9062C189.212 21.6802 189.616 21.4542 190.032 21.2163C190.977 20.7491 191.955 20.3516 192.958 20.0269C193.969 19.7034 195.003 19.4569 196.051 19.2895C196.527 19.2895 196.99 19.1586 197.431 19.1348C197.871 19.111 198.263 19.1348 198.62 19.0635C198.977 18.9921 199.322 19.0635 199.619 19.0635H200.368L201.011 19.1824Z" fill="white"/>
<path d="M204.139 64.738C203.989 64.7984 203.834 64.8423 203.675 64.8689C203.252 64.9809 202.823 65.0683 202.39 65.1305C199.514 65.5977 196.568 65.3818 193.79 64.5001C193.255 64.3336 192.827 64.179 192.541 64.06C192.391 64.0047 192.248 63.9329 192.113 63.8459C192.273 63.8768 192.428 63.9247 192.577 63.9887L193.826 64.3693C195.208 64.7652 196.627 65.0163 198.06 65.1186C199.496 65.2255 200.939 65.1856 202.366 64.9997C202.913 64.9283 203.353 64.857 203.663 64.7975C203.819 64.7642 203.979 64.7443 204.139 64.738Z" fill="white"/>
<path d="M191.638 24.3596C192.945 23.5493 194.351 22.9215 195.82 22.4929L196.682 18.2624L203.683 18.1355L204.715 22.366C206.199 22.7397 207.626 23.3159 208.959 24.0793L212.496 21.705L217.535 26.6811L215.341 30.3827C216.13 31.7211 216.741 33.1617 217.158 34.6661L221.288 35.5492L221.407 42.7198L217.277 43.751C216.913 45.2699 216.353 46.7319 215.609 48.0978L217.927 51.7201L213.064 56.8813L209.45 54.6339C208.142 55.4436 206.733 56.0696 205.263 56.4953L204.401 60.7258L197.405 60.8474L196.372 56.6434C194.899 56.2603 193.481 55.6807 192.154 54.9194L188.618 57.2938L183.584 52.3124L185.773 48.6107C184.985 47.2699 184.374 45.8277 183.956 44.3221L179.825 43.439L179.712 36.2895L183.842 35.2319C184.208 33.7114 184.771 32.2477 185.515 30.8798L183.197 27.2575L188.024 22.1121L191.638 24.3596ZM195.366 33.9046C194.333 34.9992 193.641 36.3828 193.377 37.8803C193.112 39.3779 193.287 40.9222 193.88 42.3179C194.472 43.7135 195.455 44.8979 196.705 45.7212C197.954 46.5445 199.414 46.9697 200.9 46.9431C202.386 46.9165 203.83 46.4392 205.051 45.5716C206.272 44.704 207.214 43.4851 207.758 42.0691C208.302 40.653 208.425 39.1034 208.109 37.6162C207.794 36.1291 207.055 34.7712 205.986 33.7142C204.552 32.3035 202.632 31.5316 200.645 31.5672C198.658 31.6029 196.765 32.4433 195.381 33.9046H195.366Z" fill="#F5F5F5"/>
<defs>
<linearGradient id="paint0_linear_2604_298" x1="103.048" y1="40.0337" x2="103.048" y2="86.9809" gradientUnits="userSpaceOnUse">
<stop stop-color="#FF5722"/>
<stop stop-color="#FF5722"/>
<stop offset="0.665" stop-color="#FF5722"/>
</linearGradient>
<linearGradient id="paint1_linear_2604_298" x1="276.123" y1="84.5786" x2="276.123" y2="130.027" gradientUnits="userSpaceOnUse">
<stop stop-color="#FF5722"/>
<stop stop-color="#FF5722"/>
<stop offset="0.665" stop-color="#FF5722"/>
</linearGradient>
<linearGradient id="paint2_linear_2604_298" x1="207.386" y1="84.7205" x2="207.386" y2="132.001" gradientUnits="userSpaceOnUse">
<stop stop-color="#FF5722"/>
<stop stop-color="#FF5722"/>
<stop offset="0.665" stop-color="#FF5722"/>
</linearGradient>
<linearGradient id="paint3_linear_2604_298" x1="229.504" y1="84.626" x2="229.504" y2="131.764" gradientUnits="userSpaceOnUse">
<stop stop-color="#FF5722"/>
<stop stop-color="#FF5722"/>
<stop offset="0.665" stop-color="#FF5722"/>
</linearGradient>
<linearGradient id="paint4_linear_2604_298" x1="144.595" y1="38.1545" x2="144.595" y2="85.0423" gradientUnits="userSpaceOnUse">
<stop stop-color="#FF5722"/>
<stop stop-color="#FF5722"/>
<stop offset="0.665" stop-color="#FF5722"/>
</linearGradient>
<linearGradient id="paint5_linear_2604_298" x1="132.16" y1="38.1545" x2="132.16" y2="85.0423" gradientUnits="userSpaceOnUse">
<stop stop-color="#FF5722"/>
<stop stop-color="#FF5722"/>
<stop offset="0.665" stop-color="#FF5722"/>
</linearGradient>
<linearGradient id="paint6_linear_2604_298" x1="183.763" y1="88.9075" x2="183.763" y2="133.083" gradientUnits="userSpaceOnUse">
<stop stop-color="#FF5722"/>
<stop stop-color="#FF5722"/>
<stop offset="0.665" stop-color="#FF5722"/>
</linearGradient>
<linearGradient id="paint7_linear_2604_298" x1="203.485" y1="84.6372" x2="203.485" y2="133.583" gradientUnits="userSpaceOnUse">
<stop stop-color="#FF5722"/>
<stop stop-color="#FF5722"/>
<stop offset="0.665" stop-color="#FF5722"/>
</linearGradient>
<linearGradient id="paint8_linear_2604_298" x1="96.435" y1="40.0337" x2="96.435" y2="86.9809" gradientUnits="userSpaceOnUse">
<stop stop-color="#FF5722"/>
<stop stop-color="#FF5722"/>
<stop offset="0.665" stop-color="#FF5722"/>
</linearGradient>
<linearGradient id="paint9_linear_2604_298" x1="196.026" y1="14.2089" x2="204.444" y2="65.8387" gradientUnits="userSpaceOnUse">
<stop stop-color="#FF5722"/>
<stop stop-color="#FF5722"/>
<stop offset="0.665" stop-color="#FF5722"/>
</linearGradient>
<linearGradient id="paint10_linear_2604_298" x1="199.806" y1="19.7458" x2="199.806" y2="59.5208" gradientUnits="userSpaceOnUse">
<stop stop-color="#FF5722"/>
<stop stop-color="#FF5722"/>
<stop offset="0.665" stop-color="#FF5722"/>
</linearGradient>
<linearGradient id="paint11_linear_2604_298" x1="200.663" y1="20.8264" x2="200.663" y2="60.0546" gradientUnits="userSpaceOnUse">
<stop stop-color="#FF5722"/>
<stop stop-color="#FF5722"/>
<stop offset="0.665" stop-color="#FF5722"/>
</linearGradient>
</defs>
</svg>
