<svg width="64" height="64" viewBox="0 0 64 64" fill="none" xmlns="http://www.w3.org/2000/svg">
<path d="M32.3957 11.5185L32.3959 11.5187L56.933 34.9678C56.9883 35.0208 57.0324 35.0844 57.0625 35.1549C57.0925 35.2254 57.108 35.3013 57.1079 35.3779V35.3785V57.3864C57.1079 58.3854 56.7111 59.3435 56.0047 60.0498C55.2983 60.7562 54.3402 61.1531 53.3413 61.1531H40.5333C40.1001 61.1531 39.6847 60.981 39.3784 60.6747C39.0721 60.3684 38.9 59.9529 38.9 59.5197V41.3865C38.9 40.971 38.7349 40.5725 38.4411 40.2787C38.1473 39.9849 37.7488 39.8198 37.3333 39.8198H26.6667C26.2512 39.8198 25.8527 39.9849 25.5589 40.2787C25.2651 40.5725 25.1 40.971 25.1 41.3865V59.5197C25.1 59.9529 24.9279 60.3684 24.6216 60.6747C24.3153 60.981 23.8999 61.1531 23.4667 61.1531H10.6534C9.6544 61.1531 8.69633 60.7562 7.98995 60.0498C7.28358 59.3435 6.88674 58.3855 6.88672 57.3865C6.88672 57.3865 6.88672 57.3865 6.88672 57.3864L6.89072 35.3786L6.89072 35.3779C6.89063 35.3013 6.90609 35.2254 6.93616 35.1549C6.96624 35.0844 7.01029 35.0208 7.06567 34.9678L31.612 11.5187L31.6123 11.5185C31.7177 11.4176 31.858 11.3613 32.004 11.3613C32.1499 11.3613 32.2902 11.4176 32.3957 11.5185Z" fill="#FFD6C9" stroke="#FF5722"/>
<path d="M62.9756 30.5679L62.9757 30.568C63.6398 31.203 63.6774 32.2854 63.0628 32.922L63.0627 32.9222C62.7625 33.2333 62.3512 33.4128 61.9189 33.4212C61.4867 33.4297 61.0687 33.2663 60.7566 32.9671L60.756 32.9665L33.0869 6.52939C33.0869 6.52932 33.0868 6.52925 33.0867 6.52919C32.7952 6.25041 32.4074 6.09482 32.004 6.09482C31.6006 6.09482 31.2127 6.25042 30.9212 6.5292C30.9211 6.52927 30.9211 6.52933 30.921 6.52939L3.25461 32.9665L3.25358 32.9675C3.09381 33.121 2.90446 33.2404 2.69707 33.3185C2.48967 33.3965 2.26857 33.4315 2.04721 33.4214C1.82585 33.4113 1.60886 33.3562 1.40945 33.2596C1.21004 33.1629 1.03239 33.0267 0.887299 32.8592L0.88646 32.8583C0.320101 32.2079 0.38257 31.1941 1.03439 30.5646C1.03465 30.5643 1.03492 30.5641 1.03518 30.5638L29.3936 3.43199L29.3988 3.42706L29.4038 3.42199C30.0207 2.79716 30.9585 2.42004 32 2.42004C33.0461 2.42004 33.9865 2.79757 34.6031 3.42098L34.603 3.42111L34.6131 3.43076L42.3357 10.8147L43.1813 11.6232V10.4534V6.1867C43.1813 5.75352 43.3534 5.33807 43.6597 5.03176C43.966 4.72545 44.3814 4.55337 44.8146 4.55337H51.2146C51.6478 4.55337 52.0632 4.72545 52.3695 5.03176C52.6758 5.33807 52.8479 5.75351 52.8479 6.1867V20.6653V20.8789L53.0023 21.0266L62.9756 30.5679Z" fill="#FFD6C9" stroke="#FF5722"/>
</svg>
