<svg width="64" height="64" viewBox="0 0 64 64" fill="none" xmlns="http://www.w3.org/2000/svg">
<path d="M46.979 33.2658C46.6511 33.4234 46.1313 33.6532 45.3037 33.9738C43.9027 34.5164 42.3711 35.8379 41.0522 37.2198C39.7193 38.6164 38.5444 40.1389 37.8584 41.1615C37.1789 42.1743 36.5484 43.1647 35.9867 44.7478C35.4538 46.2501 34.9882 48.2698 34.5797 51.34H8.587C6.44119 51.34 4.38389 50.4929 2.86752 48.986C1.35125 47.4792 0.5 45.4362 0.5 43.3067C0.5 39.6683 1.95439 36.1784 4.54423 33.6047C7.13419 31.0309 10.6476 29.5845 14.3117 29.5845H37.2103C40.62 29.5845 44.387 31.0009 46.979 33.2658ZM14.8117 12.0178C14.8117 9.13384 15.9645 6.36737 18.0175 4.32715C20.0707 2.28682 22.8561 1.14001 25.761 1.14001C28.666 1.14001 31.4513 2.28682 33.5045 4.32715C35.5575 6.36737 36.7103 9.13384 36.7103 12.0178C36.7103 14.9017 35.5575 17.6682 33.5045 19.7084C31.4513 21.7488 28.666 22.8956 25.761 22.8956C22.8561 22.8956 20.0707 21.7488 18.0175 19.7084C15.9645 17.6682 14.8117 14.9017 14.8117 12.0178Z" fill="#FFD6C9" stroke="#FF5722"/>
<path d="M53.6432 34.1724C53.1022 33.9221 52.6644 33.739 52.3246 33.618C52.0136 33.5071 51.6467 33.4013 51.219 33.2955L53.6432 34.1724ZM53.6432 34.1724L56.4224 32.7108M53.6432 34.1724L56.4224 32.7108M56.4224 32.7108C56.6492 32.5914 56.909 32.5483 57.1626 32.588C57.4161 32.6276 57.65 32.748 57.8289 32.9309L60.2734 35.4425M56.4224 32.7108L59.2033 39.7281M60.5067 36.6924L59.2033 39.7281M60.5067 36.6924C60.6892 36.2657 60.598 35.7768 60.2734 35.4425M60.5067 36.6924L60.047 36.4957M60.5067 36.6924L60.0472 36.4951M59.2033 39.7281C59.4197 40.1229 59.5921 40.4606 59.724 40.7428M59.2033 39.7281L59.724 40.7428M60.2734 35.4425L59.9151 35.7912L59.9149 35.7911M60.2734 35.4425L59.9146 35.7908L57.4715 33.2805L57.8289 32.9309L57.4706 33.2796L57.4712 33.2802C57.3679 33.1748 57.2326 33.105 57.0853 33.082C56.9378 33.0589 56.7869 33.084 56.6553 33.1533L56.6551 33.1534L53.8759 34.6149L53.6574 34.7299L53.4332 34.6262C52.8995 34.3792 52.4768 34.2029 52.1569 34.0891L52.1567 34.089C51.8667 33.9856 51.5171 33.8843 51.0989 33.7808L50.84 33.7168L50.749 33.4661L49.5556 30.1786M59.9149 35.7911L36.6577 33.5424C36.7538 33.4525 36.8743 33.3917 37.0049 33.3678C37.1357 33.3439 37.2706 33.358 37.3933 33.4085L37.3935 33.4086L40.6021 34.7257L40.8472 34.8263L41.0681 34.68C41.4107 34.453 41.7174 34.2719 41.9916 34.1278L41.9925 34.1273C42.3079 33.9606 42.7452 33.7785 43.3189 33.5752L43.5419 33.4962L43.6222 33.2736L44.7374 30.1823C44.7375 30.1821 44.7375 30.182 44.7376 30.1818C44.7847 30.0529 44.8708 29.941 44.9848 29.8617C45.099 29.7823 45.2355 29.7397 45.3755 29.74H45.3766H48.9165C49.2079 29.74 49.4617 29.9202 49.5556 30.1786M59.9149 35.7911C60.0994 35.9813 60.1497 36.2551 60.0472 36.4951M59.9149 35.7911L60.0472 36.4951M49.5556 30.1786L50.0255 30.0077L49.5555 30.1784L49.5556 30.1786ZM60.0472 36.4951L60.047 36.4957M60.047 36.4957L58.7438 39.5308L58.6477 39.7547L58.7648 39.9684C58.9773 40.3561 59.1444 40.6836 59.2705 40.9535C59.406 41.2469 59.5772 41.6586 59.7846 42.1988L59.8606 42.3966L60.0555 42.4796L63.0933 43.7732L63.0943 43.7736C63.3586 43.8855 63.5153 44.1439 63.4986 44.4138C63.4986 44.414 63.4986 44.4141 63.4985 44.4142L63.2755 47.8978C63.2755 47.8979 63.2755 47.8979 63.2755 47.8979C63.2669 48.026 63.2206 48.1491 63.142 48.2518L63.5391 48.5556L63.142 48.2518C63.0634 48.3546 62.9557 48.4326 62.8321 48.4757L62.8302 48.4764L59.953 49.4928L59.6879 49.5864L59.6302 49.8616C59.55 50.2436 59.4682 50.5628 59.3839 50.8269C59.2419 51.252 59.0799 51.6702 58.8983 52.0801L58.8073 52.2854L58.9004 52.4897L60.3457 55.6649L60.3461 55.6657C60.4035 55.7912 60.4189 55.9314 60.3902 56.066C60.3615 56.2006 60.2901 56.3231 60.1858 56.4153L60.1849 56.416L57.4369 58.8546C57.4368 58.8547 57.4367 58.8548 57.4366 58.8549C57.3319 58.9473 57.201 59.0061 57.0611 59.0228C56.9212 59.0396 56.7796 59.0135 56.6553 58.9482L60.047 36.4957ZM59.724 40.7428C59.866 41.0503 60.0418 41.4736 60.2514 42.0196M59.724 40.7428L60.2514 42.0196M60.2514 42.0196L63.2892 43.3132L60.2514 42.0196ZM34.2842 35.7701L36.6574 33.5427L37.3998 58.6078C37.277 58.6598 37.1415 58.6753 37.0099 58.6522C36.8781 58.6292 36.7564 58.5686 36.6593 58.4784L34.283 56.263L34.2822 56.2622C34.1821 56.1693 34.1143 56.0479 34.0879 55.9153C34.0615 55.7829 34.0776 55.6456 34.1341 55.5226C34.1341 55.5224 34.1342 55.5223 34.1343 55.5222L35.5151 52.5326L35.6178 52.3102L35.505 52.0927C35.3277 51.7509 35.1633 51.4026 35.0121 51.0486C34.8338 50.6102 34.6687 50.1666 34.5171 49.7183L34.4346 49.4745L34.1883 49.4L31.1623 48.4844L31.1613 48.4841C31.0202 48.4417 30.8977 48.3544 30.8126 48.2364C30.7276 48.1187 30.6843 47.9768 30.6888 47.8328C30.6888 47.8325 30.6888 47.8322 30.6888 47.8319L30.807 44.6083C30.807 44.608 30.8071 44.6078 30.8071 44.6076C30.8119 44.489 30.8493 44.3737 30.9154 44.2742C30.9816 44.1744 31.0743 44.0942 31.1837 44.0424L31.1855 44.0416L34.3603 42.5263L34.5666 42.4278L34.6271 42.2074C34.772 41.6792 34.8954 41.2803 35.0007 40.997C35.1545 40.6058 35.3252 40.2214 35.5123 39.8447L35.6205 39.6269L35.5159 39.4073L34.1399 36.5178C34.0812 36.3944 34.0634 36.2558 34.089 36.1219C34.1146 35.988 34.1823 35.8651 34.2831 35.7711L34.2842 35.7701ZM40.6117 57.2437L37.4 58.6077L56.6552 58.9481L53.8221 57.4563L53.5892 57.3337L53.3563 57.4563C52.9316 57.6797 52.4935 57.8771 52.0444 58.0471C52.0439 58.0473 52.0433 58.0475 52.0428 58.0477L50.808 58.507L50.5914 58.5876L50.5124 58.8049L49.4142 61.827C49.4141 61.8273 49.4141 61.8275 49.414 61.8278C49.3675 61.9538 49.2836 62.0635 49.1728 62.1421C49.0617 62.2209 48.9289 62.2648 48.7918 62.2674L48.7903 62.2675L45.5784 62.3397L45.5766 62.3398C45.4357 62.3434 45.2974 62.3036 45.1807 62.2261L44.9041 62.6427L45.1807 62.2261C45.0644 62.1489 44.9754 62.0382 44.9255 61.9095C44.9254 61.9092 44.9252 61.9088 44.9251 61.9085L43.6311 58.5056L43.5474 58.2856L43.3245 58.2099C42.8934 58.0634 42.4665 57.905 42.0444 57.7346C41.7028 57.5875 41.3663 57.429 41.0356 57.2591L40.8273 57.1521L40.6117 57.2437ZM47.1347 40.5318C44.049 40.5318 41.5328 42.99 41.5328 46.0431C41.5328 49.0961 44.0488 51.5562 47.1347 51.5562C50.2191 51.5562 52.735 49.096 52.735 46.0431C52.735 42.9902 50.2207 40.5318 47.1347 40.5318Z" fill="#FFD6C9" stroke="#FF5722"/>
</svg>
