<svg width="65" height="64" viewBox="0 0 65 64" fill="none" xmlns="http://www.w3.org/2000/svg">
<g clip-path="url(#clip0_2655_238)">
<path d="M29.7236 44.9679V44.4679H29.2236H7.03899C3.22508 44.4679 0.373413 40.9795 1.11924 37.2449C1.11925 37.2449 1.11927 37.2448 1.11929 37.2447L6.35352 11.1066C6.91999 8.28728 9.39335 6.26001 12.2733 6.26001H52.7168C55.5962 6.26001 58.0705 8.28692 58.647 11.1076C58.647 11.1078 58.6471 11.108 58.6471 11.1082L63.881 37.2445C64.6269 40.9882 61.7665 44.4679 57.9511 44.4679H35.7665H35.2665V44.9679V51.5026V52.0026H35.7665H42.3094C43.8434 52.0026 45.0809 53.2394 45.0809 54.7699C45.0809 56.3004 43.8434 57.5372 42.3094 57.5372H22.6807C21.1467 57.5372 19.9092 56.3004 19.9092 54.7699C19.9092 53.2394 21.1467 52.0026 22.6807 52.0026H29.2236H29.7236V51.5026V44.9679ZM26.4531 11.7947H26.0006L25.9556 12.2449L24.8923 22.8637L24.8373 23.4135H25.3898H39.6003H40.1528L40.0978 22.8637L39.0345 12.2449L38.9895 11.7947H38.537H26.4531ZM20.4622 23.4135H20.9151L20.9598 22.9628L22.0128 12.344L22.0672 11.7947H21.5152H12.2733H11.8635L11.7831 12.1965L9.65661 22.8153L9.53683 23.4135H10.1469H20.4622ZM9.16544 27.3145H8.75564L8.67518 27.7163L6.54873 38.3351L6.42894 38.9333H7.03899H18.9083H19.3607L19.4058 38.4831L20.469 27.8643L20.5241 27.3145H19.9715H9.16544ZM24.8991 27.3145H24.4467L24.4016 27.7647L23.3384 38.3835L23.2833 38.9333H23.8359H41.1542H41.7068L41.6517 38.3835L40.5885 27.7647L40.5434 27.3145H40.091H24.8991ZM45.0186 27.3145H44.4655L44.5212 27.8648L45.5946 38.4836L45.6401 38.9333H46.0921H57.9511H58.5612L58.4414 38.3351L56.3149 27.7163L56.2345 27.3145H55.8247H45.0186ZM44.0304 22.9633L44.0755 23.4135H44.5279H54.833H54.8432H55.4533L55.3335 22.8153L53.207 12.1965L53.1266 11.7947H52.7168H52.7066H43.4647H42.9121L42.9672 12.3445L44.0304 22.9633Z" fill="#FFD6C9" stroke="#FF5722"/>
</g>
<defs>
<clipPath id="clip0_2655_238">
<rect width="64" height="64" fill="white" transform="translate(0.5)"/>
</clipPath>
</defs>
</svg>
