<svg width="132" height="172" viewBox="0 0 132 172" fill="none" xmlns="http://www.w3.org/2000/svg">
<path d="M4.9739 5.52832V5.02832H4.4739V5.52832H4.9739ZM131 5.52832H131.5V5.02832H131V5.52832ZM131 171V171.5H131.5V171H131ZM4.9739 171H4.4739V171.5H4.9739V171ZM1 1V0.5C0.723858 0.5 0.5 0.723858 0.5 1H1ZM127.026 1H127.526C127.526 0.723858 127.302 0.5 127.026 0.5V1ZM127.026 166.472V166.972C127.302 166.972 127.526 166.748 127.526 166.472H127.026ZM1 166.472H0.5C0.5 166.748 0.723858 166.972 1 166.972V166.472ZM93.8732 51.2027C94.1494 51.2027 94.3732 50.9788 94.3732 50.7027C94.3732 50.4265 94.1494 50.2027 93.8732 50.2027V51.2027ZM7.81216 31.4182V30.9182C7.53602 30.9182 7.31216 31.1421 7.31216 31.4182H7.81216ZM119.487 31.4182H119.987C119.987 31.1421 119.763 30.9182 119.487 30.9182V31.4182ZM119.487 50.7027V51.2027C119.763 51.2027 119.987 50.9788 119.987 50.7027H119.487ZM95.951 50.2027C95.6748 50.2027 95.451 50.4265 95.451 50.7027C95.451 50.9788 95.6748 51.2027 95.951 51.2027V50.2027ZM14.7833 74.0133C15.0595 74.0133 15.2833 73.7895 15.2833 73.5133C15.2833 73.2372 15.0595 73.0133 14.7833 73.0133V74.0133ZM7.81216 63.5456V63.0456C7.53602 63.0456 7.31216 63.2695 7.31216 63.5456H7.81216ZM68.7702 64.0456C69.0463 64.0456 69.2702 63.8218 69.2702 63.5456C69.2702 63.2695 69.0463 63.0456 68.7702 63.0456V64.0456ZM71.4156 63.0456C71.1395 63.0456 70.9156 63.2695 70.9156 63.5456C70.9156 63.8218 71.1395 64.0456 71.4156 64.0456V63.0456ZM119.487 63.5456H119.987C119.987 63.2695 119.763 63.0456 119.487 63.0456V63.5456ZM119.487 73.5133V74.0133C119.763 74.0133 119.987 73.7895 119.987 73.5133H119.487ZM16.6738 73.0133C16.3976 73.0133 16.1738 73.2372 16.1738 73.5133C16.1738 73.7895 16.3976 74.0133 16.6738 74.0133V73.0133ZM101.991 94.1864C102.267 94.1864 102.491 93.9626 102.491 93.6864C102.491 93.4103 102.267 93.1864 101.991 93.1864V94.1864ZM7.81216 93.6864H7.31216C7.31216 93.9626 7.53602 94.1864 7.81216 94.1864V93.6864ZM7.81216 83.7187V83.2187C7.53602 83.2187 7.31216 83.4426 7.31216 83.7187H7.81216ZM119.487 83.7187H119.987C119.987 83.4426 119.763 83.2187 119.487 83.2187V83.7187ZM119.487 93.6864V94.1864C119.763 94.1864 119.987 93.9626 119.987 93.6864H119.487ZM104.069 93.1864C103.793 93.1864 103.569 93.4103 103.569 93.6864C103.569 93.9626 103.793 94.1864 104.069 94.1864V93.1864ZM36.6846 154.474C36.9608 154.474 37.1846 154.25 37.1846 153.974C37.1846 153.698 36.9608 153.474 36.6846 153.474V154.474ZM7.81216 153.974H7.31216C7.31216 154.25 7.53602 154.474 7.81216 154.474V153.974ZM7.81216 103.213V102.713C7.53602 102.713 7.31216 102.936 7.31216 103.213H7.81216ZM119.487 103.213H119.987C119.987 102.936 119.763 102.713 119.487 102.713V103.213ZM119.487 153.974V154.474C119.763 154.474 119.987 154.25 119.987 153.974H119.487ZM39.5117 153.474C39.2356 153.474 39.0117 153.698 39.0117 153.974C39.0117 154.25 39.2356 154.474 39.5117 154.474V153.474ZM119.487 112.082V112.582C119.763 112.582 119.987 112.358 119.987 112.082H119.487ZM7.81216 112.082H7.31216C7.31216 112.358 7.53602 112.582 7.81216 112.582V112.082ZM61.3964 51.0762C61.3964 50.8001 61.1725 50.5762 60.8964 50.5762C60.6202 50.5762 60.3964 50.8001 60.3964 51.0762H61.3964ZM60.8964 63.5627V64.0627C61.1725 64.0627 61.3964 63.8388 61.3964 63.5627H60.8964ZM7.81216 63.5627H7.31216C7.31216 63.8388 7.53602 64.0627 7.81216 64.0627V63.5627ZM7.81216 38.2615V37.7615C7.53602 37.7615 7.31216 37.9853 7.31216 38.2615H7.81216ZM119.487 38.2615H119.987C119.987 37.9853 119.763 37.7615 119.487 37.7615V38.2615ZM119.487 43.8594V44.3594C119.763 44.3594 119.987 44.1356 119.987 43.8594H119.487ZM7.81216 43.8594H7.31216C7.31216 44.1356 7.53602 44.3594 7.81216 44.3594V43.8594ZM82.9117 31.9392C82.9117 31.6631 82.6878 31.4392 82.4117 31.4392C82.1355 31.4392 81.9117 31.6631 81.9117 31.9392H82.9117ZM81.9117 38.29C81.9117 38.5661 82.1355 38.79 82.4117 38.79C82.6878 38.79 82.9117 38.5661 82.9117 38.29H81.9117ZM89.1614 33.0032V32.5032C88.8852 32.5032 88.6614 32.727 88.6614 33.0032H89.1614ZM96.7684 33.0032H97.2684C97.2684 32.727 97.0445 32.5032 96.7684 32.5032V33.0032ZM96.7684 36.7106V37.2106C97.0445 37.2106 97.2684 36.9868 97.2684 36.7106H96.7684ZM89.1614 36.7106H88.6614C88.6614 36.9868 88.8852 37.2106 89.1614 37.2106V36.7106ZM65.1374 44.0349C65.1374 43.7588 64.9135 43.5349 64.6374 43.5349C64.3613 43.5349 64.1374 43.7588 64.1374 44.0349H65.1374ZM64.1374 50.7649C64.1374 51.0411 64.3613 51.2649 64.6374 51.2649C64.9135 51.2649 65.1374 51.0411 65.1374 50.7649H64.1374ZM88.4863 44.0349C88.4863 43.7588 88.2625 43.5349 87.9863 43.5349C87.7102 43.5349 87.4863 43.7588 87.4863 44.0349H88.4863ZM87.4863 50.7649C87.4863 51.0411 87.7102 51.2649 87.9863 51.2649C88.2625 51.2649 88.4863 51.0411 88.4863 50.7649H87.4863ZM27.8567 63.5625C27.8567 63.8386 28.0806 64.0625 28.3567 64.0625C28.6329 64.0625 28.8567 63.8386 28.8567 63.5625H27.8567ZM28.8567 50.793C28.8567 50.5168 28.6329 50.293 28.3567 50.293C28.0806 50.293 27.8567 50.5168 27.8567 50.793H28.8567ZM40.8567 63.5625C40.8567 63.8386 41.0805 64.0625 41.3567 64.0625C41.6328 64.0625 41.8567 63.8386 41.8567 63.5625H40.8567ZM41.8567 50.793C41.8567 50.5168 41.6328 50.293 41.3567 50.293C41.0805 50.293 40.8567 50.5168 40.8567 50.793H41.8567ZM56.0318 63.625C56.0318 63.3488 55.8079 63.125 55.5318 63.125C55.2557 63.125 55.0318 63.3488 55.0318 63.625H56.0318ZM55.0318 73.338C55.0318 73.6141 55.2557 73.838 55.5318 73.838C55.8079 73.838 56.0318 73.6141 56.0318 73.338H55.0318ZM82.6563 63.4892C82.6563 63.2131 82.4324 62.9892 82.1563 62.9892C81.8801 62.9892 81.6563 63.2131 81.6563 63.4892H82.6563ZM81.6563 93.5169C81.6563 93.793 81.8801 94.0169 82.1563 94.0169C82.4324 94.0169 82.6563 93.793 82.6563 93.5169H81.6563ZM7.81216 83.7302H7.31216C7.31216 84.0063 7.53602 84.2302 7.81216 84.2302V83.7302ZM82.196 84.2302C82.4721 84.2302 82.696 84.0063 82.696 83.7302C82.696 83.454 82.4721 83.2302 82.196 83.2302V84.2302ZM36.3274 73.5871C36.3274 73.311 36.1036 73.0871 35.8274 73.0871C35.5513 73.0871 35.3274 73.311 35.3274 73.5871H36.3274ZM35.3274 83.4133C35.3274 83.6895 35.5513 83.9133 35.8274 83.9133C36.1036 83.9133 36.3274 83.6895 36.3274 83.4133H35.3274ZM112.942 119.846C112.666 119.846 112.442 120.07 112.442 120.346C112.442 120.622 112.666 120.846 112.942 120.846V119.846ZM119.544 120.846C119.82 120.846 120.044 120.622 120.044 120.346C120.044 120.07 119.82 119.846 119.544 119.846V120.846ZM7.96544 119.846C7.6893 119.846 7.46544 120.07 7.46544 120.346C7.46544 120.622 7.6893 120.846 7.96544 120.846V119.846ZM110.484 120.846C110.76 120.846 110.984 120.622 110.984 120.346C110.984 120.07 110.76 119.846 110.484 119.846V120.846ZM7.96544 127.861C7.6893 127.861 7.46544 128.085 7.46544 128.361C7.46544 128.637 7.6893 128.861 7.96544 128.861V127.861ZM119.544 128.861C119.82 128.861 120.044 128.637 120.044 128.361C120.044 128.085 119.82 127.861 119.544 127.861V128.861ZM42.3445 135.842C42.0684 135.842 41.8445 136.066 41.8445 136.342C41.8445 136.618 42.0684 136.842 42.3445 136.842V135.842ZM119.544 136.842C119.82 136.842 120.044 136.618 120.044 136.342C120.044 136.066 119.82 135.842 119.544 135.842V136.842ZM7.96544 135.842C7.6893 135.842 7.46544 136.066 7.46544 136.342C7.46544 136.618 7.6893 136.842 7.96544 136.842V135.842ZM39.5117 136.842C39.7878 136.842 40.0117 136.618 40.0117 136.342C40.0117 136.066 39.7878 135.842 39.5117 135.842V136.842ZM25.4389 122.554V122.054C25.1628 122.054 24.9389 122.278 24.9389 122.554H25.4389ZM29.214 122.554H29.714C29.714 122.278 29.4902 122.054 29.214 122.054V122.554ZM29.214 126.318V126.818C29.4902 126.818 29.714 126.594 29.714 126.318H29.214ZM25.4389 126.318H24.9389C24.9389 126.594 25.1628 126.818 25.4389 126.818V126.318ZM47.096 122.554V122.054C46.8198 122.054 46.596 122.278 46.596 122.554H47.096ZM50.8711 122.554H51.3711C51.3711 122.278 51.1472 122.054 50.8711 122.054V122.554ZM50.8711 126.318V126.818C51.1472 126.818 51.3711 126.594 51.3711 126.318H50.8711ZM47.096 126.318H46.596C46.596 126.594 46.8198 126.818 47.096 126.818V126.318ZM32.1376 130.235V129.735C31.8614 129.735 31.6376 129.959 31.6376 130.235H32.1376ZM35.9127 130.235H36.4127C36.4127 129.959 36.1888 129.735 35.9127 129.735V130.235ZM35.9127 133.999V134.499C36.1888 134.499 36.4127 134.275 36.4127 133.999H35.9127ZM32.1376 133.999H31.6376C31.6376 134.275 31.8614 134.499 32.1376 134.499V133.999ZM52.8409 130.235V129.735C52.5648 129.735 52.3409 129.959 52.3409 130.235H52.8409ZM56.616 130.235H57.116C57.116 129.959 56.8922 129.735 56.616 129.735V130.235ZM56.616 133.999V134.499C56.8922 134.499 57.116 134.275 57.116 133.999H56.616ZM52.8409 133.999H52.3409C52.3409 134.275 52.5648 134.499 52.8409 134.499V133.999ZM72.6304 130.235V129.735C72.3542 129.735 72.1304 129.959 72.1304 130.235H72.6304ZM76.4055 130.235H76.9055C76.9055 129.959 76.6816 129.735 76.4055 129.735V130.235ZM76.4055 133.999V134.499C76.6816 134.499 76.9055 134.275 76.9055 133.999H76.4055ZM72.6304 133.999H72.1304C72.1304 134.275 72.3542 134.499 72.6304 134.499V133.999ZM92.7265 130.235V129.735C92.4504 129.735 92.2265 129.959 92.2265 130.235H92.7265ZM96.5016 130.235H97.0016C97.0016 129.959 96.7778 129.735 96.5016 129.735V130.235ZM96.5016 133.999V134.499C96.7778 134.499 97.0016 134.275 97.0016 133.999H96.5016ZM92.7265 133.999H92.2265C92.2265 134.275 92.4504 134.499 92.7265 134.499V133.999ZM30.8891 128.429C30.8891 128.153 30.6652 127.929 30.3891 127.929C30.1129 127.929 29.8891 128.153 29.8891 128.429H30.8891ZM29.8891 136.416C29.8891 136.692 30.1129 136.916 30.3891 136.916C30.6652 136.916 30.8891 136.692 30.8891 136.416H29.8891ZM51.1383 128.429C51.1383 128.153 50.9145 127.929 50.6383 127.929C50.3622 127.929 50.1383 128.153 50.1383 128.429H51.1383ZM50.1383 136.416C50.1383 136.692 50.3622 136.916 50.6383 136.916C50.9145 136.916 51.1383 136.692 51.1383 136.416H50.1383ZM71.3821 128.429C71.3821 128.153 71.1582 127.929 70.8821 127.929C70.606 127.929 70.3821 128.153 70.3821 128.429H71.3821ZM70.3821 136.416C70.3821 136.692 70.606 136.916 70.8821 136.916C71.1582 136.916 71.3821 136.692 71.3821 136.416H70.3821ZM91.6259 128.429C91.6259 128.153 91.402 127.929 91.1259 127.929C90.8497 127.929 90.6259 128.153 90.6259 128.429H91.6259ZM90.6259 136.416C90.6259 136.692 90.8497 136.916 91.1259 136.916C91.402 136.916 91.6259 136.692 91.6259 136.416H90.6259ZM7.96544 143.981C7.6893 143.981 7.46544 144.205 7.46544 144.481C7.46544 144.758 7.6893 144.981 7.96544 144.981V143.981ZM119.544 144.981C119.82 144.981 120.044 144.758 120.044 144.481C120.044 144.205 119.82 143.981 119.544 143.981V144.981ZM18.2859 138.374V137.874C18.0098 137.874 17.7859 138.098 17.7859 138.374H18.2859ZM22.061 138.374H22.561C22.561 138.098 22.3372 137.874 22.061 137.874V138.374ZM22.061 142.138V142.638C22.3372 142.638 22.561 142.414 22.561 142.138H22.061ZM18.2859 142.138H17.7859C17.7859 142.414 18.0098 142.638 18.2859 142.638V142.138ZM52.8409 138.374V137.874C52.5648 137.874 52.3409 138.098 52.3409 138.374H52.8409ZM56.616 138.374H57.116C57.116 138.098 56.8922 137.874 56.616 137.874V138.374ZM56.616 142.138V142.638C56.8922 142.638 57.116 142.414 57.116 142.138H56.616ZM52.8409 142.138H52.3409C52.3409 142.414 52.5648 142.638 52.8409 142.638V142.138ZM72.6304 138.374V137.874C72.3542 137.874 72.1304 138.098 72.1304 138.374H72.6304ZM76.4055 138.374H76.9055C76.9055 138.098 76.6816 137.874 76.4055 137.874V138.374ZM76.4055 142.138V142.638C76.6816 142.638 76.9055 142.414 76.9055 142.138H76.4055ZM72.6304 142.138H72.1304C72.1304 142.414 72.3542 142.638 72.6304 142.638V142.138ZM98.1307 138.374V137.874C97.8546 137.874 97.6307 138.098 97.6307 138.374H98.1307ZM101.906 138.374H102.406C102.406 138.098 102.182 137.874 101.906 137.874V138.374ZM101.906 142.138V142.638C102.182 142.638 102.406 142.414 102.406 142.138H101.906ZM98.1307 142.138H97.6307C97.6307 142.414 97.8546 142.638 98.1307 142.638V142.138ZM17.0376 136.569C17.0376 136.293 16.8138 136.069 16.5376 136.069C16.2615 136.069 16.0376 136.293 16.0376 136.569H17.0376ZM16.0376 144.471C16.0376 144.747 16.2615 144.971 16.5376 144.971C16.8138 144.971 17.0376 144.747 17.0376 144.471H16.0376ZM51.1383 136.569C51.1383 136.293 50.9145 136.069 50.6383 136.069C50.3622 136.069 50.1383 136.293 50.1383 136.569H51.1383ZM50.1383 144.471C50.1383 144.747 50.3622 144.971 50.6383 144.971C50.9145 144.971 51.1383 144.747 51.1383 144.471H50.1383ZM71.3821 136.569C71.3821 136.293 71.1582 136.069 70.8821 136.069C70.606 136.069 70.3821 136.293 70.3821 136.569H71.3821ZM70.3821 144.471C70.3821 144.747 70.606 144.971 70.8821 144.971C71.1582 144.971 71.3821 144.747 71.3821 144.471H70.3821ZM97.0299 136.569C97.0299 136.293 96.806 136.069 96.5299 136.069C96.2537 136.069 96.0299 136.293 96.0299 136.569H97.0299ZM96.0299 144.471C96.0299 144.747 96.2537 144.971 96.5299 144.971C96.806 144.971 97.0299 144.747 97.0299 144.471H96.0299ZM52.7616 14.3696H53.2616V13.8696H52.7616V14.3696ZM52.7616 15.7394V16.2394H53.2616V15.7394H52.7616ZM49.645 15.7394V15.2394H49.145V15.7394H49.645ZM49.645 21.5921V22.0921H50.145V21.5921H49.645ZM48.1179 21.5921H47.6179V22.0921H48.1179V21.5921ZM48.1179 8.07544V7.57544H47.6179V8.07544H48.1179ZM53.5052 8.07544H54.0052V7.57544H53.5052V8.07544ZM53.5052 9.44522V9.94522H54.0052V9.44522H53.5052ZM49.6336 9.44522V8.94522H49.1336V9.44522H49.6336ZM49.6336 14.3696H49.1336V14.8696H49.6336V14.3696ZM66.5846 15.0489L66.4359 14.5715L64.8559 15.0638L66.4441 15.5287L66.5846 15.0489ZM68.2877 19.9846L68.7861 20.0243L68.7877 20.0045V19.9846H68.2877ZM68.5602 21.6091V22.1091H69.3241L69.0184 21.409L68.5602 21.6091ZM67.0331 21.6091L66.5714 21.801L66.6994 22.1091H67.0331V21.6091ZM66.7776 19.9676L67.2758 20.0102L67.2776 19.9889V19.9676H66.7776ZM63.7405 15.8187V15.3187H63.2405V15.8187H63.7405ZM63.7405 21.5921V22.0921H64.2405V21.5921H63.7405ZM62.2305 21.5921H61.7305V22.0921H62.2305V21.5921ZM62.2305 8.07544V7.57544H61.7305V8.07544H62.2305ZM64.8816 14.4489V13.9489L64.8765 13.9489L64.8816 14.4489ZM63.7575 9.45654V8.95654H63.2575V9.45654H63.7575ZM63.7575 14.4602H63.2575V14.9653L63.7626 14.9602L63.7575 14.4602ZM74.867 21.5695V22.0695H75.2776L75.3575 21.6667L74.867 21.5695ZM73.4194 21.5695L72.9302 21.6728L73.014 22.0695H73.4194V21.5695ZM71.1487 10.815L71.6379 10.7117L70.6487 6.02667V10.815H71.1487ZM71.1487 21.5695V22.0695H71.6487V21.5695H71.1487ZM69.8317 21.5695H69.3317V22.0695H69.8317V21.5695ZM69.8317 8.07544V7.57544H69.3317V8.07544H69.8317ZM71.9605 8.07544L72.4502 7.97448L72.3679 7.57544H71.9605V8.07544ZM74.1858 18.8695L73.6961 18.9705L74.1941 21.3859L74.6762 18.9673L74.1858 18.8695ZM76.3373 8.07544V7.57544H75.9272L75.847 7.9777L76.3373 8.07544ZM78.4435 8.07544H78.9435V7.57544H78.4435V8.07544ZM78.4435 21.5921V22.0921H78.9435V21.5921H78.4435ZM77.0129 21.5921H76.5129V22.0921H77.0129V21.5921ZM77.0129 10.7471H77.5129L76.5224 10.6498L77.0129 10.7471ZM4.9739 6.02832H131V5.02832H4.9739V6.02832ZM130.5 5.52832V171H131.5V5.52832H130.5ZM131 170.5H4.9739V171.5H131V170.5ZM5.4739 171V5.52832H4.4739V171H5.4739ZM1 1.5H127.026V0.5H1V1.5ZM126.526 1V166.472H127.526V1H126.526ZM127.026 165.972H1V166.972H127.026V165.972ZM1.5 166.472V1H0.5V166.472H1.5ZM93.8732 50.2027H7.81216V51.2027H93.8732V50.2027ZM8.31216 50.7027V31.4182H7.31216V50.7027H8.31216ZM7.81216 31.9182H119.487V30.9182H7.81216V31.9182ZM118.987 31.4182V50.7027H119.987V31.4182H118.987ZM119.487 50.2027H95.951V51.2027H119.487V50.2027ZM14.7833 73.0133H7.81216V74.0133H14.7833V73.0133ZM8.31216 73.5133V63.5456H7.31216V73.5133H8.31216ZM7.81216 64.0456H68.7702V63.0456H7.81216V64.0456ZM71.4156 64.0456H119.487V63.0456H71.4156V64.0456ZM118.987 63.5456V73.5133H119.987V63.5456H118.987ZM119.487 73.0133H16.6738V74.0133H119.487V73.0133ZM101.991 93.1864H7.81216V94.1864H101.991V93.1864ZM8.31216 93.6864V83.7187H7.31216V93.6864H8.31216ZM7.81216 84.2187H119.487V83.2187H7.81216V84.2187ZM118.987 83.7187V93.6864H119.987V83.7187H118.987ZM119.487 93.1864H104.069V94.1864H119.487V93.1864ZM36.6846 153.474H7.81216V154.474H36.6846V153.474ZM8.31216 153.974V103.213H7.31216V153.974H8.31216ZM7.81216 103.713H119.487V102.713H7.81216V103.713ZM118.987 103.213V153.974H119.987V103.213H118.987ZM119.487 153.474H39.5117V154.474H119.487V153.474ZM118.987 103.213V112.082H119.987V103.213H118.987ZM119.487 111.582H7.81216V112.582H119.487V111.582ZM8.31216 112.082V103.213H7.31216V112.082H8.31216ZM60.3964 51.0762V63.5627H61.3964V51.0762H60.3964ZM60.8964 63.0627H7.81216V64.0627H60.8964V63.0627ZM8.31216 63.5627V50.7027H7.31216V63.5627H8.31216ZM7.81216 38.7615H119.487V37.7615H7.81216V38.7615ZM118.987 38.2615V43.8594H119.987V38.2615H118.987ZM119.487 43.3594H7.81216V44.3594H119.487V43.3594ZM8.31216 43.8594V38.2615H7.31216V43.8594H8.31216ZM81.9117 31.9392V38.29H82.9117V31.9392H81.9117ZM89.1614 33.5032H96.7684V32.5032H89.1614V33.5032ZM96.2684 33.0032V36.7106H97.2684V33.0032H96.2684ZM96.7684 36.2106H89.1614V37.2106H96.7684V36.2106ZM89.6614 36.7106V33.0032H88.6614V36.7106H89.6614ZM64.1374 44.0349V50.7649H65.1374V44.0349H64.1374ZM87.4863 44.0349V50.7649H88.4863V44.0349H87.4863ZM28.8567 63.5625V50.793H27.8567V63.5625H28.8567ZM41.8567 63.5625V50.793H40.8567V63.5625H41.8567ZM55.0318 63.625V73.338H56.0318V63.625H55.0318ZM81.6563 63.4892V93.5169H82.6563V63.4892H81.6563ZM7.31216 73.5133V83.7302H8.31216V73.5133H7.31216ZM7.81216 84.2302H82.196V83.2302H7.81216V84.2302ZM35.3274 73.5871V83.4133H36.3274V73.5871H35.3274ZM112.942 120.846H119.544V119.846H112.942V120.846ZM7.96544 120.846H110.484V119.846H7.96544V120.846ZM7.96544 128.861H119.544V127.861H7.96544V128.861ZM42.3445 136.842H119.544V135.842H42.3445V136.842ZM7.96544 136.842H39.5117V135.842H7.96544V136.842ZM25.4389 123.054H29.214V122.054H25.4389V123.054ZM28.714 122.554V126.318H29.714V122.554H28.714ZM29.214 125.818H25.4389V126.818H29.214V125.818ZM25.9389 126.318V122.554H24.9389V126.318H25.9389ZM47.096 123.054H50.8711V122.054H47.096V123.054ZM50.3711 122.554V126.318H51.3711V122.554H50.3711ZM50.8711 125.818H47.096V126.818H50.8711V125.818ZM47.596 126.318V122.554H46.596V126.318H47.596ZM32.1376 130.735H35.9127V129.735H32.1376V130.735ZM35.4127 130.235V133.999H36.4127V130.235H35.4127ZM35.9127 133.499H32.1376V134.499H35.9127V133.499ZM32.6376 133.999V130.235H31.6376V133.999H32.6376ZM52.8409 130.735H56.616V129.735H52.8409V130.735ZM56.116 130.235V133.999H57.116V130.235H56.116ZM56.616 133.499H52.8409V134.499H56.616V133.499ZM53.3409 133.999V130.235H52.3409V133.999H53.3409ZM72.6304 130.735H76.4055V129.735H72.6304V130.735ZM75.9055 130.235V133.999H76.9055V130.235H75.9055ZM76.4055 133.499H72.6304V134.499H76.4055V133.499ZM73.1304 133.999V130.235H72.1304V133.999H73.1304ZM92.7265 130.735H96.5016V129.735H92.7265V130.735ZM96.0016 130.235V133.999H97.0016V130.235H96.0016ZM96.5016 133.499H92.7265V134.499H96.5016V133.499ZM93.2265 133.999V130.235H92.2265V133.999H93.2265ZM29.8891 128.429V136.416H30.8891V128.429H29.8891ZM50.1383 128.429V136.416H51.1383V128.429H50.1383ZM70.3821 128.429V136.416H71.3821V128.429H70.3821ZM90.6259 128.429V136.416H91.6259V128.429H90.6259ZM7.96544 144.981H119.544V143.981H7.96544V144.981ZM18.2859 138.874H22.061V137.874H18.2859V138.874ZM21.561 138.374V142.138H22.561V138.374H21.561ZM22.061 141.638H18.2859V142.638H22.061V141.638ZM18.7859 142.138V138.374H17.7859V142.138H18.7859ZM52.8409 138.874H56.616V137.874H52.8409V138.874ZM56.116 138.374V142.138H57.116V138.374H56.116ZM56.616 141.638H52.8409V142.638H56.616V141.638ZM53.3409 142.138V138.374H52.3409V142.138H53.3409ZM72.6304 138.874H76.4055V137.874H72.6304V138.874ZM75.9055 138.374V142.138H76.9055V138.374H75.9055ZM76.4055 141.638H72.6304V142.638H76.4055V141.638ZM73.1304 142.138V138.374H72.1304V142.138H73.1304ZM98.1307 138.874H101.906V137.874H98.1307V138.874ZM101.406 138.374V142.138H102.406V138.374H101.406ZM101.906 141.638H98.1307V142.638H101.906V141.638ZM98.6307 142.138V138.374H97.6307V142.138H98.6307ZM16.0376 136.569V144.471H17.0376V136.569H16.0376ZM50.1383 136.569V144.471H51.1383V136.569H50.1383ZM70.3821 136.569V144.471H71.3821V136.569H70.3821ZM96.0299 136.569V144.471H97.0299V136.569H96.0299ZM52.2616 14.3696V15.7394H53.2616V14.3696H52.2616ZM52.7616 15.2394H49.645V16.2394H52.7616V15.2394ZM49.145 15.7394V21.5921H50.145V15.7394H49.145ZM49.645 21.0921H48.1179V22.0921H49.645V21.0921ZM48.6179 21.5921V8.07544H47.6179V21.5921H48.6179ZM48.1179 8.57544H53.5052V7.57544H48.1179V8.57544ZM53.0052 8.07544V9.44522H54.0052V8.07544H53.0052ZM53.5052 8.94522H49.6336V9.94522H53.5052V8.94522ZM49.1336 9.44522V14.3696H50.1336V9.44522H49.1336ZM49.6336 14.8696H52.7616V13.8696H49.6336V14.8696ZM55.1007 11.3412C55.1007 10.3838 55.3378 9.66743 55.7477 9.19675C56.148 8.73712 56.771 8.44507 57.6946 8.44507V7.44507C56.5461 7.44507 55.6223 7.81809 54.9936 8.54004C54.3745 9.25094 54.1007 10.2327 54.1007 11.3412H55.1007ZM57.6946 8.44507C58.6178 8.44507 59.2479 8.73839 59.6544 9.2007C60.0698 9.67302 60.3112 10.3894 60.3112 11.3412H61.3112C61.3112 10.2327 61.0303 9.251 60.4054 8.54034C59.7717 7.81965 58.8434 7.44507 57.6946 7.44507V8.44507ZM60.3112 11.3412V18.326H61.3112V11.3412H60.3112ZM60.3112 18.326C60.3112 19.274 60.0745 19.9905 59.6617 20.4637C59.2584 20.926 58.6293 21.2221 57.6946 21.2221V22.2221C58.8547 22.2221 59.7839 21.8447 60.4152 21.1211C61.037 20.4085 61.3112 19.4269 61.3112 18.326H60.3112ZM57.6946 21.2221C56.7609 21.2221 56.1385 20.9252 55.7409 20.4639C55.3329 19.9905 55.1007 19.2735 55.1007 18.326H54.1007C54.1007 19.4218 54.3682 20.4029 54.9834 21.1167C55.609 21.8426 56.5336 22.2221 57.6946 22.2221V21.2221ZM55.1007 18.326V11.3412H54.1007V18.326H55.1007ZM55.5654 18.4052C55.5654 19.0816 55.7069 19.6989 56.071 20.1559C56.4508 20.6325 57.0105 20.858 57.6719 20.858V19.858C57.249 19.858 57.0055 19.724 56.8531 19.5327C56.685 19.3218 56.5654 18.9628 56.5654 18.4052H55.5654ZM57.6719 20.858C58.3333 20.858 58.8931 20.6325 59.2728 20.1559C59.637 19.6989 59.7785 19.0816 59.7785 18.4052H58.7785C58.7785 18.9628 58.6588 19.3218 58.4907 19.5327C58.3383 19.724 58.0948 19.858 57.6719 19.858V20.858ZM59.7785 18.4052V11.262H58.7785V18.4052H59.7785ZM59.7785 11.262C59.7785 10.5971 59.6439 9.98041 59.2839 9.52089C58.907 9.03973 58.3456 8.80919 57.6719 8.80919V9.80919C58.1052 9.80919 58.3471 9.94656 58.4967 10.1376C58.6633 10.3502 58.7785 10.7099 58.7785 11.262H59.7785ZM57.6719 8.80919C56.9982 8.80919 56.4368 9.03973 56.0599 9.52089C55.6999 9.98041 55.5654 10.5971 55.5654 11.262H56.5654C56.5654 10.7099 56.6806 10.3502 56.8471 10.1376C56.9967 9.94656 57.2387 9.80919 57.6719 9.80919V8.80919ZM55.5654 11.262V18.4052H56.5654V11.262H55.5654ZM65.2676 8.57544C66.253 8.57544 66.8508 8.82483 67.2112 9.20916C67.5775 9.59986 67.7877 10.2241 67.7877 11.1659H68.7877C68.7877 10.0983 68.5522 9.17737 67.9407 8.52517C67.3232 7.8666 66.411 7.57544 65.2676 7.57544V8.57544ZM67.7877 11.1659V12.264H68.7877V11.1659H67.7877ZM67.7877 12.264C67.7877 12.9558 67.6654 13.4604 67.4501 13.8197C67.2424 14.1661 66.9235 14.4196 66.4359 14.5715L66.7334 15.5262C67.4265 15.3102 67.9591 14.9156 68.3078 14.3337C68.6488 13.7648 68.7877 13.0608 68.7877 12.264H67.7877ZM66.4441 15.5287C66.9468 15.6759 67.2623 15.9396 67.4649 16.2981C67.6772 16.6738 67.7877 17.1941 67.7877 17.879H68.7877C68.7877 17.1035 68.6654 16.3899 68.3355 15.8062C67.996 15.2053 67.46 14.7841 66.7251 14.569L66.4441 15.5287ZM67.7877 17.879V19.9846H68.7877V17.879H67.7877ZM67.7892 19.9449C67.7385 20.5826 67.8459 21.2228 68.1019 21.8092L69.0184 21.409C68.8281 20.9734 68.7484 20.4978 68.7861 20.0243L67.7892 19.9449ZM68.5602 21.1091H67.0331V22.1091H68.5602V21.1091ZM67.4948 21.4172C67.3099 20.9724 67.2348 20.4898 67.2758 20.0102L66.2794 19.925C66.2248 20.5647 66.3249 21.208 66.5714 21.801L67.4948 21.4172ZM67.2776 19.9676V17.828H66.2776V19.9676H67.2776ZM67.2776 17.828C67.2776 16.9967 67.0837 16.3291 66.6021 15.8833C66.1283 15.4448 65.4792 15.3187 64.8021 15.3187V16.3187C65.3852 16.3187 65.7239 16.4331 65.9228 16.6172C66.1139 16.794 66.2776 17.1311 66.2776 17.828H67.2776ZM64.8021 15.3187H63.7405V16.3187H64.8021V15.3187ZM63.2405 15.8187V21.5921H64.2405V15.8187H63.2405ZM63.7405 21.0921H62.2305V22.0921H63.7405V21.0921ZM62.7305 21.5921V8.07544H61.7305V21.5921H62.7305ZM62.2305 8.57544H65.2676V7.57544H62.2305V8.57544ZM64.8816 14.9489C65.5122 14.9489 66.1432 14.8524 66.6117 14.4529C67.0983 14.0379 67.2946 13.3994 67.2946 12.5923H66.2946C66.2946 13.2569 66.1333 13.5466 65.9628 13.692C65.7742 13.8529 65.4487 13.9489 64.8816 13.9489V14.9489ZM67.2946 12.5923V11.3131H66.2946V12.5923H67.2946ZM67.2946 11.3131C67.2946 10.661 67.1793 10.0584 66.8222 9.61491C66.4462 9.14784 65.886 8.95654 65.2278 8.95654V9.95654C65.6937 9.95654 65.9169 10.085 66.0433 10.242C66.1886 10.4226 66.2946 10.7482 66.2946 11.3131H67.2946ZM65.2278 8.95654H63.7575V9.95654H65.2278V8.95654ZM63.2575 9.45654V14.4602H64.2575V9.45654H63.2575ZM63.7626 14.9602L64.8866 14.9489L64.8765 13.9489L63.7525 13.9602L63.7626 14.9602ZM74.867 21.0695H73.4194V22.0695H74.867V21.0695ZM73.9087 21.4662L71.6379 10.7117L70.6595 10.9183L72.9302 21.6728L73.9087 21.4662ZM70.6487 10.815V21.5695H71.6487V10.815H70.6487ZM71.1487 21.0695H69.8317V22.0695H71.1487V21.0695ZM70.3317 21.5695V8.07544H69.3317V21.5695H70.3317ZM69.8317 8.57544H71.9605V7.57544H69.8317V8.57544ZM71.4708 8.17639L73.6961 18.9705L74.6755 18.7686L72.4502 7.97448L71.4708 8.17639ZM74.6762 18.9673L76.8277 8.17318L75.847 7.9777L73.6955 18.7718L74.6762 18.9673ZM76.3373 8.57544H78.4435V7.57544H76.3373V8.57544ZM77.9435 8.07544V21.5921H78.9435V8.07544H77.9435ZM78.4435 21.0921H77.0129V22.0921H78.4435V21.0921ZM77.5129 21.5921V10.7471H76.5129V21.5921H77.5129ZM76.5224 10.6498L74.3766 21.4722L75.3575 21.6667L77.5033 10.8443L76.5224 10.6498ZM41.7768 28.7087H54.0729V27.7087H41.7768V28.7087ZM8.23233 28.7087H39.7048V27.7087H8.23233V28.7087ZM63.7803 28.7087H90.8816V27.7087H63.7803V28.7087ZM98.2444 28.7087H119.657V27.7087H98.2444V28.7087Z" fill="#263238"/>
</svg>
