<svg width="275" height="144" viewBox="0 0 275 144" fill="none" xmlns="http://www.w3.org/2000/svg">
<path d="M258.818 68.721H21.64V143.564H258.818V68.721Z" fill="white"/>
<path d="M258.818 143.999H21.6399C21.5245 143.999 21.4138 143.953 21.3322 143.872C21.2506 143.79 21.2047 143.679 21.2047 143.564V68.7032C21.2047 68.5878 21.2506 68.4771 21.3322 68.3955C21.4138 68.3138 21.5245 68.268 21.6399 68.268H258.818C258.934 68.268 259.044 68.3138 259.126 68.3955C259.207 68.4771 259.253 68.5878 259.253 68.7032V143.564C259.253 143.679 259.207 143.79 259.126 143.872C259.044 143.953 258.934 143.999 258.818 143.999ZM22.0491 143.129H258.383V69.1385H22.0752L22.0491 143.129Z" fill="#263238"/>
<path d="M140.547 0.432393L22.2667 68.7211L258.818 68.721L140.547 0.432393Z" fill="url(#paint0_linear_2604_197)"/>
<path d="M258.818 69.1566H22.2669C22.1719 69.1556 22.0798 69.1236 22.0047 69.0654C21.9296 69.0072 21.8757 68.9261 21.851 68.8343C21.8263 68.7426 21.8324 68.6453 21.8682 68.5574C21.904 68.4694 21.9675 68.3955 22.0492 68.347L140.329 0.0583097C140.395 0.0201096 140.471 0 140.547 0C140.623 0 140.698 0.0201096 140.765 0.0583097L259.036 68.3557C259.121 68.4015 259.187 68.4745 259.225 68.563C259.263 68.6516 259.27 68.7503 259.245 68.8432C259.218 68.9351 259.162 69.0155 259.085 69.0722C259.008 69.1288 258.914 69.1585 258.818 69.1566ZM23.8947 68.2861H257.182L140.538 0.937497L23.8947 68.2861Z" fill="#263238"/>
<path d="M188.292 62.6364H129.596V143.564H188.292V62.6364Z" fill="white"/>
<path d="M188.292 143.999H129.596C129.481 143.999 129.37 143.953 129.288 143.872C129.207 143.79 129.161 143.679 129.161 143.564V62.6098C129.161 62.4944 129.207 62.3837 129.288 62.3021C129.37 62.2204 129.481 62.1746 129.596 62.1746H188.292C188.407 62.1768 188.516 62.2234 188.597 62.3045C188.679 62.3857 188.725 62.4951 188.727 62.6098V143.564C188.727 143.679 188.682 143.79 188.6 143.872C188.518 143.953 188.408 143.999 188.292 143.999ZM130.031 143.129H187.822V63.045H130.031V143.129Z" fill="#263238"/>
<path d="M188.292 62.6364H129.596V66.0747H188.292V62.6364Z" fill="#263238"/>
<path d="M188.292 66.5186H129.596C129.481 66.5186 129.37 66.4727 129.288 66.3911C129.207 66.3095 129.161 66.1988 129.161 66.0834V62.6015C129.161 62.486 129.207 62.3753 129.288 62.2937C129.37 62.2121 129.481 62.1662 129.596 62.1662H188.292C188.407 62.1684 188.516 62.215 188.597 62.2962C188.679 62.3773 188.725 62.4867 188.727 62.6015V66.0834C188.725 66.1981 188.679 66.3075 188.597 66.3886C188.516 66.4698 188.407 66.5164 188.292 66.5186ZM130.031 65.6481H187.822V63.0367H130.031V65.6481Z" fill="#263238"/>
<path d="M173.599 143.565H144.298V92.9813C144.297 91.0567 144.675 89.1507 145.411 87.3723C146.147 85.5939 147.226 83.9778 148.586 82.6165C149.947 81.2552 151.562 80.1753 153.34 79.4385C155.118 78.7018 157.024 78.3225 158.949 78.3225C162.836 78.3225 166.565 79.8669 169.314 82.616C172.063 85.3651 173.607 89.0936 173.607 92.9813L173.599 143.565Z" fill="#263238"/>
<path d="M173.599 144H144.299C144.183 144 144.073 143.954 143.991 143.872C143.909 143.79 143.863 143.68 143.863 143.564V92.9811C143.815 90.969 144.17 88.9675 144.906 87.0945C145.643 85.2214 146.747 83.5146 148.153 82.0745C149.559 80.6343 151.239 79.4899 153.093 78.7085C154.948 77.9271 156.94 77.5246 158.953 77.5246C160.966 77.5246 162.958 77.9271 164.813 78.7085C166.668 79.4899 168.348 80.6343 169.754 82.0745C171.16 83.5146 172.263 85.2214 173 87.0945C173.737 88.9675 174.091 90.969 174.043 92.9811V143.564C174.043 143.622 174.031 143.68 174.009 143.733C173.986 143.786 173.954 143.835 173.912 143.875C173.871 143.916 173.822 143.948 173.768 143.969C173.714 143.99 173.657 144.001 173.599 144ZM144.725 143.129H173.164V92.9811C173.211 91.0842 172.878 89.1971 172.184 87.4309C171.491 85.6646 170.451 84.055 169.126 82.6968C167.801 81.3386 166.217 80.2593 164.469 79.5223C162.72 78.7853 160.842 78.4057 158.944 78.4057C157.047 78.4057 155.169 78.7853 153.42 79.5223C151.672 80.2593 150.088 81.3386 148.763 82.6968C147.438 84.055 146.398 85.6646 145.705 87.4309C145.011 89.1971 144.678 91.0842 144.725 92.9811V143.129Z" fill="#263238"/>
<path d="M140.564 81.8305H4.61325V143.565H140.564V81.8305Z" fill="white"/>
<path d="M140.564 144H4.61365C4.49821 144 4.38751 143.954 4.30589 143.872C4.22426 143.791 4.17841 143.68 4.17841 143.564V81.8303C4.17841 81.7149 4.22426 81.6042 4.30589 81.5226C4.38751 81.441 4.49821 81.3951 4.61365 81.3951H140.564C140.68 81.3951 140.79 81.441 140.872 81.5226C140.954 81.6042 141 81.7149 141 81.8303V143.564C141 143.68 140.954 143.791 140.872 143.872C140.79 143.954 140.68 144 140.564 144ZM5.02277 143.129H140.129V82.283H5.02277V143.129Z" fill="#263238"/>
<path d="M140.564 81.8305H4.61325V84.5812H140.564V81.8305Z" fill="#263238"/>
<path d="M140.564 85.0163H4.61365C4.49821 85.0163 4.38751 84.9704 4.30589 84.8888C4.22426 84.8072 4.17841 84.6965 4.17841 84.5811V81.8303C4.17841 81.7149 4.22426 81.6042 4.30589 81.5226C4.38751 81.441 4.49821 81.3951 4.61365 81.3951H140.564C140.68 81.3951 140.79 81.441 140.872 81.5226C140.954 81.6042 141 81.7149 141 81.8303V84.5811C141 84.6965 140.954 84.8072 140.872 84.8888C140.79 84.9704 140.68 85.0163 140.564 85.0163ZM5.02277 84.1458H140.129V82.283H5.02277V84.1458Z" fill="#263238"/>
<path d="M125.601 86.9226H19.5685V143.564H125.601V86.9226Z" fill="url(#paint1_linear_2604_197)"/>
<path d="M125.601 144H19.5685C19.453 144 19.3423 143.954 19.2607 143.872C19.1791 143.79 19.1332 143.68 19.1332 143.564V86.9225C19.1332 86.8071 19.1791 86.6964 19.2607 86.6148C19.3423 86.5332 19.453 86.4873 19.5685 86.4873H125.601C125.716 86.4873 125.827 86.5332 125.909 86.6148C125.99 86.6964 126.036 86.8071 126.036 86.9225V143.564C126.036 143.68 125.99 143.79 125.909 143.872C125.827 143.954 125.716 144 125.601 144ZM20.0037 143.129H125.148V87.3578H20.0037V143.129Z" fill="#263238"/>
<path d="M72.5887 36.6614L0.435131 78.3223H144.742L72.5887 36.6614Z" fill="url(#paint2_linear_2604_197)"/>
<path d="M144.742 78.8009H0.435265C0.34028 78.8 0.248219 78.768 0.173131 78.7098C0.0980429 78.6516 0.0440468 78.5705 0.0193873 78.4787C-0.00527214 78.387 0.000758927 78.2897 0.0365548 78.2017C0.0723507 78.1137 0.135951 78.0399 0.217647 77.9914L72.3713 36.3305C72.4374 36.2923 72.5125 36.2722 72.5889 36.2722C72.6653 36.2722 72.7403 36.2923 72.8065 36.3305L144.96 77.9305C145.042 77.9789 145.105 78.0528 145.141 78.1408C145.177 78.2288 145.183 78.3261 145.158 78.4178C145.134 78.5095 145.08 78.5907 145.005 78.6488C144.93 78.707 144.837 78.739 144.742 78.74V78.8009ZM2.06305 77.9305H143.08L72.5715 37.2097L2.06305 77.9305Z" fill="#263238"/>
<path d="M144.734 78.3225L0.435131 78.3223V81.8305H144.734V78.3225Z" fill="white"/>
<path d="M144.742 82.2833H0.435237C0.319805 82.2833 0.2091 82.2374 0.127478 82.1558C0.0458549 82.0742 0 81.9635 0 81.8481V78.3661C0 78.2507 0.0458549 78.14 0.127478 78.0584C0.2091 77.9768 0.319805 77.9309 0.435237 77.9309H144.742C144.858 77.9309 144.969 77.9768 145.05 78.0584C145.132 78.14 145.178 78.2507 145.178 78.3661V81.8481C145.178 81.9635 145.132 82.0742 145.05 82.1558C144.969 82.2374 144.858 82.2833 144.742 82.2833ZM0.870474 81.4128H144.299V78.8014H0.870474V81.4128Z" fill="#263238"/>
<path d="M158.94 39.1504L121.579 60.7207H196.31L158.94 39.1504Z" fill="url(#paint3_linear_2604_197)"/>
<path d="M196.309 61.1568H121.579C121.482 61.1582 121.387 61.1273 121.31 61.069C121.233 61.0106 121.177 60.9282 121.152 60.8347C121.127 60.7418 121.134 60.6431 121.172 60.5546C121.21 60.4661 121.276 60.393 121.361 60.3473L158.722 38.7595C158.789 38.7251 158.864 38.7072 158.94 38.7072C159.015 38.7072 159.09 38.7251 159.157 38.7595L196.527 60.3473C196.608 60.3957 196.672 60.4696 196.708 60.5576C196.743 60.6456 196.75 60.7429 196.725 60.8346C196.7 60.9263 196.646 61.0075 196.571 61.0657C196.496 61.1238 196.404 61.1558 196.309 61.1568ZM123.189 60.2863H194.673L158.94 39.63L123.189 60.2863Z" fill="#263238"/>
<path d="M196.31 60.7207H121.579V64.1857H196.31V60.7207Z" fill="white"/>
<path d="M196.309 64.6213H121.579C121.464 64.6213 121.353 64.5754 121.271 64.4938C121.19 64.4122 121.144 64.3015 121.144 64.1861V60.7042C121.144 60.5887 121.19 60.478 121.271 60.3964C121.353 60.3148 121.464 60.2689 121.579 60.2689H196.309C196.425 60.2689 196.535 60.3148 196.617 60.3964C196.699 60.478 196.745 60.5887 196.745 60.7042V64.1861C196.745 64.3015 196.699 64.4122 196.617 64.4938C196.535 64.5754 196.425 64.6213 196.309 64.6213ZM122.014 63.7508H195.874V61.1394H122.014V63.7508Z" fill="#263238"/>
<path d="M32.016 91.475H23.4331V100.058H32.016V91.475Z" fill="white"/>
<path d="M32.0074 100.493H23.4246C23.3091 100.493 23.1984 100.447 23.1168 100.366C23.0352 100.284 22.9893 100.173 22.9893 100.058V91.475C22.9893 91.3595 23.0352 91.2488 23.1168 91.1672C23.1984 91.0856 23.3091 91.0397 23.4246 91.0397H32.0074C32.1229 91.0397 32.2336 91.0856 32.3152 91.1672C32.3968 91.2488 32.4427 91.3595 32.4427 91.475V100.058C32.4427 100.173 32.3968 100.284 32.3152 100.366C32.2336 100.447 32.1229 100.493 32.0074 100.493ZM23.8598 99.6226H31.5722V91.9102H23.8598V99.6226Z" fill="#263238"/>
<path d="M44.8992 91.475H36.3163V100.058H44.8992V91.475Z" fill="white"/>
<path d="M44.899 100.493H36.3596C36.2442 100.493 36.1335 100.447 36.0518 100.366C35.9702 100.284 35.9244 100.173 35.9244 100.058V91.475C35.9244 91.3595 35.9702 91.2488 36.0518 91.1672C36.1335 91.0856 36.2442 91.0397 36.3596 91.0397H44.9425C45.0579 91.0397 45.1686 91.0856 45.2502 91.1672C45.3319 91.2488 45.3777 91.3595 45.3777 91.475V100.058C45.378 100.119 45.3655 100.179 45.341 100.235C45.3164 100.291 45.2804 100.341 45.2353 100.382C45.1901 100.423 45.1368 100.454 45.0789 100.473C45.021 100.492 44.9597 100.499 44.899 100.493ZM36.7513 99.6226H44.4637V91.9102H36.7513V99.6226Z" fill="#263238"/>
<path d="M57.7735 91.475H49.1907V100.058H57.7735V91.475Z" fill="white"/>
<path d="M57.7821 100.493H49.1905C49.0751 100.493 48.9643 100.447 48.8827 100.366C48.8011 100.284 48.7552 100.173 48.7552 100.058V91.475C48.7552 91.3595 48.8011 91.2488 48.8827 91.1672C48.9643 91.0856 49.0751 91.0397 49.1905 91.0397H57.7821C57.8975 91.0397 58.0082 91.0856 58.0898 91.1672C58.1714 91.2488 58.2173 91.3595 58.2173 91.475V100.058C58.2173 100.173 58.1714 100.284 58.0898 100.366C58.0082 100.447 57.8975 100.493 57.7821 100.493ZM49.6257 99.6226H57.3468V91.9102H49.6257V99.6226Z" fill="#263238"/>
<path d="M70.6564 91.475H62.0736V100.058H70.6564V91.475Z" fill="white"/>
<path d="M70.6651 100.493H62.0735C61.9581 100.493 61.8474 100.447 61.7658 100.366C61.6842 100.284 61.6383 100.173 61.6383 100.058V91.475C61.6383 91.3595 61.6842 91.2488 61.7658 91.1672C61.8474 91.0856 61.9581 91.0397 62.0735 91.0397H70.6651C70.7805 91.0397 70.8912 91.0856 70.9729 91.1672C71.0545 91.2488 71.1004 91.3595 71.1004 91.475V100.058C71.1004 100.173 71.0545 100.284 70.9729 100.366C70.8912 100.447 70.7805 100.493 70.6651 100.493ZM62.5088 99.6226H70.2299V91.9102H62.474L62.5088 99.6226Z" fill="#263238"/>
<path d="M83.5391 91.475H74.9562V100.058H83.5391V91.475Z" fill="white"/>
<path d="M83.5394 100.493H74.9566C74.8411 100.493 74.7304 100.447 74.6488 100.366C74.5672 100.284 74.5213 100.173 74.5213 100.058V91.475C74.5213 91.3595 74.5672 91.2488 74.6488 91.1672C74.7304 91.0856 74.8411 91.0397 74.9566 91.0397H83.5394C83.6549 91.0397 83.7656 91.0856 83.8472 91.1672C83.9288 91.2488 83.9747 91.3595 83.9747 91.475V100.058C83.9747 100.173 83.9288 100.284 83.8472 100.366C83.7656 100.447 83.6549 100.493 83.5394 100.493ZM75.3918 99.6226H83.1042V91.9102H75.3918V99.6226Z" fill="#263238"/>
<path d="M96.4137 91.475H87.8309V100.058H96.4137V91.475Z" fill="white"/>
<path d="M96.4224 100.493H87.8308C87.7154 100.493 87.6047 100.447 87.5231 100.366C87.4414 100.284 87.3956 100.173 87.3956 100.058V91.475C87.3956 91.3595 87.4414 91.2488 87.5231 91.1672C87.6047 91.0856 87.7154 91.0397 87.8308 91.0397H96.4224C96.5378 91.0397 96.6485 91.0856 96.7302 91.1672C96.8118 91.2488 96.8576 91.3595 96.8576 91.475V100.058C96.8576 100.173 96.8118 100.284 96.7302 100.366C96.6485 100.447 96.5378 100.493 96.4224 100.493ZM88.2661 99.6226H95.9872V91.9102H88.2661V99.6226Z" fill="#263238"/>
<path d="M109.297 91.475H100.714V100.058H109.297V91.475Z" fill="white"/>
<path d="M109.305 100.493H100.714C100.598 100.493 100.488 100.447 100.406 100.366C100.324 100.284 100.279 100.173 100.279 100.058V91.475C100.279 91.3595 100.324 91.2488 100.406 91.1672C100.488 91.0856 100.598 91.0397 100.714 91.0397H109.305C109.421 91.0397 109.532 91.0856 109.613 91.1672C109.695 91.2488 109.741 91.3595 109.741 91.475V100.058C109.741 100.173 109.695 100.284 109.613 100.366C109.532 100.447 109.421 100.493 109.305 100.493ZM101.149 99.6226H108.87V91.9102H101.149V99.6226Z" fill="#263238"/>
<path d="M122.18 91.475H113.597V100.058H122.18V91.475Z" fill="white"/>
<path d="M122.18 100.493H113.597C113.481 100.493 113.371 100.447 113.289 100.366C113.208 100.284 113.162 100.173 113.162 100.058V91.475C113.162 91.3595 113.208 91.2488 113.289 91.1672C113.371 91.0856 113.481 91.0397 113.597 91.0397H122.18C122.295 91.0397 122.406 91.0856 122.488 91.1672C122.569 91.2488 122.615 91.3595 122.615 91.475V100.058C122.615 100.115 122.604 100.172 122.582 100.224C122.56 100.277 122.528 100.325 122.488 100.366C122.447 100.406 122.399 100.438 122.346 100.46C122.294 100.482 122.237 100.493 122.18 100.493ZM114.032 99.6226H121.745V91.9102H114.032V99.6226Z" fill="#263238"/>
<path d="M32.016 104.114H23.4331V112.697H32.016V104.114Z" fill="white"/>
<path d="M32.0074 113.133H23.4246C23.3091 113.133 23.1984 113.087 23.1168 113.005C23.0352 112.924 22.9893 112.813 22.9893 112.697V104.115C22.9893 103.999 23.0352 103.888 23.1168 103.807C23.1984 103.725 23.3091 103.679 23.4246 103.679H32.0074C32.1229 103.679 32.2336 103.725 32.3152 103.807C32.3968 103.888 32.4427 103.999 32.4427 104.115V112.697C32.4427 112.813 32.3968 112.924 32.3152 113.005C32.2336 113.087 32.1229 113.133 32.0074 113.133ZM23.8598 112.262H31.5722V104.55H23.8598V112.262Z" fill="#263238"/>
<path d="M44.8992 104.114H36.3163V112.697H44.8992V104.114Z" fill="white"/>
<path d="M44.899 113.133H36.3596C36.2442 113.133 36.1335 113.087 36.0518 113.005C35.9702 112.924 35.9244 112.813 35.9244 112.697V104.115C35.9244 103.999 35.9702 103.888 36.0518 103.807C36.1335 103.725 36.2442 103.679 36.3596 103.679H44.9425C45.0579 103.679 45.1686 103.725 45.2502 103.807C45.3319 103.888 45.3777 103.999 45.3777 104.115V112.697C45.378 112.758 45.3655 112.819 45.341 112.875C45.3164 112.931 45.2804 112.981 45.2353 113.022C45.1901 113.063 45.1368 113.094 45.0789 113.113C45.021 113.132 44.9597 113.139 44.899 113.133ZM36.7513 112.262H44.4637V104.55H36.7513V112.262Z" fill="#263238"/>
<path d="M57.7735 104.114H49.1907V112.697H57.7735V104.114Z" fill="white"/>
<path d="M57.7821 113.133H49.1905C49.0751 113.133 48.9643 113.087 48.8827 113.005C48.8011 112.924 48.7552 112.813 48.7552 112.697V104.115C48.7552 103.999 48.8011 103.888 48.8827 103.807C48.9643 103.725 49.0751 103.679 49.1905 103.679H57.7821C57.8975 103.679 58.0082 103.725 58.0898 103.807C58.1714 103.888 58.2173 103.999 58.2173 104.115V112.697C58.2173 112.813 58.1714 112.924 58.0898 113.005C58.0082 113.087 57.8975 113.133 57.7821 113.133ZM49.6257 112.262H57.3468V104.55H49.6257V112.262Z" fill="#263238"/>
<path d="M70.6564 104.114H62.0736V112.697H70.6564V104.114Z" fill="white"/>
<path d="M70.6651 113.133H62.0735C61.9581 113.133 61.8474 113.087 61.7658 113.005C61.6842 112.924 61.6383 112.813 61.6383 112.697V104.115C61.6383 103.999 61.6842 103.888 61.7658 103.807C61.8474 103.725 61.9581 103.679 62.0735 103.679H70.6651C70.7805 103.679 70.8912 103.725 70.9729 103.807C71.0545 103.888 71.1004 103.999 71.1004 104.115V112.697C71.1004 112.813 71.0545 112.924 70.9729 113.005C70.8912 113.087 70.7805 113.133 70.6651 113.133ZM62.5088 112.262H70.2299V104.55H62.474L62.5088 112.262Z" fill="#263238"/>
<path d="M83.5391 104.114H74.9562V112.697H83.5391V104.114Z" fill="white"/>
<path d="M83.5394 113.133H74.9566C74.8411 113.133 74.7304 113.087 74.6488 113.005C74.5672 112.924 74.5213 112.813 74.5213 112.697V104.115C74.5213 103.999 74.5672 103.888 74.6488 103.807C74.7304 103.725 74.8411 103.679 74.9566 103.679H83.5394C83.6549 103.679 83.7656 103.725 83.8472 103.807C83.9288 103.888 83.9747 103.999 83.9747 104.115V112.697C83.9747 112.813 83.9288 112.924 83.8472 113.005C83.7656 113.087 83.6549 113.133 83.5394 113.133ZM75.3918 112.262H83.1042V104.55H75.3918V112.262Z" fill="#263238"/>
<path d="M96.4137 104.114H87.8309V112.697H96.4137V104.114Z" fill="white"/>
<path d="M96.4224 113.133H87.8308C87.7154 113.133 87.6047 113.087 87.5231 113.005C87.4414 112.924 87.3956 112.813 87.3956 112.697V104.115C87.3956 103.999 87.4414 103.888 87.5231 103.807C87.6047 103.725 87.7154 103.679 87.8308 103.679H96.4224C96.5378 103.679 96.6485 103.725 96.7302 103.807C96.8118 103.888 96.8576 103.999 96.8576 104.115V112.697C96.8576 112.813 96.8118 112.924 96.7302 113.005C96.6485 113.087 96.5378 113.133 96.4224 113.133ZM88.2661 112.262H95.9872V104.55H88.2661V112.262Z" fill="#263238"/>
<path d="M109.297 104.114H100.714V112.697H109.297V104.114Z" fill="white"/>
<path d="M109.305 113.133H100.714C100.598 113.133 100.488 113.087 100.406 113.005C100.324 112.924 100.279 112.813 100.279 112.697V104.115C100.279 103.999 100.324 103.888 100.406 103.807C100.488 103.725 100.598 103.679 100.714 103.679H109.305C109.421 103.679 109.532 103.725 109.613 103.807C109.695 103.888 109.741 103.999 109.741 104.115V112.697C109.741 112.813 109.695 112.924 109.613 113.005C109.532 113.087 109.421 113.133 109.305 113.133ZM101.149 112.262H108.87V104.55H101.149V112.262Z" fill="#263238"/>
<path d="M122.18 104.114H113.597V112.697H122.18V104.114Z" fill="white"/>
<path d="M122.18 113.133H113.597C113.481 113.133 113.371 113.087 113.289 113.005C113.208 112.924 113.162 112.813 113.162 112.697V104.115C113.162 103.999 113.208 103.888 113.289 103.807C113.371 103.725 113.481 103.679 113.597 103.679H122.18C122.295 103.679 122.406 103.725 122.488 103.807C122.569 103.888 122.615 103.999 122.615 104.115V112.697C122.615 112.755 122.604 112.811 122.582 112.864C122.56 112.917 122.528 112.965 122.488 113.005C122.447 113.046 122.399 113.078 122.346 113.1C122.294 113.121 122.237 113.133 122.18 113.133ZM114.032 112.262H121.745V104.55H114.032V112.262Z" fill="#263238"/>
<path d="M32.016 116.745H23.4331V125.328H32.016V116.745Z" fill="white"/>
<path d="M32.0074 125.807H23.4246C23.3091 125.807 23.1984 125.761 23.1168 125.679C23.0352 125.597 22.9893 125.487 22.9893 125.371V116.78C22.9893 116.664 23.0352 116.554 23.1168 116.472C23.1984 116.39 23.3091 116.344 23.4246 116.344H32.0074C32.1229 116.344 32.2336 116.39 32.3152 116.472C32.3968 116.554 32.4427 116.664 32.4427 116.78V125.371C32.4427 125.487 32.3968 125.597 32.3152 125.679C32.2336 125.761 32.1229 125.807 32.0074 125.807ZM23.8598 124.936H31.5722V117.215H23.8598V124.936Z" fill="#263238"/>
<path d="M44.8992 116.745H36.3163V125.328H44.8992V116.745Z" fill="white"/>
<path d="M44.899 125.807H36.3596C36.2442 125.807 36.1335 125.761 36.0518 125.679C35.9702 125.597 35.9244 125.487 35.9244 125.371V116.78C35.9244 116.664 35.9702 116.554 36.0518 116.472C36.1335 116.39 36.2442 116.344 36.3596 116.344H44.9425C45.0579 116.344 45.1686 116.39 45.2502 116.472C45.3319 116.554 45.3777 116.664 45.3777 116.78V125.371C45.378 125.432 45.3655 125.493 45.341 125.549C45.3164 125.604 45.2804 125.654 45.2353 125.695C45.1901 125.737 45.1368 125.768 45.0789 125.787C45.021 125.806 44.9597 125.813 44.899 125.807ZM36.7513 124.936H44.4637V117.215H36.7513V124.936Z" fill="#263238"/>
<path d="M57.7735 116.745H49.1907V125.328H57.7735V116.745Z" fill="white"/>
<path d="M57.7821 125.807H49.1905C49.0758 125.804 48.9663 125.758 48.8852 125.677C48.804 125.595 48.7575 125.486 48.7552 125.371V116.78C48.7552 116.664 48.8011 116.554 48.8827 116.472C48.9643 116.39 49.0751 116.344 49.1905 116.344H57.7821C57.8975 116.344 58.0082 116.39 58.0898 116.472C58.1714 116.554 58.2173 116.664 58.2173 116.78V125.371C58.2173 125.487 58.1714 125.597 58.0898 125.679C58.0082 125.761 57.8975 125.807 57.7821 125.807ZM49.6257 124.936H57.3468V117.215H49.6257V124.936Z" fill="#263238"/>
<path d="M70.6564 116.745H62.0736V125.328H70.6564V116.745Z" fill="white"/>
<path d="M70.6651 125.807H62.0735C61.9581 125.807 61.8474 125.761 61.7658 125.679C61.6842 125.597 61.6383 125.487 61.6383 125.371V116.78C61.6383 116.664 61.6842 116.554 61.7658 116.472C61.8474 116.39 61.9581 116.344 62.0735 116.344H70.6651C70.7805 116.344 70.8912 116.39 70.9729 116.472C71.0545 116.554 71.1004 116.664 71.1004 116.78V125.371C71.0981 125.486 71.0516 125.595 70.9704 125.677C70.8893 125.758 70.7798 125.804 70.6651 125.807ZM62.474 124.936H70.1951V117.215H62.474V124.936Z" fill="#263238"/>
<path d="M83.5391 116.745H74.9562V125.328H83.5391V116.745Z" fill="white"/>
<path d="M83.5394 125.807H74.9566C74.8411 125.807 74.7304 125.761 74.6488 125.679C74.5672 125.597 74.5213 125.487 74.5213 125.371V116.78C74.5213 116.664 74.5672 116.554 74.6488 116.472C74.7304 116.39 74.8411 116.344 74.9566 116.344H83.5394C83.6549 116.344 83.7656 116.39 83.8472 116.472C83.9288 116.554 83.9747 116.664 83.9747 116.78V125.371C83.9747 125.487 83.9288 125.597 83.8472 125.679C83.7656 125.761 83.6549 125.807 83.5394 125.807ZM75.3918 124.936H83.1042V117.215H75.3918V124.936Z" fill="#263238"/>
<path d="M96.4137 116.745H87.8309V125.328H96.4137V116.745Z" fill="white"/>
<path d="M96.4224 125.807H87.8308C87.7161 125.804 87.6067 125.758 87.5255 125.677C87.4444 125.595 87.3978 125.486 87.3956 125.371V116.78C87.3956 116.664 87.4414 116.554 87.5231 116.472C87.6047 116.39 87.7154 116.344 87.8308 116.344H96.4224C96.5378 116.344 96.6485 116.39 96.7302 116.472C96.8118 116.554 96.8576 116.664 96.8576 116.78V125.371C96.8576 125.487 96.8118 125.597 96.7302 125.679C96.6485 125.761 96.5378 125.807 96.4224 125.807ZM88.2661 124.936H95.9872V117.215H88.2661V124.936Z" fill="#263238"/>
<path d="M109.297 116.745H100.714V125.328H109.297V116.745Z" fill="white"/>
<path d="M109.305 125.807H100.714C100.599 125.804 100.49 125.758 100.409 125.677C100.327 125.595 100.281 125.486 100.279 125.371V116.78C100.279 116.664 100.324 116.554 100.406 116.472C100.488 116.39 100.598 116.344 100.714 116.344H109.305C109.421 116.344 109.532 116.39 109.613 116.472C109.695 116.554 109.741 116.664 109.741 116.78V125.371C109.738 125.486 109.692 125.595 109.611 125.677C109.53 125.758 109.42 125.804 109.305 125.807ZM101.149 124.936H108.87V117.215H101.149V124.936Z" fill="#263238"/>
<path d="M122.18 116.745H113.597V125.328H122.18V116.745Z" fill="white"/>
<path d="M122.18 125.807H113.597C113.481 125.807 113.371 125.761 113.289 125.679C113.208 125.597 113.162 125.487 113.162 125.371V116.78C113.162 116.664 113.208 116.554 113.289 116.472C113.371 116.39 113.481 116.344 113.597 116.344H122.18C122.295 116.344 122.406 116.39 122.488 116.472C122.569 116.554 122.615 116.664 122.615 116.78V125.371C122.615 125.428 122.604 125.485 122.582 125.538C122.56 125.591 122.528 125.639 122.488 125.679C122.447 125.719 122.399 125.752 122.346 125.773C122.294 125.795 122.237 125.807 122.18 125.807ZM114.032 124.936H121.745V117.215H114.032V124.936Z" fill="#263238"/>
<path d="M32.016 129.384H23.4331V137.967H32.016V129.384Z" fill="white"/>
<path d="M32.0074 138.403H23.4246C23.3091 138.403 23.1984 138.357 23.1168 138.275C23.0352 138.193 22.9893 138.083 22.9893 137.967V129.384C22.9893 129.269 23.0352 129.158 23.1168 129.077C23.1984 128.995 23.3091 128.949 23.4246 128.949H32.0074C32.1229 128.949 32.2336 128.995 32.3152 129.077C32.3968 129.158 32.4427 129.269 32.4427 129.384V137.993C32.436 138.104 32.3872 138.208 32.3063 138.284C32.2254 138.36 32.1185 138.403 32.0074 138.403ZM23.8598 137.532H31.5722V129.82H23.8598V137.532Z" fill="#263238"/>
<path d="M44.8992 129.384H36.3163V137.967H44.8992V129.384Z" fill="white"/>
<path d="M44.899 138.403H36.3596C36.2442 138.403 36.1335 138.357 36.0518 138.275C35.9702 138.193 35.9244 138.083 35.9244 137.967V129.384C35.9244 129.269 35.9702 129.158 36.0518 129.077C36.1335 128.995 36.2442 128.949 36.3596 128.949H44.9425C45.0579 128.949 45.1686 128.995 45.2502 129.077C45.3319 129.158 45.3777 129.269 45.3777 129.384V137.993C45.3745 138.052 45.3594 138.11 45.3333 138.162C45.3072 138.215 45.2706 138.262 45.2259 138.3C45.1811 138.339 45.1291 138.367 45.0729 138.385C45.0167 138.403 44.9575 138.408 44.899 138.403ZM36.7513 137.532H44.4637V129.82H36.7513V137.532Z" fill="#263238"/>
<path d="M57.7735 129.384H49.1907V137.967H57.7735V129.384Z" fill="white"/>
<path d="M57.7821 138.403H49.1905C49.0751 138.403 48.9643 138.357 48.8827 138.275C48.8011 138.193 48.7552 138.083 48.7552 137.967V129.384C48.7552 129.269 48.8011 129.158 48.8827 129.077C48.9643 128.995 49.0751 128.949 49.1905 128.949H57.7821C57.8975 128.949 58.0082 128.995 58.0898 129.077C58.1714 129.158 58.2173 129.269 58.2173 129.384V137.993C58.2106 138.104 58.1619 138.208 58.0809 138.284C58 138.36 57.8931 138.403 57.7821 138.403ZM49.6257 137.532H57.3468V129.82H49.6257V137.532Z" fill="#263238"/>
<path d="M70.6564 129.384H62.0736V137.967H70.6564V129.384Z" fill="white"/>
<path d="M70.6651 138.403H62.0735C61.9581 138.403 61.8474 138.357 61.7658 138.275C61.6842 138.193 61.6383 138.083 61.6383 137.967V129.384C61.6383 129.269 61.6842 129.158 61.7658 129.077C61.8474 128.995 61.9581 128.949 62.0735 128.949H70.6651C70.7805 128.949 70.8912 128.995 70.9729 129.077C71.0545 129.158 71.1004 129.269 71.1004 129.384V137.993C71.0937 138.104 71.0449 138.208 70.964 138.284C70.8831 138.36 70.7762 138.403 70.6651 138.403ZM62.5088 137.532H70.2299V129.82H62.474L62.5088 137.532Z" fill="#263238"/>
<path d="M83.5391 129.384H74.9562V137.967H83.5391V129.384Z" fill="white"/>
<path d="M83.5394 138.403H74.9566C74.8411 138.403 74.7304 138.357 74.6488 138.275C74.5672 138.193 74.5213 138.083 74.5213 137.967V129.384C74.5213 129.269 74.5672 129.158 74.6488 129.077C74.7304 128.995 74.8411 128.949 74.9566 128.949H83.5394C83.6549 128.949 83.7656 128.995 83.8472 129.077C83.9288 129.158 83.9747 129.269 83.9747 129.384V137.993C83.968 138.104 83.9192 138.208 83.8383 138.284C83.7574 138.36 83.6505 138.403 83.5394 138.403ZM75.3918 137.532H83.1042V129.82H75.3918V137.532Z" fill="#263238"/>
<path d="M96.4137 129.384H87.8309V137.967H96.4137V129.384Z" fill="white"/>
<path d="M96.4224 138.403H87.8308C87.7154 138.403 87.6047 138.357 87.5231 138.275C87.4414 138.193 87.3956 138.083 87.3956 137.967V129.384C87.3956 129.269 87.4414 129.158 87.5231 129.077C87.6047 128.995 87.7154 128.949 87.8308 128.949H96.4224C96.5378 128.949 96.6485 128.995 96.7302 129.077C96.8118 129.158 96.8576 129.269 96.8576 129.384V137.993C96.851 138.104 96.8022 138.208 96.7213 138.284C96.6404 138.36 96.5334 138.403 96.4224 138.403ZM88.2661 137.532H95.9872V129.82H88.2661V137.532Z" fill="#263238"/>
<path d="M109.297 129.384H100.714V137.967H109.297V129.384Z" fill="white"/>
<path d="M109.305 138.403H100.714C100.598 138.403 100.488 138.357 100.406 138.275C100.324 138.193 100.279 138.083 100.279 137.967V129.384C100.279 129.269 100.324 129.158 100.406 129.077C100.488 128.995 100.598 128.949 100.714 128.949H109.305C109.421 128.949 109.532 128.995 109.613 129.077C109.695 129.158 109.741 129.269 109.741 129.384V137.993C109.734 138.104 109.685 138.208 109.604 138.284C109.523 138.36 109.416 138.403 109.305 138.403ZM101.149 137.532H108.87V129.82H101.149V137.532Z" fill="#263238"/>
<path d="M122.18 129.384H113.597V137.967H122.18V129.384Z" fill="white"/>
<path d="M122.18 138.403H113.597C113.481 138.403 113.371 138.357 113.289 138.275C113.208 138.193 113.162 138.083 113.162 137.967V129.384C113.162 129.269 113.208 129.158 113.289 129.077C113.371 128.995 113.481 128.949 113.597 128.949H122.18C122.295 128.949 122.406 128.995 122.488 129.077C122.569 129.158 122.615 129.269 122.615 129.384V137.993C122.608 138.104 122.56 138.208 122.479 138.284C122.398 138.36 122.291 138.403 122.18 138.403ZM114.032 137.532H121.745V129.82H114.032V137.532Z" fill="#263238"/>
<path d="M150.2 143.999C150.085 143.999 149.974 143.953 149.893 143.872C149.811 143.79 149.765 143.679 149.765 143.564V134.581C149.765 134.465 149.811 134.354 149.893 134.273C149.974 134.191 150.085 134.145 150.2 134.145C150.316 134.145 150.427 134.191 150.508 134.273C150.59 134.354 150.636 134.465 150.636 134.581V143.564C150.636 143.679 150.59 143.79 150.508 143.872C150.427 143.953 150.316 143.999 150.2 143.999Z" fill="white"/>
<path d="M165.982 143.564V95.7665H150.201V130.62" fill="#263238"/>
<path d="M165.982 144C165.867 144 165.756 143.954 165.674 143.872C165.593 143.79 165.547 143.68 165.547 143.564V96.2106H150.636V130.629C150.636 130.745 150.59 130.855 150.508 130.937C150.427 131.018 150.316 131.064 150.2 131.064C150.085 131.064 149.974 131.018 149.893 130.937C149.811 130.855 149.765 130.745 149.765 130.629V95.8101C149.767 95.6954 149.814 95.586 149.895 95.5048C149.976 95.4237 150.086 95.3771 150.2 95.3749H165.982C166.097 95.3771 166.206 95.4237 166.287 95.5048C166.369 95.586 166.415 95.6954 166.417 95.8101V143.564C166.417 143.68 166.372 143.79 166.29 143.872C166.208 143.954 166.098 144 165.982 144Z" fill="white"/>
<path d="M265.547 143.564H178.831V62.6358L222.189 39.1504L265.547 62.6358V143.564Z" fill="white"/>
<path d="M265.547 143.999H178.83C178.715 143.999 178.604 143.954 178.523 143.872C178.441 143.79 178.395 143.68 178.395 143.564V62.6101C178.396 62.532 178.417 62.4554 178.457 62.3882C178.497 62.3209 178.553 62.2654 178.621 62.2271L221.98 38.7243C222.044 38.69 222.116 38.672 222.189 38.672C222.262 38.672 222.333 38.69 222.398 38.7243L265.756 62.2271C265.824 62.2654 265.881 62.3209 265.921 62.3882C265.96 62.4554 265.982 62.532 265.982 62.6101V143.564C265.982 143.68 265.936 143.79 265.855 143.872C265.773 143.954 265.662 143.999 265.547 143.999ZM179.266 143.129H265.112V62.8973L222.189 39.6296L179.266 62.8799V143.129Z" fill="#263238"/>
<path d="M272.172 66.0833L222.189 39.0029L172.206 66.0833L170.648 63.2108L222.189 35.2859L273.73 63.2108L272.172 66.0833Z" fill="white"/>
<path d="M272.172 66.5186C272.101 66.519 272.032 66.501 271.971 66.4664L222.189 39.4817L172.407 66.4664C172.3 66.5057 172.183 66.5057 172.076 66.4664C171.967 66.4294 171.876 66.3513 171.823 66.2488L170.265 63.3849C170.238 63.3346 170.22 63.2794 170.214 63.2224C170.208 63.1654 170.213 63.1078 170.229 63.0528C170.245 62.9978 170.272 62.9465 170.308 62.9019C170.344 62.8573 170.389 62.8203 170.439 62.793L221.98 34.8682C222.044 34.8339 222.116 34.8159 222.189 34.8159C222.262 34.8159 222.334 34.8339 222.398 34.8682L273.939 62.793C274.039 62.8502 274.114 62.9436 274.148 63.0541C274.19 63.1603 274.19 63.2788 274.148 63.3849L272.589 66.2488C272.556 66.331 272.498 66.401 272.423 66.4492C272.348 66.4975 272.26 66.5217 272.172 66.5186ZM222.189 38.5677C222.262 38.5684 222.333 38.5863 222.398 38.6199L272.015 65.4915L273.155 63.3849L222.206 35.7822L171.284 63.3849L172.424 65.4915L222.041 38.6199C222.087 38.5942 222.137 38.5765 222.189 38.5677Z" fill="#263238"/>
<path d="M178.831 62.6358V64.6031L222.189 41.1177L265.547 64.6031V62.6358L222.189 39.1504L178.831 62.6358Z" fill="#263238"/>
<path d="M265.547 65.039C265.474 65.0384 265.403 65.0205 265.338 64.9868L222.189 41.6146L179.039 64.9868C178.975 65.0251 178.901 65.0453 178.826 65.0453C178.751 65.0453 178.677 65.0251 178.613 64.9868C178.546 64.9502 178.49 64.896 178.452 64.83C178.413 64.7641 178.394 64.6888 178.395 64.6125V62.6452C178.396 62.5671 178.417 62.4906 178.457 62.4233C178.497 62.3561 178.553 62.3005 178.622 62.2622L221.98 38.7594C222.044 38.7251 222.116 38.7072 222.189 38.7072C222.262 38.7072 222.333 38.7251 222.398 38.7594L265.756 62.2622C265.824 62.3005 265.881 62.3561 265.921 62.4233C265.96 62.4906 265.982 62.5671 265.982 62.6452V64.6125C265.983 64.6876 265.964 64.7616 265.927 64.8272C265.891 64.8927 265.838 64.9477 265.773 64.9868C265.704 65.0253 265.626 65.0434 265.547 65.039ZM222.189 40.6658C222.262 40.6664 222.333 40.6843 222.398 40.718L265.112 63.8552V62.8803L222.189 39.6296L179.266 62.8799L179.266 63.8552L221.98 40.718C222.046 40.6903 222.117 40.6784 222.189 40.6832V40.6658Z" fill="#263238"/>
<path d="M203.221 82.2917V73.761H240.634V116.284" fill="white"/>
<path d="M240.634 116.719C240.519 116.719 240.408 116.673 240.326 116.591C240.245 116.51 240.199 116.399 240.199 116.284V74.1963H203.639V82.283C203.639 82.3984 203.593 82.5091 203.512 82.5907C203.43 82.6724 203.319 82.7182 203.204 82.7182C203.088 82.7182 202.978 82.6724 202.896 82.5907C202.814 82.5091 202.769 82.3984 202.769 82.283V73.7523C202.769 73.6369 202.814 73.5262 202.896 73.4446C202.978 73.3629 203.088 73.3171 203.204 73.3171H240.634C240.75 73.3171 240.86 73.3629 240.942 73.4446C241.024 73.5262 241.069 73.6369 241.069 73.7523V116.275C241.071 116.333 241.06 116.39 241.039 116.444C241.017 116.498 240.986 116.547 240.945 116.588C240.904 116.63 240.856 116.663 240.803 116.685C240.749 116.707 240.692 116.719 240.634 116.719Z" fill="#263238"/>
<path d="M240.634 120.68V129.054H203.221V85.5385" fill="white"/>
<path d="M240.634 129.489H203.204C203.088 129.489 202.978 129.443 202.896 129.361C202.814 129.28 202.769 129.169 202.769 129.054V85.5298C202.769 85.4144 202.814 85.3037 202.896 85.222C202.978 85.1404 203.088 85.0946 203.204 85.0946C203.319 85.0946 203.43 85.1404 203.512 85.222C203.593 85.3037 203.639 85.4144 203.639 85.5298V128.61H240.199V120.671C240.199 120.555 240.245 120.445 240.326 120.363C240.408 120.281 240.519 120.236 240.634 120.236C240.75 120.236 240.86 120.281 240.942 120.363C241.024 120.445 241.069 120.555 241.069 120.671V129.045C241.069 129.161 241.024 129.273 240.942 129.356C240.861 129.439 240.75 129.486 240.634 129.489Z" fill="#263238"/>
<path d="M238.145 90.3783H223.59V100.493H238.145V90.3783Z" fill="#263238"/>
<path d="M238.136 100.929H223.59C223.475 100.929 223.364 100.883 223.282 100.801C223.201 100.719 223.155 100.609 223.155 100.493V90.3783C223.155 90.2629 223.201 90.1522 223.282 90.0706C223.364 89.989 223.475 89.9431 223.59 89.9431H238.136C238.251 89.9431 238.362 89.989 238.443 90.0706C238.525 90.1522 238.571 90.2629 238.571 90.3783V100.493C238.571 100.609 238.525 100.719 238.443 100.801C238.362 100.883 238.251 100.929 238.136 100.929ZM224.025 100.058H237.7V90.8136H224.025V100.058Z" fill="#263238"/>
<path d="M238.145 103.818H223.59V113.933H238.145V103.818Z" fill="#263238"/>
<path d="M238.136 114.36H223.59C223.475 114.36 223.364 114.314 223.282 114.232C223.201 114.151 223.155 114.04 223.155 113.925V103.818C223.155 103.703 223.201 103.592 223.282 103.511C223.364 103.429 223.475 103.383 223.59 103.383H238.136C238.251 103.383 238.362 103.429 238.443 103.511C238.525 103.592 238.571 103.703 238.571 103.818V113.925C238.571 114.04 238.525 114.151 238.443 114.232C238.362 114.314 238.251 114.36 238.136 114.36ZM224.025 113.489H237.7V104.254H224.025V113.489Z" fill="#263238"/>
<path d="M238.145 76.2505H223.59V87.0443H238.145V76.2505Z" fill="#263238"/>
<path d="M238.136 87.5058H223.59C223.475 87.5058 223.364 87.4599 223.282 87.3783C223.201 87.2967 223.155 87.186 223.155 87.0706V76.2506C223.155 76.1351 223.201 76.0244 223.282 75.9428C223.364 75.8612 223.475 75.8153 223.59 75.8153H238.136C238.251 75.8153 238.362 75.8612 238.443 75.9428C238.525 76.0244 238.571 76.1351 238.571 76.2506V87.0532C238.573 87.1118 238.564 87.1702 238.543 87.2251C238.522 87.2799 238.49 87.33 238.45 87.3722C238.409 87.4145 238.36 87.4481 238.306 87.4711C238.252 87.494 238.194 87.5059 238.136 87.5058ZM224.025 86.6353H237.7V76.6858H224.025V86.6353Z" fill="#263238"/>
<path d="M220.265 76.2505H205.71V87.0443H220.265V76.2505Z" fill="#263238"/>
<path d="M220.265 87.5058H205.71C205.595 87.5058 205.484 87.4599 205.403 87.3783C205.321 87.2967 205.275 87.186 205.275 87.0706V76.2506C205.275 76.1351 205.321 76.0244 205.403 75.9428C205.484 75.8612 205.595 75.8153 205.71 75.8153H220.265C220.38 75.8176 220.489 75.8641 220.57 75.9453C220.651 76.0264 220.698 76.1358 220.7 76.2506V87.0532C220.701 87.1115 220.691 87.1694 220.67 87.2237C220.648 87.278 220.617 87.3276 220.576 87.3696C220.536 87.4117 220.487 87.4453 220.434 87.4687C220.381 87.4921 220.323 87.5047 220.265 87.5058ZM206.146 86.6353H219.83V76.6858H206.146V86.6353Z" fill="#263238"/>
<path d="M220.265 103.818H205.71V113.933H220.265V103.818Z" fill="#263238"/>
<path d="M220.265 114.36H205.71C205.595 114.36 205.484 114.314 205.403 114.232C205.321 114.151 205.275 114.04 205.275 113.925V103.818C205.275 103.703 205.321 103.592 205.403 103.511C205.484 103.429 205.595 103.383 205.71 103.383H220.265C220.38 103.383 220.491 103.429 220.573 103.511C220.654 103.592 220.7 103.703 220.7 103.818V113.925C220.7 114.04 220.654 114.151 220.573 114.232C220.491 114.314 220.38 114.36 220.265 114.36ZM206.146 113.489H219.83V104.254H206.146V113.489Z" fill="#263238"/>
<path d="M220.265 90.3783H205.71V100.493H220.265V90.3783Z" fill="#263238"/>
<path d="M220.265 100.929H205.71C205.595 100.929 205.484 100.883 205.403 100.801C205.321 100.719 205.275 100.609 205.275 100.493V90.3783C205.275 90.2629 205.321 90.1522 205.403 90.0706C205.484 89.989 205.595 89.9431 205.71 89.9431H220.265C220.38 89.9431 220.491 89.989 220.573 90.0706C220.654 90.1522 220.7 90.2629 220.7 90.3783V100.493C220.698 100.608 220.651 100.717 220.57 100.799C220.489 100.88 220.38 100.926 220.265 100.929ZM206.146 100.058H219.83V90.8136H206.146V100.058Z" fill="#263238"/>
<path d="M238.145 117.25H223.59V126.555H238.145V117.25Z" fill="#263238"/>
<path d="M238.136 126.99H223.59C223.475 126.99 223.364 126.945 223.282 126.863C223.201 126.781 223.155 126.671 223.155 126.555V117.25C223.155 117.134 223.201 117.024 223.282 116.942C223.364 116.86 223.475 116.815 223.59 116.815H238.136C238.251 116.815 238.362 116.86 238.443 116.942C238.525 117.024 238.571 117.134 238.571 117.25V126.555C238.571 126.671 238.525 126.781 238.443 126.863C238.362 126.945 238.251 126.99 238.136 126.99ZM224.025 126.12H237.7V117.685H224.025V126.12Z" fill="#263238"/>
<path d="M220.265 117.25H205.71V126.555H220.265V117.25Z" fill="#263238"/>
<path d="M220.265 126.99H205.71C205.595 126.99 205.484 126.945 205.403 126.863C205.321 126.781 205.275 126.671 205.275 126.555V117.25C205.275 117.134 205.321 117.024 205.403 116.942C205.484 116.86 205.595 116.815 205.71 116.815H220.265C220.38 116.817 220.489 116.863 220.57 116.945C220.651 117.026 220.698 117.135 220.7 117.25V126.555C220.7 126.671 220.654 126.781 220.573 126.863C220.491 126.945 220.38 126.99 220.265 126.99ZM206.146 126.12H219.83V117.685H206.146V126.12Z" fill="#263238"/>
<defs>
<linearGradient id="paint0_linear_2604_197" x1="137.09" y1="0" x2="137.09" y2="144" gradientUnits="userSpaceOnUse">
<stop stop-color="#FF5722"/>
<stop stop-color="#FF5722"/>
</linearGradient>
<linearGradient id="paint1_linear_2604_197" x1="137.09" y1="0" x2="137.09" y2="144" gradientUnits="userSpaceOnUse">
<stop stop-color="#FF5722"/>
<stop stop-color="#FF5722"/>
</linearGradient>
<linearGradient id="paint2_linear_2604_197" x1="137.09" y1="0" x2="137.09" y2="144" gradientUnits="userSpaceOnUse">
<stop stop-color="#FF5722"/>
<stop stop-color="#FF5722"/>
</linearGradient>
<linearGradient id="paint3_linear_2604_197" x1="137.09" y1="0" x2="137.09" y2="144" gradientUnits="userSpaceOnUse">
<stop stop-color="#FF5722"/>
<stop stop-color="#FF5722"/>
</linearGradient>
</defs>
</svg>
