<svg width="266" height="169" viewBox="0 0 266 169" fill="none" xmlns="http://www.w3.org/2000/svg">
<path d="M183.924 117.467H22.0247V168.555H183.924V117.467Z" fill="white"/>
<path d="M183.924 168.852H22.0248C21.946 168.852 21.8704 168.821 21.8147 168.765C21.759 168.71 21.7277 168.634 21.7277 168.555V117.455C21.7277 117.376 21.759 117.3 21.8147 117.245C21.8704 117.189 21.946 117.158 22.0248 117.158H183.924C184.003 117.158 184.079 117.189 184.134 117.245C184.19 117.3 184.221 117.376 184.221 117.455V168.555C184.221 168.634 184.19 168.71 184.134 168.765C184.079 168.821 184.003 168.852 183.924 168.852ZM22.304 168.258H183.627V117.752H22.3219L22.304 168.258Z" fill="#263238"/>
<path d="M103.191 70.8522L22.4526 117.467L183.924 117.467L103.191 70.8522Z" fill="url(#paint0_linear_2604_270)"/>
<path d="M183.924 117.764H22.4527C22.3879 117.763 22.325 117.741 22.2738 117.702C22.2225 117.662 22.1857 117.606 22.1688 117.544C22.152 117.481 22.1561 117.415 22.1806 117.355C22.205 117.295 22.2484 117.244 22.3042 117.211L103.043 70.5968C103.088 70.5707 103.139 70.557 103.192 70.557C103.244 70.557 103.295 70.5707 103.34 70.5968L184.073 117.217C184.131 117.248 184.176 117.298 184.202 117.359C184.228 117.419 184.233 117.486 184.216 117.55C184.197 117.613 184.159 117.667 184.106 117.706C184.054 117.745 183.99 117.765 183.924 117.764ZM23.5639 117.17H182.807L103.186 71.1969L23.5639 117.17Z" fill="#263238"/>
<path d="M135.783 113.313H95.7166V168.555H135.783V113.313Z" fill="white"/>
<path d="M135.783 168.852H95.7164C95.6376 168.852 95.562 168.821 95.5063 168.765C95.4506 168.709 95.4193 168.634 95.4193 168.555V113.295C95.4193 113.216 95.4506 113.141 95.5063 113.085C95.562 113.029 95.6376 112.998 95.7164 112.998H135.783C135.861 113 135.936 113.032 135.991 113.087C136.047 113.142 136.078 113.217 136.08 113.295V168.555C136.08 168.634 136.049 168.709 135.993 168.765C135.937 168.821 135.862 168.852 135.783 168.852ZM96.0135 168.258H135.462V113.592H96.0135V168.258Z" fill="#263238"/>
<path d="M135.783 113.313H95.7166V115.66H135.783V113.313Z" fill="#263238"/>
<path d="M135.783 115.963H95.7164C95.6376 115.963 95.562 115.932 95.5063 115.876C95.4506 115.821 95.4193 115.745 95.4193 115.666V113.289C95.4193 113.211 95.4506 113.135 95.5063 113.079C95.562 113.024 95.6376 112.992 95.7164 112.992H135.783C135.861 112.994 135.936 113.026 135.991 113.081C136.047 113.136 136.078 113.211 136.08 113.289V115.666C136.078 115.744 136.047 115.819 135.991 115.875C135.936 115.93 135.861 115.962 135.783 115.963ZM96.0135 115.369H135.462V113.586H96.0135V115.369Z" fill="#263238"/>
<path d="M125.753 168.555H105.752V134.027C105.752 132.713 106.01 131.412 106.512 130.198C107.014 128.984 107.751 127.881 108.679 126.952C109.608 126.023 110.711 125.285 111.924 124.782C113.138 124.28 114.439 124.021 115.753 124.021C118.406 124.021 120.952 125.075 122.828 126.951C124.705 128.828 125.759 131.373 125.759 134.027L125.753 168.555Z" fill="#263238"/>
<path d="M125.753 168.852H105.753C105.674 168.852 105.598 168.821 105.542 168.765C105.487 168.71 105.455 168.634 105.455 168.555V134.027C105.422 132.653 105.664 131.287 106.167 130.009C106.67 128.73 107.424 127.565 108.383 126.582C109.343 125.599 110.49 124.818 111.756 124.284C113.022 123.751 114.382 123.476 115.756 123.476C117.13 123.476 118.49 123.751 119.756 124.284C121.022 124.818 122.169 125.599 123.128 126.582C124.088 127.565 124.841 128.73 125.344 130.009C125.847 131.287 126.089 132.653 126.056 134.027V168.555C126.056 168.595 126.048 168.634 126.033 168.67C126.018 168.707 125.995 168.74 125.967 168.768C125.939 168.795 125.905 168.817 125.869 168.832C125.832 168.846 125.793 168.853 125.753 168.852ZM106.044 168.258H125.456V134.027C125.488 132.732 125.261 131.444 124.787 130.238C124.314 129.033 123.604 127.934 122.7 127.007C121.795 126.08 120.714 125.343 119.521 124.84C118.327 124.337 117.045 124.078 115.75 124.078C114.455 124.078 113.172 124.337 111.979 124.84C110.785 125.343 109.705 126.08 108.8 127.007C107.896 127.934 107.186 129.033 106.712 130.238C106.239 131.444 106.012 132.732 106.044 134.027V168.258Z" fill="#263238"/>
<path d="M103.203 126.415H10.4022V168.555H103.203V126.415Z" fill="white"/>
<path d="M103.203 168.853H10.4025C10.3237 168.853 10.2481 168.821 10.1924 168.766C10.1367 168.71 10.1054 168.634 10.1054 168.555V126.415C10.1054 126.337 10.1367 126.261 10.1924 126.205C10.2481 126.15 10.3237 126.118 10.4025 126.118H103.203C103.282 126.118 103.358 126.15 103.413 126.205C103.469 126.261 103.5 126.337 103.5 126.415V168.555C103.5 168.634 103.469 168.71 103.413 168.766C103.358 168.821 103.282 168.853 103.203 168.853ZM10.6817 168.258H102.906V126.724H10.6817V168.258Z" fill="#263238"/>
<path d="M103.203 126.415H10.4022V128.293H103.203V126.415Z" fill="#263238"/>
<path d="M103.203 128.59H10.4025C10.3237 128.59 10.2481 128.559 10.1924 128.503C10.1367 128.447 10.1054 128.372 10.1054 128.293V126.415C10.1054 126.337 10.1367 126.261 10.1924 126.205C10.2481 126.15 10.3237 126.118 10.4025 126.118H103.203C103.282 126.118 103.358 126.15 103.413 126.205C103.469 126.261 103.5 126.337 103.5 126.415V128.293C103.5 128.372 103.469 128.447 103.413 128.503C103.358 128.559 103.282 128.59 103.203 128.59ZM10.6817 127.996H102.906V126.724H10.6817V127.996Z" fill="#263238"/>
<path d="M92.9893 129.891H20.6108V168.555H92.9893V129.891Z" fill="url(#paint1_linear_2604_270)"/>
<path d="M92.9893 168.852H20.6107C20.5319 168.852 20.4564 168.821 20.4007 168.765C20.345 168.71 20.3137 168.634 20.3137 168.555V129.891C20.3137 129.812 20.345 129.737 20.4007 129.681C20.4564 129.625 20.5319 129.594 20.6107 129.594H92.9893C93.0681 129.594 93.1436 129.625 93.1993 129.681C93.2551 129.737 93.2864 129.812 93.2864 129.891V168.555C93.2864 168.634 93.2551 168.71 93.1993 168.765C93.1436 168.821 93.0681 168.852 92.9893 168.852ZM20.9078 168.258H92.6803V130.188H20.9078V168.258Z" fill="#263238"/>
<path d="M56.8028 95.5827L7.55025 124.021H106.055L56.8028 95.5827Z" fill="url(#paint2_linear_2604_270)"/>
<path d="M106.055 124.347H7.55034C7.4855 124.347 7.42266 124.325 7.37141 124.285C7.32015 124.245 7.28329 124.19 7.26646 124.127C7.24963 124.065 7.25374 123.998 7.27818 123.938C7.30261 123.878 7.34603 123.828 7.40179 123.795L56.6544 95.3568C56.6995 95.3307 56.7508 95.3169 56.8029 95.3169C56.8551 95.3169 56.9063 95.3307 56.9515 95.3568L106.204 123.753C106.26 123.786 106.303 123.837 106.328 123.897C106.352 123.957 106.356 124.023 106.339 124.086C106.323 124.148 106.286 124.204 106.234 124.244C106.183 124.283 106.12 124.305 106.055 124.306V124.347ZM8.66148 123.753H104.921L56.791 95.9569L8.66148 123.753Z" fill="#263238"/>
<path d="M106.049 124.021L7.55025 124.021V126.415H106.049V124.021Z" fill="white"/>
<path d="M106.055 126.724H7.55032C7.47152 126.724 7.39595 126.693 7.34024 126.637C7.28452 126.582 7.25322 126.506 7.25322 126.427V124.05C7.25322 123.972 7.28452 123.896 7.34024 123.84C7.39595 123.785 7.47152 123.753 7.55032 123.753H106.055C106.134 123.753 106.21 123.785 106.266 123.84C106.321 123.896 106.353 123.972 106.353 124.05V126.427C106.353 126.506 106.321 126.582 106.266 126.637C106.21 126.693 106.134 126.724 106.055 126.724ZM7.84741 126.13H105.752V124.348H7.84741V126.13Z" fill="#263238"/>
<path d="M115.747 97.2817L90.2442 112.006H141.256L115.747 97.2817Z" fill="url(#paint3_linear_2604_270)"/>
<path d="M141.255 112.303H90.2438C90.1777 112.304 90.1132 112.283 90.0605 112.243C90.0078 112.204 89.9698 112.147 89.9526 112.084C89.9354 112.02 89.9401 111.953 89.9659 111.892C89.9918 111.832 90.0374 111.782 90.0952 111.751L115.598 97.0148C115.644 96.9914 115.695 96.9791 115.747 96.9791C115.798 96.9791 115.849 96.9914 115.895 97.0148L141.404 111.751C141.459 111.784 141.503 111.834 141.527 111.894C141.552 111.954 141.556 112.021 141.539 112.083C141.522 112.146 141.485 112.201 141.434 112.241C141.383 112.281 141.32 112.303 141.255 112.303ZM91.343 111.709H140.138L115.747 97.609L91.343 111.709Z" fill="#263238"/>
<path d="M141.256 112.006H90.2442V114.371H141.256L141.256 112.006Z" fill="white"/>
<path d="M141.255 114.668H90.244C90.1652 114.668 90.0896 114.637 90.0339 114.581C89.9782 114.525 89.9469 114.45 89.9469 114.371V111.994C89.9469 111.916 89.9782 111.84 90.0339 111.784C90.0896 111.729 90.1652 111.697 90.244 111.697H141.255C141.334 111.697 141.41 111.729 141.465 111.784C141.521 111.84 141.552 111.916 141.552 111.994V114.371C141.552 114.45 141.521 114.525 141.465 114.581C141.41 114.637 141.334 114.668 141.255 114.668ZM90.5411 114.074H140.958V112.291H90.5411V114.074Z" fill="#263238"/>
<path d="M29.1074 132.999H23.2487V138.857H29.1074V132.999Z" fill="white"/>
<path d="M29.1017 139.155H23.243C23.1642 139.155 23.0886 139.123 23.0329 139.068C22.9772 139.012 22.9459 138.936 22.9459 138.858V132.999C22.9459 132.92 22.9772 132.845 23.0329 132.789C23.0886 132.733 23.1642 132.702 23.243 132.702H29.1017C29.1805 132.702 29.2561 132.733 29.3118 132.789C29.3675 132.845 29.3988 132.92 29.3988 132.999V138.858C29.3988 138.936 29.3675 139.012 29.3118 139.068C29.2561 139.123 29.1805 139.155 29.1017 139.155ZM23.5401 138.561H28.8046V133.296H23.5401V138.561Z" fill="#263238"/>
<path d="M37.9018 132.999H32.0431V138.857H37.9018V132.999Z" fill="white"/>
<path d="M37.9016 139.155H32.0726C31.9938 139.155 31.9182 139.123 31.8625 139.068C31.8068 139.012 31.7755 138.936 31.7755 138.858V132.999C31.7755 132.92 31.8068 132.845 31.8625 132.789C31.9182 132.733 31.9938 132.702 32.0726 132.702H37.9313C38.0101 132.702 38.0857 132.733 38.1414 132.789C38.1971 132.845 38.2284 132.92 38.2284 132.999V138.858C38.2286 138.899 38.2201 138.94 38.2033 138.979C38.1866 139.017 38.162 139.051 38.1312 139.079C38.1004 139.107 38.064 139.128 38.0244 139.141C37.9849 139.154 37.943 139.159 37.9016 139.155ZM32.34 138.561H37.6045V133.296H32.34V138.561Z" fill="#263238"/>
<path d="M46.6898 132.999H40.8311V138.857H46.6898V132.999Z" fill="white"/>
<path d="M46.6958 139.155H40.8312C40.7524 139.155 40.6768 139.123 40.6211 139.068C40.5654 139.012 40.5341 138.936 40.5341 138.858V132.999C40.5341 132.92 40.5654 132.845 40.6211 132.789C40.6768 132.733 40.7524 132.702 40.8312 132.702H46.6958C46.7746 132.702 46.8502 132.733 46.9059 132.789C46.9616 132.845 46.9929 132.92 46.9929 132.999V138.858C46.9929 138.936 46.9616 139.012 46.9059 139.068C46.8502 139.123 46.7746 139.155 46.6958 139.155ZM41.1283 138.561H46.3987V133.296H41.1283V138.561Z" fill="#263238"/>
<path d="M55.4838 132.999H49.625V138.857H55.4838V132.999Z" fill="white"/>
<path d="M55.4898 139.155H49.6251C49.5463 139.155 49.4707 139.123 49.415 139.068C49.3593 139.012 49.328 138.936 49.328 138.858V132.999C49.328 132.92 49.3593 132.845 49.415 132.789C49.4707 132.733 49.5463 132.702 49.6251 132.702H55.4898C55.5686 132.702 55.6441 132.733 55.6999 132.789C55.7556 132.845 55.7869 132.92 55.7869 132.999V138.858C55.7869 138.936 55.7556 139.012 55.6999 139.068C55.6441 139.123 55.5686 139.155 55.4898 139.155ZM49.9222 138.561H55.1927V133.296H49.8984L49.9222 138.561Z" fill="#263238"/>
<path d="M64.2777 132.999H58.419V138.857H64.2777V132.999Z" fill="white"/>
<path d="M64.2778 139.155H58.419C58.3402 139.155 58.2647 139.123 58.209 139.068C58.1532 139.012 58.1219 138.936 58.1219 138.858V132.999C58.1219 132.92 58.1532 132.845 58.209 132.789C58.2647 132.733 58.3402 132.702 58.419 132.702H64.2778C64.3566 132.702 64.4321 132.733 64.4878 132.789C64.5436 132.845 64.5749 132.92 64.5749 132.999V138.858C64.5749 138.936 64.5436 139.012 64.4878 139.068C64.4321 139.123 64.3566 139.155 64.2778 139.155ZM58.7161 138.561H63.9807V133.296H58.7161V138.561Z" fill="#263238"/>
<path d="M73.0659 132.999H67.2072V138.857H73.0659V132.999Z" fill="white"/>
<path d="M73.072 139.155H67.2073C67.1285 139.155 67.0529 139.123 66.9972 139.068C66.9415 139.012 66.9102 138.936 66.9102 138.858V132.999C66.9102 132.92 66.9415 132.845 66.9972 132.789C67.0529 132.733 67.1285 132.702 67.2073 132.702H73.072C73.1507 132.702 73.2263 132.733 73.282 132.789C73.3377 132.845 73.369 132.92 73.369 132.999V138.858C73.369 138.936 73.3377 139.012 73.282 139.068C73.2263 139.123 73.1507 139.155 73.072 139.155ZM67.5044 138.561H72.7749V133.296H67.5044V138.561Z" fill="#263238"/>
<path d="M81.8599 132.999H76.0011V138.857H81.8599V132.999Z" fill="white"/>
<path d="M81.8659 139.155H76.0012C75.9224 139.155 75.8468 139.123 75.7911 139.068C75.7354 139.012 75.7041 138.936 75.7041 138.858V132.999C75.7041 132.92 75.7354 132.845 75.7911 132.789C75.8468 132.733 75.9224 132.702 76.0012 132.702H81.8659C81.9447 132.702 82.0202 132.733 82.076 132.789C82.1317 132.845 82.163 132.92 82.163 132.999V138.858C82.163 138.936 82.1317 139.012 82.076 139.068C82.0202 139.123 81.9447 139.155 81.8659 139.155ZM76.2983 138.561H81.5688V133.296H76.2983V138.561Z" fill="#263238"/>
<path d="M90.6541 132.999H84.7954V138.857H90.6541V132.999Z" fill="white"/>
<path d="M90.6539 139.155H84.7951C84.7163 139.155 84.6408 139.123 84.5851 139.068C84.5293 139.012 84.498 138.936 84.498 138.858V132.999C84.498 132.92 84.5293 132.845 84.5851 132.789C84.6408 132.733 84.7163 132.702 84.7951 132.702H90.6539C90.7327 132.702 90.8082 132.733 90.864 132.789C90.9197 132.845 90.951 132.92 90.951 132.999V138.858C90.951 138.897 90.9433 138.935 90.9284 138.971C90.9134 139.007 90.8915 139.04 90.864 139.068C90.8364 139.095 90.8036 139.117 90.7676 139.132C90.7315 139.147 90.6929 139.155 90.6539 139.155ZM85.0922 138.561H90.3568V133.296H85.0922V138.561Z" fill="#263238"/>
<path d="M29.1074 141.626H23.2487V147.485H29.1074V141.626Z" fill="white"/>
<path d="M29.1017 147.782H23.243C23.1642 147.782 23.0886 147.751 23.0329 147.695C22.9772 147.64 22.9459 147.564 22.9459 147.485V141.627C22.9459 141.548 22.9772 141.472 23.0329 141.416C23.0886 141.361 23.1642 141.329 23.243 141.329H29.1017C29.1805 141.329 29.2561 141.361 29.3118 141.416C29.3675 141.472 29.3988 141.548 29.3988 141.627V147.485C29.3988 147.564 29.3675 147.64 29.3118 147.695C29.2561 147.751 29.1805 147.782 29.1017 147.782ZM23.5401 147.188H28.8046V141.924H23.5401V147.188Z" fill="#263238"/>
<path d="M37.9018 141.626H32.0431V147.485H37.9018V141.626Z" fill="white"/>
<path d="M37.9016 147.782H32.0726C31.9938 147.782 31.9182 147.751 31.8625 147.695C31.8068 147.64 31.7755 147.564 31.7755 147.485V141.627C31.7755 141.548 31.8068 141.472 31.8625 141.416C31.9182 141.361 31.9938 141.329 32.0726 141.329H37.9313C38.0101 141.329 38.0857 141.361 38.1414 141.416C38.1971 141.472 38.2284 141.548 38.2284 141.627V147.485C38.2286 147.527 38.2201 147.568 38.2033 147.606C38.1866 147.644 38.162 147.679 38.1312 147.707C38.1004 147.735 38.064 147.756 38.0244 147.769C37.9849 147.782 37.943 147.787 37.9016 147.782ZM32.34 147.188H37.6045V141.924H32.34V147.188Z" fill="#263238"/>
<path d="M46.6898 141.626H40.8311V147.485H46.6898V141.626Z" fill="white"/>
<path d="M46.6958 147.782H40.8312C40.7524 147.782 40.6768 147.751 40.6211 147.695C40.5654 147.64 40.5341 147.564 40.5341 147.485V141.627C40.5341 141.548 40.5654 141.472 40.6211 141.416C40.6768 141.361 40.7524 141.329 40.8312 141.329H46.6958C46.7746 141.329 46.8502 141.361 46.9059 141.416C46.9616 141.472 46.9929 141.548 46.9929 141.627V147.485C46.9929 147.564 46.9616 147.64 46.9059 147.695C46.8502 147.751 46.7746 147.782 46.6958 147.782ZM41.1283 147.188H46.3987V141.924H41.1283V147.188Z" fill="#263238"/>
<path d="M55.4838 141.626H49.625V147.485H55.4838V141.626Z" fill="white"/>
<path d="M55.4898 147.782H49.6251C49.5463 147.782 49.4707 147.751 49.415 147.695C49.3593 147.64 49.328 147.564 49.328 147.485V141.627C49.328 141.548 49.3593 141.472 49.415 141.416C49.4707 141.361 49.5463 141.329 49.6251 141.329H55.4898C55.5686 141.329 55.6441 141.361 55.6999 141.416C55.7556 141.472 55.7869 141.548 55.7869 141.627V147.485C55.7869 147.564 55.7556 147.64 55.6999 147.695C55.6441 147.751 55.5686 147.782 55.4898 147.782ZM49.9222 147.188H55.1927V141.924H49.8984L49.9222 147.188Z" fill="#263238"/>
<path d="M64.2777 141.626H58.419V147.485H64.2777V141.626Z" fill="white"/>
<path d="M64.2778 147.782H58.419C58.3402 147.782 58.2647 147.751 58.209 147.695C58.1532 147.64 58.1219 147.564 58.1219 147.485V141.627C58.1219 141.548 58.1532 141.472 58.209 141.416C58.2647 141.361 58.3402 141.329 58.419 141.329H64.2778C64.3566 141.329 64.4321 141.361 64.4878 141.416C64.5436 141.472 64.5749 141.548 64.5749 141.627V147.485C64.5749 147.564 64.5436 147.64 64.4878 147.695C64.4321 147.751 64.3566 147.782 64.2778 147.782ZM58.7161 147.188H63.9807V141.924H58.7161V147.188Z" fill="#263238"/>
<path d="M73.0659 141.626H67.2072V147.485H73.0659V141.626Z" fill="white"/>
<path d="M73.072 147.782H67.2073C67.1285 147.782 67.0529 147.751 66.9972 147.695C66.9415 147.64 66.9102 147.564 66.9102 147.485V141.627C66.9102 141.548 66.9415 141.472 66.9972 141.416C67.0529 141.361 67.1285 141.329 67.2073 141.329H73.072C73.1507 141.329 73.2263 141.361 73.282 141.416C73.3377 141.472 73.369 141.548 73.369 141.627V147.485C73.369 147.564 73.3377 147.64 73.282 147.695C73.2263 147.751 73.1507 147.782 73.072 147.782ZM67.5044 147.188H72.7749V141.924H67.5044V147.188Z" fill="#263238"/>
<path d="M81.8599 141.626H76.0011V147.485H81.8599V141.626Z" fill="white"/>
<path d="M81.8659 147.782H76.0012C75.9224 147.782 75.8468 147.751 75.7911 147.695C75.7354 147.64 75.7041 147.564 75.7041 147.485V141.627C75.7041 141.548 75.7354 141.472 75.7911 141.416C75.8468 141.361 75.9224 141.329 76.0012 141.329H81.8659C81.9447 141.329 82.0202 141.361 82.076 141.416C82.1317 141.472 82.163 141.548 82.163 141.627V147.485C82.163 147.564 82.1317 147.64 82.076 147.695C82.0202 147.751 81.9447 147.782 81.8659 147.782ZM76.2983 147.188H81.5688V141.924H76.2983V147.188Z" fill="#263238"/>
<path d="M90.6541 141.626H84.7954V147.485H90.6541V141.626Z" fill="white"/>
<path d="M90.6539 147.782H84.7951C84.7163 147.782 84.6408 147.751 84.5851 147.695C84.5293 147.64 84.498 147.564 84.498 147.485V141.627C84.498 141.548 84.5293 141.472 84.5851 141.416C84.6408 141.361 84.7163 141.329 84.7951 141.329H90.6539C90.7327 141.329 90.8082 141.361 90.864 141.416C90.9197 141.472 90.951 141.548 90.951 141.627V147.485C90.951 147.524 90.9433 147.563 90.9284 147.599C90.9134 147.635 90.8915 147.668 90.864 147.695C90.8364 147.723 90.8036 147.745 90.7676 147.76C90.7315 147.775 90.6929 147.782 90.6539 147.782ZM85.0922 147.188H90.3568V141.924H85.0922V147.188Z" fill="#263238"/>
<path d="M29.1074 150.248H23.2487V156.107H29.1074V150.248Z" fill="white"/>
<path d="M29.1017 156.434H23.243C23.1642 156.434 23.0886 156.403 23.0329 156.347C22.9772 156.291 22.9459 156.216 22.9459 156.137V150.272C22.9459 150.193 22.9772 150.118 23.0329 150.062C23.0886 150.006 23.1642 149.975 23.243 149.975H29.1017C29.1805 149.975 29.2561 150.006 29.3118 150.062C29.3675 150.118 29.3988 150.193 29.3988 150.272V156.137C29.3988 156.216 29.3675 156.291 29.3118 156.347C29.2561 156.403 29.1805 156.434 29.1017 156.434ZM23.5401 155.84H28.8046V150.569H23.5401V155.84Z" fill="#263238"/>
<path d="M37.9018 150.248H32.0431V156.107H37.9018V150.248Z" fill="white"/>
<path d="M37.9016 156.434H32.0726C31.9938 156.434 31.9182 156.403 31.8625 156.347C31.8068 156.291 31.7755 156.216 31.7755 156.137V150.272C31.7755 150.193 31.8068 150.118 31.8625 150.062C31.9182 150.006 31.9938 149.975 32.0726 149.975H37.9313C38.0101 149.975 38.0857 150.006 38.1414 150.062C38.1971 150.118 38.2284 150.193 38.2284 150.272V156.137C38.2286 156.178 38.2201 156.22 38.2033 156.258C38.1866 156.296 38.162 156.33 38.1312 156.358C38.1004 156.386 38.064 156.407 38.0244 156.42C37.9849 156.433 37.943 156.438 37.9016 156.434ZM32.34 155.84H37.6045V150.569H32.34V155.84Z" fill="#263238"/>
<path d="M46.6898 150.248H40.8311V156.107H46.6898V150.248Z" fill="white"/>
<path d="M46.6958 156.434H40.8312C40.7529 156.432 40.6782 156.401 40.6228 156.345C40.5674 156.29 40.5356 156.215 40.5341 156.137V150.272C40.5341 150.193 40.5654 150.118 40.6211 150.062C40.6768 150.006 40.7524 149.975 40.8312 149.975H46.6958C46.7746 149.975 46.8502 150.006 46.9059 150.062C46.9616 150.118 46.9929 150.193 46.9929 150.272V156.137C46.9929 156.216 46.9616 156.291 46.9059 156.347C46.8502 156.403 46.7746 156.434 46.6958 156.434ZM41.1283 155.84H46.3987V150.569H41.1283V155.84Z" fill="#263238"/>
<path d="M55.4838 150.248H49.625V156.107H55.4838V150.248Z" fill="white"/>
<path d="M55.4898 156.434H49.6251C49.5463 156.434 49.4707 156.403 49.415 156.347C49.3593 156.291 49.328 156.216 49.328 156.137V150.272C49.328 150.193 49.3593 150.118 49.415 150.062C49.4707 150.006 49.5463 149.975 49.6251 149.975H55.4898C55.5686 149.975 55.6441 150.006 55.6999 150.062C55.7556 150.118 55.7869 150.193 55.7869 150.272V156.137C55.7854 156.215 55.7536 156.29 55.6982 156.345C55.6428 156.401 55.5681 156.432 55.4898 156.434ZM49.8984 155.84H55.1689V150.569H49.8984V155.84Z" fill="#263238"/>
<path d="M64.2777 150.248H58.419V156.107H64.2777V150.248Z" fill="white"/>
<path d="M64.2778 156.434H58.419C58.3402 156.434 58.2647 156.403 58.209 156.347C58.1532 156.291 58.1219 156.216 58.1219 156.137V150.272C58.1219 150.193 58.1532 150.118 58.209 150.062C58.2647 150.006 58.3402 149.975 58.419 149.975H64.2778C64.3566 149.975 64.4321 150.006 64.4878 150.062C64.5436 150.118 64.5749 150.193 64.5749 150.272V156.137C64.5749 156.216 64.5436 156.291 64.4878 156.347C64.4321 156.403 64.3566 156.434 64.2778 156.434ZM58.7161 155.84H63.9807V150.569H58.7161V155.84Z" fill="#263238"/>
<path d="M73.0659 150.248H67.2072V156.107H73.0659V150.248Z" fill="white"/>
<path d="M73.072 156.434H67.2073C67.129 156.432 67.0543 156.401 66.9989 156.345C66.9435 156.29 66.9117 156.215 66.9102 156.137V150.272C66.9102 150.193 66.9415 150.118 66.9972 150.062C67.0529 150.006 67.1285 149.975 67.2073 149.975H73.072C73.1507 149.975 73.2263 150.006 73.282 150.062C73.3377 150.118 73.369 150.193 73.369 150.272V156.137C73.369 156.216 73.3377 156.291 73.282 156.347C73.2263 156.403 73.1507 156.434 73.072 156.434ZM67.5044 155.84H72.7749V150.569H67.5044V155.84Z" fill="#263238"/>
<path d="M81.8599 150.248H76.0011V156.107H81.8599V150.248Z" fill="white"/>
<path d="M81.8659 156.434H76.0012C75.9229 156.432 75.8482 156.401 75.7928 156.345C75.7374 156.29 75.7056 156.215 75.7041 156.137V150.272C75.7041 150.193 75.7354 150.118 75.7911 150.062C75.8468 150.006 75.9224 149.975 76.0012 149.975H81.8659C81.9447 149.975 82.0202 150.006 82.076 150.062C82.1317 150.118 82.163 150.193 82.163 150.272V156.137C82.1615 156.215 82.1297 156.29 82.0743 156.345C82.0189 156.401 81.9442 156.432 81.8659 156.434ZM76.2983 155.84H81.5688V150.569H76.2983V155.84Z" fill="#263238"/>
<path d="M90.6541 150.248H84.7954V156.107H90.6541V150.248Z" fill="white"/>
<path d="M90.6539 156.434H84.7951C84.7163 156.434 84.6408 156.403 84.5851 156.347C84.5293 156.291 84.498 156.216 84.498 156.137V150.272C84.498 150.193 84.5293 150.118 84.5851 150.062C84.6408 150.006 84.7163 149.975 84.7951 149.975H90.6539C90.7327 149.975 90.8082 150.006 90.864 150.062C90.9197 150.118 90.951 150.193 90.951 150.272V156.137C90.951 156.176 90.9433 156.214 90.9284 156.251C90.9134 156.287 90.8915 156.319 90.864 156.347C90.8364 156.374 90.8036 156.396 90.7676 156.411C90.7315 156.426 90.6929 156.434 90.6539 156.434ZM85.0922 155.84H90.3568V150.569H85.0922V155.84Z" fill="#263238"/>
<path d="M29.1074 158.876H23.2487V164.735H29.1074V158.876Z" fill="white"/>
<path d="M29.1017 165.032H23.243C23.1642 165.032 23.0886 165 23.0329 164.945C22.9772 164.889 22.9459 164.813 22.9459 164.735V158.876C22.9459 158.797 22.9772 158.721 23.0329 158.666C23.0886 158.61 23.1642 158.579 23.243 158.579H29.1017C29.1805 158.579 29.2561 158.61 29.3118 158.666C29.3675 158.721 29.3988 158.797 29.3988 158.876V164.752C29.3943 164.828 29.361 164.899 29.3057 164.951C29.2505 165.003 29.1775 165.032 29.1017 165.032ZM23.5401 164.437H28.8046V159.173H23.5401V164.437Z" fill="#263238"/>
<path d="M37.9018 158.876H32.0431V164.735H37.9018V158.876Z" fill="white"/>
<path d="M37.9016 165.032H32.0726C31.9938 165.032 31.9182 165 31.8625 164.945C31.8068 164.889 31.7755 164.813 31.7755 164.735V158.876C31.7755 158.797 31.8068 158.721 31.8625 158.666C31.9182 158.61 31.9938 158.579 32.0726 158.579H37.9313C38.0101 158.579 38.0857 158.61 38.1414 158.666C38.1971 158.721 38.2284 158.797 38.2284 158.876V164.752C38.2262 164.793 38.2159 164.832 38.1981 164.868C38.1803 164.904 38.1553 164.936 38.1248 164.962C38.0942 164.988 38.0587 165.008 38.0203 165.02C37.982 165.032 37.9416 165.036 37.9016 165.032ZM32.34 164.437H37.6045V159.173H32.34V164.437Z" fill="#263238"/>
<path d="M46.6898 158.876H40.8311V164.735H46.6898V158.876Z" fill="white"/>
<path d="M46.6958 165.032H40.8312C40.7524 165.032 40.6768 165 40.6211 164.945C40.5654 164.889 40.5341 164.813 40.5341 164.735V158.876C40.5341 158.797 40.5654 158.721 40.6211 158.666C40.6768 158.61 40.7524 158.579 40.8312 158.579H46.6958C46.7746 158.579 46.8502 158.61 46.9059 158.666C46.9616 158.721 46.9929 158.797 46.9929 158.876V164.752C46.9884 164.828 46.9551 164.899 46.8999 164.951C46.8446 165.003 46.7716 165.032 46.6958 165.032ZM41.1283 164.437H46.3987V159.173H41.1283V164.437Z" fill="#263238"/>
<path d="M55.4838 158.876H49.625V164.735H55.4838V158.876Z" fill="white"/>
<path d="M55.4898 165.032H49.6251C49.5463 165.032 49.4707 165 49.415 164.945C49.3593 164.889 49.328 164.813 49.328 164.735V158.876C49.328 158.797 49.3593 158.721 49.415 158.666C49.4707 158.61 49.5463 158.579 49.6251 158.579H55.4898C55.5686 158.579 55.6441 158.61 55.6999 158.666C55.7556 158.721 55.7869 158.797 55.7869 158.876V164.752C55.7823 164.828 55.749 164.899 55.6938 164.951C55.6386 165.003 55.5656 165.032 55.4898 165.032ZM49.9222 164.437H55.1927V159.173H49.8984L49.9222 164.437Z" fill="#263238"/>
<path d="M64.2777 158.876H58.419V164.735H64.2777V158.876Z" fill="white"/>
<path d="M64.2778 165.032H58.419C58.3402 165.032 58.2647 165 58.209 164.945C58.1532 164.889 58.1219 164.813 58.1219 164.735V158.876C58.1219 158.797 58.1532 158.721 58.209 158.666C58.2647 158.61 58.3402 158.579 58.419 158.579H64.2778C64.3566 158.579 64.4321 158.61 64.4878 158.666C64.5436 158.721 64.5749 158.797 64.5749 158.876V164.752C64.5703 164.828 64.537 164.899 64.4818 164.951C64.4265 165.003 64.3536 165.032 64.2778 165.032ZM58.7161 164.437H63.9807V159.173H58.7161V164.437Z" fill="#263238"/>
<path d="M73.0659 158.876H67.2072V164.735H73.0659V158.876Z" fill="white"/>
<path d="M73.072 165.032H67.2073C67.1285 165.032 67.0529 165 66.9972 164.945C66.9415 164.889 66.9102 164.813 66.9102 164.735V158.876C66.9102 158.797 66.9415 158.721 66.9972 158.666C67.0529 158.61 67.1285 158.579 67.2073 158.579H73.072C73.1507 158.579 73.2263 158.61 73.282 158.666C73.3377 158.721 73.369 158.797 73.369 158.876V164.752C73.3645 164.828 73.3312 164.899 73.276 164.951C73.2207 165.003 73.1478 165.032 73.072 165.032ZM67.5044 164.437H72.7749V159.173H67.5044V164.437Z" fill="#263238"/>
<path d="M81.8599 158.876H76.0011V164.735H81.8599V158.876Z" fill="white"/>
<path d="M81.8659 165.032H76.0012C75.9224 165.032 75.8468 165 75.7911 164.945C75.7354 164.889 75.7041 164.813 75.7041 164.735V158.876C75.7041 158.797 75.7354 158.721 75.7911 158.666C75.8468 158.61 75.9224 158.579 76.0012 158.579H81.8659C81.9447 158.579 82.0202 158.61 82.076 158.666C82.1317 158.721 82.163 158.797 82.163 158.876V164.752C82.1584 164.828 82.1251 164.899 82.0699 164.951C82.0147 165.003 81.9417 165.032 81.8659 165.032ZM76.2983 164.437H81.5688V159.173H76.2983V164.437Z" fill="#263238"/>
<path d="M90.6541 158.876H84.7954V164.735H90.6541V158.876Z" fill="white"/>
<path d="M90.6539 165.032H84.7951C84.7163 165.032 84.6408 165 84.5851 164.945C84.5293 164.889 84.498 164.813 84.498 164.735V158.876C84.498 158.797 84.5293 158.721 84.5851 158.666C84.6408 158.61 84.7163 158.579 84.7951 158.579H90.6539C90.7327 158.579 90.8082 158.61 90.864 158.666C90.9197 158.721 90.951 158.797 90.951 158.876V164.752C90.9464 164.828 90.9131 164.899 90.8579 164.951C90.8027 165.003 90.7297 165.032 90.6539 165.032ZM85.0922 164.437H90.3568V159.173H85.0922V164.437Z" fill="#263238"/>
<path d="M109.781 168.852C109.702 168.852 109.627 168.821 109.571 168.765C109.515 168.709 109.484 168.634 109.484 168.555V162.423C109.484 162.344 109.515 162.269 109.571 162.213C109.627 162.157 109.702 162.126 109.781 162.126C109.86 162.126 109.935 162.157 109.991 162.213C110.047 162.269 110.078 162.344 110.078 162.423V168.555C110.078 168.634 110.047 168.709 109.991 168.765C109.935 168.821 109.86 168.852 109.781 168.852Z" fill="white"/>
<path d="M120.554 168.555V135.928H109.781V159.719" fill="#263238"/>
<path d="M120.554 168.852C120.475 168.852 120.399 168.821 120.344 168.765C120.288 168.71 120.257 168.634 120.257 168.555V136.231H110.078V159.726C110.078 159.805 110.047 159.88 109.991 159.936C109.935 159.992 109.86 160.023 109.781 160.023C109.702 160.023 109.627 159.992 109.571 159.936C109.515 159.88 109.484 159.805 109.484 159.726V135.958C109.486 135.88 109.517 135.805 109.573 135.75C109.628 135.694 109.703 135.662 109.781 135.661H120.554C120.632 135.662 120.707 135.694 120.762 135.75C120.818 135.805 120.849 135.88 120.851 135.958V168.555C120.851 168.634 120.82 168.71 120.764 168.765C120.708 168.821 120.633 168.852 120.554 168.852Z" fill="white"/>
<path d="M188.518 168.555H129.324V113.313L158.921 97.2817L188.518 113.313V168.555Z" fill="white"/>
<path d="M188.517 168.852H129.324C129.245 168.852 129.17 168.821 129.114 168.765C129.058 168.71 129.027 168.634 129.027 168.555V113.295C129.027 113.242 129.042 113.19 129.069 113.144C129.096 113.098 129.135 113.06 129.181 113.034L158.778 96.9908C158.822 96.9674 158.871 96.9551 158.921 96.9551C158.97 96.9551 159.019 96.9674 159.063 96.9908L188.66 113.034C188.707 113.06 188.745 113.098 188.772 113.144C188.8 113.19 188.814 113.242 188.815 113.295V168.555C188.815 168.634 188.783 168.71 188.728 168.765C188.672 168.821 188.596 168.852 188.517 168.852ZM129.621 168.258H188.22V113.492L158.921 97.6087L129.621 113.48V168.258Z" fill="#263238"/>
<path d="M193.039 115.666L158.921 97.1809L124.802 115.666L123.739 113.705L158.921 94.6437L194.103 113.705L193.039 115.666Z" fill="white"/>
<path d="M193.039 115.963C192.992 115.964 192.944 115.951 192.903 115.928L158.921 97.5079L124.939 115.928C124.866 115.955 124.786 115.955 124.713 115.928C124.639 115.903 124.577 115.849 124.541 115.779L123.477 113.824C123.459 113.79 123.447 113.752 123.442 113.713C123.438 113.675 123.442 113.635 123.453 113.598C123.464 113.56 123.482 113.525 123.507 113.495C123.531 113.464 123.562 113.439 123.596 113.42L158.778 94.3587C158.822 94.3352 158.871 94.323 158.921 94.323C158.971 94.323 159.02 94.3352 159.064 94.3587L194.246 113.42C194.314 113.459 194.365 113.523 194.388 113.599C194.417 113.671 194.417 113.752 194.388 113.824L193.325 115.779C193.302 115.835 193.262 115.883 193.211 115.916C193.16 115.949 193.1 115.966 193.039 115.963ZM158.921 96.884C158.971 96.8844 159.019 96.8966 159.064 96.9196L192.932 115.262L193.711 113.824L158.933 94.9826L124.173 113.824L124.951 115.262L158.82 96.9196C158.851 96.9021 158.885 96.89 158.921 96.884Z" fill="#263238"/>
<path d="M129.324 113.313V114.656L158.921 98.6246L188.518 114.656V113.313L158.921 97.2817L129.324 113.313Z" fill="#263238"/>
<path d="M188.517 114.953C188.468 114.953 188.419 114.941 188.375 114.918L158.921 98.9637L129.467 114.918C129.423 114.944 129.372 114.958 129.321 114.958C129.27 114.958 129.22 114.944 129.176 114.918C129.13 114.893 129.092 114.856 129.066 114.811C129.039 114.766 129.026 114.714 129.027 114.662V113.319C129.027 113.266 129.042 113.214 129.069 113.168C129.096 113.122 129.135 113.084 129.181 113.058L158.778 97.0148C158.822 96.9914 158.871 96.9791 158.921 96.9791C158.971 96.9791 159.019 96.9914 159.063 97.0148L188.66 113.058C188.707 113.084 188.745 113.122 188.772 113.168C188.8 113.214 188.814 113.266 188.815 113.319V114.662C188.815 114.714 188.802 114.764 188.777 114.809C188.752 114.854 188.716 114.891 188.672 114.918C188.625 114.944 188.571 114.956 188.517 114.953ZM158.921 98.3161C158.97 98.3165 159.019 98.3287 159.063 98.3517L188.22 114.145V113.48L158.921 97.6087L129.621 113.48L129.621 114.145L158.778 98.3517C158.823 98.3328 158.872 98.3247 158.921 98.328V98.3161Z" fill="#263238"/>
<path d="M145.973 126.73V120.907H171.512V149.933" fill="white"/>
<path d="M171.512 150.23C171.433 150.23 171.357 150.199 171.302 150.143C171.246 150.088 171.215 150.012 171.215 149.933V121.204H146.259V126.724C146.259 126.803 146.227 126.879 146.172 126.934C146.116 126.99 146.04 127.021 145.961 127.021C145.883 127.021 145.807 126.99 145.751 126.934C145.696 126.879 145.664 126.803 145.664 126.724V120.901C145.664 120.822 145.696 120.747 145.751 120.691C145.807 120.635 145.883 120.604 145.961 120.604H171.512C171.591 120.604 171.666 120.635 171.722 120.691C171.778 120.747 171.809 120.822 171.809 120.901V149.927C171.81 149.967 171.803 150.006 171.788 150.043C171.773 150.08 171.752 150.113 171.724 150.141C171.696 150.17 171.663 150.192 171.627 150.207C171.59 150.223 171.551 150.23 171.512 150.23Z" fill="#263238"/>
<path d="M171.512 152.934V158.65H145.973V128.946" fill="white"/>
<path d="M171.512 158.947H145.961C145.883 158.947 145.807 158.916 145.751 158.86C145.696 158.804 145.664 158.729 145.664 158.65V128.94C145.664 128.862 145.696 128.786 145.751 128.73C145.807 128.675 145.883 128.643 145.961 128.643C146.04 128.643 146.116 128.675 146.172 128.73C146.227 128.786 146.259 128.862 146.259 128.94V158.347H171.215V152.928C171.215 152.849 171.246 152.774 171.302 152.718C171.357 152.662 171.433 152.631 171.512 152.631C171.591 152.631 171.666 152.662 171.722 152.718C171.778 152.774 171.809 152.849 171.809 152.928V158.644C171.809 158.723 171.778 158.8 171.722 158.856C171.667 158.913 171.591 158.946 171.512 158.947Z" fill="#263238"/>
<path d="M169.812 132.25H159.877V139.154H169.812V132.25Z" fill="#263238"/>
<path d="M169.806 139.452H159.877C159.799 139.452 159.723 139.42 159.667 139.365C159.612 139.309 159.58 139.233 159.58 139.155V132.25C159.58 132.171 159.612 132.096 159.667 132.04C159.723 131.984 159.799 131.953 159.877 131.953H169.806C169.885 131.953 169.961 131.984 170.016 132.04C170.072 132.096 170.103 132.171 170.103 132.25V139.155C170.103 139.233 170.072 139.309 170.016 139.365C169.961 139.42 169.885 139.452 169.806 139.452ZM160.175 138.858H169.509V132.547H160.175V138.858Z" fill="#263238"/>
<path d="M169.812 141.425H159.877V148.329H169.812V141.425Z" fill="#263238"/>
<path d="M169.806 148.62H159.877C159.799 148.62 159.723 148.589 159.667 148.533C159.612 148.477 159.58 148.402 159.58 148.323V141.424C159.58 141.346 159.612 141.27 159.667 141.214C159.723 141.159 159.799 141.127 159.877 141.127H169.806C169.885 141.127 169.961 141.159 170.016 141.214C170.072 141.27 170.103 141.346 170.103 141.424V148.323C170.103 148.402 170.072 148.477 170.016 148.533C169.961 148.589 169.885 148.62 169.806 148.62ZM160.175 148.026H169.509V141.721H160.175V148.026Z" fill="#263238"/>
<path d="M169.812 122.607H159.877V129.974H169.812V122.607Z" fill="#263238"/>
<path d="M169.806 130.289H159.877C159.799 130.289 159.723 130.258 159.667 130.202C159.612 130.147 159.58 130.071 159.58 129.992V122.606C159.58 122.528 159.612 122.452 159.667 122.396C159.723 122.341 159.799 122.309 159.877 122.309H169.806C169.885 122.309 169.961 122.341 170.016 122.396C170.072 122.452 170.103 122.528 170.103 122.606V129.98C170.105 130.02 170.099 130.06 170.084 130.098C170.07 130.135 170.049 130.169 170.021 130.198C169.993 130.227 169.96 130.25 169.923 130.266C169.886 130.281 169.846 130.289 169.806 130.289ZM160.175 129.695H169.509V122.904H160.175V129.695Z" fill="#263238"/>
<path d="M157.608 122.607H147.673V129.974H157.608V122.607Z" fill="#263238"/>
<path d="M157.608 130.289H147.673C147.594 130.289 147.518 130.258 147.463 130.202C147.407 130.147 147.376 130.071 147.376 129.992V122.606C147.376 122.528 147.407 122.452 147.463 122.396C147.518 122.341 147.594 122.309 147.673 122.309H157.608C157.686 122.311 157.761 122.343 157.816 122.398C157.871 122.453 157.903 122.528 157.905 122.606V129.98C157.905 130.02 157.898 130.06 157.884 130.097C157.869 130.134 157.848 130.168 157.82 130.196C157.793 130.225 157.76 130.248 157.723 130.264C157.687 130.28 157.647 130.289 157.608 130.289ZM147.97 129.695H157.311V122.904H147.97V129.695Z" fill="#263238"/>
<path d="M157.608 141.425H147.673V148.329H157.608V141.425Z" fill="#263238"/>
<path d="M157.608 148.62H147.673C147.594 148.62 147.518 148.589 147.463 148.533C147.407 148.477 147.376 148.402 147.376 148.323V141.424C147.376 141.346 147.407 141.27 147.463 141.214C147.518 141.159 147.594 141.127 147.673 141.127H157.608C157.686 141.127 157.762 141.159 157.818 141.214C157.873 141.27 157.905 141.346 157.905 141.424V148.323C157.905 148.402 157.873 148.477 157.818 148.533C157.762 148.589 157.686 148.62 157.608 148.62ZM147.97 148.026H157.311V141.721H147.97V148.026Z" fill="#263238"/>
<path d="M157.608 132.25H147.673V139.154H157.608V132.25Z" fill="#263238"/>
<path d="M157.608 139.452H147.673C147.594 139.452 147.518 139.42 147.463 139.365C147.407 139.309 147.376 139.233 147.376 139.155V132.25C147.376 132.171 147.407 132.096 147.463 132.04C147.518 131.984 147.594 131.953 147.673 131.953H157.608C157.686 131.953 157.762 131.984 157.818 132.04C157.873 132.096 157.905 132.171 157.905 132.25V139.155C157.903 139.233 157.871 139.308 157.816 139.363C157.761 139.418 157.686 139.45 157.608 139.452ZM147.97 138.858H157.311V132.547H147.97V138.858Z" fill="#263238"/>
<path d="M169.812 150.593H159.877V156.945H169.812V150.593Z" fill="#263238"/>
<path d="M169.806 157.242H159.877C159.799 157.242 159.723 157.211 159.667 157.155C159.612 157.099 159.58 157.024 159.58 156.945V150.593C159.58 150.514 159.612 150.438 159.667 150.383C159.723 150.327 159.799 150.296 159.877 150.296H169.806C169.885 150.296 169.961 150.327 170.016 150.383C170.072 150.438 170.103 150.514 170.103 150.593V156.945C170.103 157.024 170.072 157.099 170.016 157.155C169.961 157.211 169.885 157.242 169.806 157.242ZM160.175 156.648H169.509V150.89H160.175V156.648Z" fill="#263238"/>
<path d="M157.608 150.593H147.673V156.945H157.608V150.593Z" fill="#263238"/>
<path d="M157.608 157.242H147.673C147.594 157.242 147.518 157.211 147.463 157.155C147.407 157.099 147.376 157.024 147.376 156.945V150.593C147.376 150.514 147.407 150.438 147.463 150.383C147.518 150.327 147.594 150.296 147.673 150.296H157.608C157.686 150.297 157.761 150.329 157.816 150.384C157.871 150.44 157.903 150.515 157.905 150.593V156.945C157.905 157.024 157.873 157.099 157.818 157.155C157.762 157.211 157.686 157.242 157.608 157.242ZM147.97 156.648H157.311V150.89H147.97V156.648Z" fill="#263238"/>
<path d="M40.0643 31.7285L23.3348 26.1168L6.76594 31.6524C4.65149 32.5828 2.78655 33.1494 2.78655 34.9848V44.1446C2.77135 50.6286 4.66894 56.973 8.24183 62.3839C11.9294 68.0169 17.2373 72.4003 23.4659 74.9564C30.2321 72.9011 35.3068 67.4247 38.3812 62.7391C41.9576 57.3312 43.8569 50.9875 43.8407 44.5041V36.2619C43.8703 33.64 42.3818 32.3586 40.0643 31.7285Z" fill="url(#paint4_linear_2604_270)"/>
<path d="M23.4616 71.3492L23.3939 71.3196C18.0797 69.1409 13.5325 65.4324 10.3296 60.6649C7.12666 55.8974 5.41233 50.2857 5.40419 44.5422V36.6342C5.40419 35.0864 6.77013 34.5197 8.36442 33.8304L8.95647 33.5725L23.3347 28.7642L37.8272 33.6274C40.1404 34.2575 41.2653 35.6066 41.2653 37.7464V44.8552C41.2742 50.4898 39.624 56.0023 36.5205 60.7051C34.461 63.826 30.0333 69.3574 23.5335 71.3323L23.4616 71.3492ZM23.3347 29.2082L9.12985 33.9615L8.53781 34.2195C7.0154 34.8411 5.82708 35.3655 5.82708 36.6342V44.5422C5.83631 50.192 7.52117 55.7122 10.6685 60.4041C13.8158 65.0961 18.2841 68.7492 23.5081 70.901C29.8515 68.9472 34.1692 63.53 36.1948 60.4683C39.2442 55.8317 40.862 50.4004 40.8466 44.8509V37.7421C40.8466 35.7926 39.8486 34.6128 37.7172 34.0292L23.3347 29.2082Z" fill="white"/>
<path d="M42.2507 29.4195C42.6374 29.5035 43.0165 29.6195 43.384 29.7662C43.8321 29.9374 44.2581 30.1617 44.6527 30.4344C45.201 30.8053 45.6567 31.2973 45.9848 31.8722C46.3827 32.6052 46.5974 33.4235 46.6107 34.2573C46.6107 35.1666 46.6107 36.1477 46.6107 37.2176C46.6107 39.332 46.6318 41.7679 46.6107 44.4744C46.5398 50.9335 44.7817 57.262 41.5106 62.832C39.5518 66.1781 37.1316 69.2317 34.3215 71.903C31.3612 74.6687 27.7624 77.1088 23.5505 78.4028H23.4786C21.9913 77.7794 20.5399 77.0735 19.1313 76.2884C17.6892 75.465 16.3008 74.5512 14.9742 73.5523C12.2291 71.4803 9.78413 69.0382 7.70898 66.2955C5.46256 63.3451 3.66157 60.0808 2.36365 56.6071C1.1247 53.282 0.364361 49.7979 0.105417 46.259C-0.0256788 44.5336 0.012379 42.8293 0.00392122 41.1589C-0.00453659 39.4885 0.00392122 37.8392 0.00392122 36.2196V33.8006C-0.00846356 33.3996 0.00849845 32.9982 0.0546692 32.5996C0.124118 32.1944 0.297514 31.8141 0.55791 31.4959C1.09468 30.9188 1.74756 30.4619 2.4736 30.1553C3.17137 29.8297 3.87337 29.5463 4.55845 29.2461L23.3094 23H23.3348L37.2394 27.6983L40.9524 28.967L41.9081 29.3011C42.1238 29.373 42.2295 29.4195 42.2295 29.4195C42.2295 29.4195 42.1196 29.3899 41.9039 29.318L40.9397 29.005L37.214 27.7787L23.2883 23.1269H23.3348L4.63034 29.4237C3.94103 29.7282 3.24326 30.0115 2.55395 30.3371C1.85458 30.6235 1.22449 31.0561 0.705921 31.6058C0.463713 31.9009 0.30589 32.256 0.249198 32.6334C0.2029 33.0207 0.188756 33.4111 0.20691 33.8006V36.2069C0.20691 37.8251 0.20691 39.4716 0.20691 41.1462C0.20691 42.8378 0.177307 44.5293 0.308403 46.2209C0.5617 49.7443 1.31788 53.2133 2.55395 56.5225C3.84776 59.9743 5.64164 63.2172 7.87814 66.1475C9.93989 68.874 12.3692 71.3018 15.0969 73.362C16.4159 74.3552 17.7958 75.2648 19.2285 76.0854C20.6302 76.8672 22.0729 77.5731 23.5505 78.1999H23.5082C27.6821 76.9312 31.264 74.5038 34.2031 71.755C37.0099 69.1013 39.43 66.0663 41.3922 62.739C43.1361 59.7711 44.4611 56.5762 45.3293 53.2451C46.0657 50.3765 46.4631 47.4314 46.5134 44.4701C46.5134 41.7721 46.5134 39.3405 46.5388 37.2176C46.5388 36.1561 46.5388 35.1708 46.5388 34.2573C46.5265 33.4405 46.3145 32.6391 45.9213 31.923C45.6012 31.3552 45.1575 30.8667 44.6231 30.4936C44.235 30.2192 43.8163 29.9907 43.3755 29.8128C43.1022 29.6974 42.8226 29.5971 42.5382 29.5125L42.2507 29.4195Z" fill="url(#paint5_linear_2604_270)"/>
<path d="M22.7851 57.618L13.3377 49.7142L16.0949 46.4198L22.4298 51.7187L32.1309 41.3917L35.2645 44.3308L22.7851 57.618Z" fill="white"/>
<path d="M203.676 29.7719L206.636 24.6973C205.14 20.2863 205.347 15.4752 207.218 11.2096C209.088 6.94388 212.487 3.53218 216.745 1.64504C221.004 -0.242103 225.814 -0.468188 230.231 1.01122C234.647 2.49062 238.351 5.56852 240.614 9.63993C242.876 13.7113 243.534 18.4818 242.458 23.0136C241.382 27.5454 238.65 31.5109 234.798 34.1305C230.947 36.7501 226.255 37.8344 221.645 37.1703C217.034 36.5062 212.839 34.1417 209.884 30.5416L203.676 29.7719Z" fill="white"/>
<path d="M203.676 29.7719L204.099 29.8142L205.295 29.958L209.918 30.5204L209.867 30.5881L209.71 30.254L209.947 30.5373C211.922 32.9248 214.459 34.7836 217.331 35.9461C218.222 36.3062 219.139 36.596 220.075 36.813C221.08 37.0301 222.099 37.1715 223.124 37.2359C227.887 37.545 232.585 35.9992 236.234 32.9224C238.279 31.2036 239.931 29.0666 241.08 26.6552C242.294 24.089 242.896 21.2765 242.84 18.4384C242.805 15.4644 242.041 12.5443 240.615 9.93411L240.023 8.94032C239.816 8.61893 239.6 8.31444 239.376 8.0015C238.946 7.39143 238.478 6.80817 237.976 6.25497C237.74 5.96318 237.448 5.72213 237.186 5.45571C236.923 5.18929 236.665 4.92286 236.369 4.6945L235.503 4.00519C235.359 3.89101 235.219 3.76837 235.08 3.66688L234.619 3.36663C232.227 1.75858 229.499 0.721215 226.643 0.334505C223.962 -0.00555068 221.24 0.247082 218.667 1.07456C214.085 2.53664 210.249 5.72053 207.968 9.95526C207.841 10.1921 207.723 10.4289 207.6 10.6615L207.418 11.0083L207.275 11.3677L206.716 12.7886C206.425 13.707 206.187 14.6418 206.006 15.5882C205.473 18.63 205.709 21.7568 206.691 24.6845C205.718 26.3169 204.974 27.5686 204.462 28.4187L203.883 29.3871L203.68 29.7212L203.862 29.3955L204.416 28.4313L206.611 24.6253V24.6634C205.606 21.7382 205.349 18.6085 205.862 15.5586C206.043 14.6041 206.279 13.6609 206.568 12.7336L207.127 11.3001L207.27 10.9364L207.452 10.5854L207.82 9.87068C209.616 6.53788 212.377 3.82569 215.741 2.08993C219.105 0.354179 222.916 -0.324057 226.673 0.144206C229.546 0.529216 232.294 1.56479 234.707 3.1721L235.177 3.47658C235.333 3.57807 235.473 3.70494 235.6 3.81912L236.475 4.51689C236.775 4.74525 237.025 5.03282 237.3 5.28655C237.575 5.54028 237.858 5.79825 238.099 6.09427C238.612 6.65781 239.088 7.25392 239.524 7.87887C239.744 8.19603 239.968 8.50475 240.18 8.82614L240.746 9.83685C242.143 12.4231 242.913 15.3014 242.993 18.2397C243.073 21.178 242.461 24.094 241.207 26.7525C240.09 29.0991 238.499 31.1888 236.533 32.8898C234.568 34.5907 232.272 35.8661 229.789 36.6354C227.627 37.2943 225.363 37.5537 223.108 37.4008C222.073 37.3298 221.045 37.1813 220.033 36.9568C219.089 36.7368 218.164 36.4412 217.267 36.073C214.379 34.8902 211.834 32.9997 209.867 30.5754L209.947 30.5246L209.981 30.6008H209.896L205.245 29.9749L204.065 29.81L203.676 29.7719Z" fill="#263238"/>
<path d="M229.836 12.983H216.291V26.5282H229.836V12.983Z" fill="#E0E0E0"/>
<path d="M229.836 26.5536C229.834 26.5297 229.834 26.5057 229.836 26.4817C229.836 26.431 229.836 26.3676 229.836 26.2914C229.836 26.1138 229.836 25.8686 229.836 25.5598C229.836 24.9044 229.836 23.974 229.81 22.7941C229.81 20.4175 229.781 17.0471 229.764 13.0042L229.857 13.1015H216.324C216.299 13.1269 216.532 12.8943 216.434 12.9958V16.6411C216.434 17.8336 216.434 19.005 216.434 20.1426C216.434 22.4135 216.434 24.5618 216.434 26.5325L216.341 26.4352L226.131 26.486H229.887H228.935L226.19 26.5113L216.341 26.5579H216.244V26.5536C216.244 24.583 216.244 22.4347 216.244 20.1638C216.244 19.0262 216.244 17.8548 216.244 16.6622V13.0169L216.354 12.9027H229.984V12.9958C229.984 17.064 229.946 20.4556 229.933 22.8491C229.933 24.0163 229.933 24.9424 229.908 25.5894C229.908 25.8939 229.908 26.1307 229.908 26.3041C229.89 26.389 229.866 26.4724 229.836 26.5536Z" fill="#263238"/>
<path d="M225.222 24.71L217.077 17.8973L219.454 15.0554L224.913 19.6227L233.278 10.725L235.976 13.2581L225.222 24.71Z" fill="#455A64"/>
<path d="M212.151 94.9391L203.966 89.4699C201.243 88.8273 198.186 90.7793 197.619 93.5191C194.914 92.9525 192.043 94.8492 191.113 97.4508C190.184 100.052 190.996 103.086 192.793 105.19C194.589 107.294 197.236 108.538 199.948 109.077C203.848 109.851 208.409 108.997 210.748 105.777C212.949 102.758 212.603 98.6497 212.151 94.9391Z" fill="#263238"/>
<path d="M247.236 88.7305C247.205 87.3439 246.79 85.993 246.035 84.8289C245.281 83.6648 244.218 82.7333 242.965 82.1385C243.902 78.8701 244.931 75.4393 244.209 72.1191C242.575 64.615 235.814 63.5854 232.414 63.6338L221.241 70.7717C218.249 74.161 222.004 92.7694 223.352 97.0846C224.052 99.2411 225.285 101.186 226.936 102.741C228.587 104.295 230.603 105.408 232.798 105.978C235.907 106.755 239.493 106.261 241.877 104.098C244.261 101.935 245.018 97.9552 243.083 95.3848C244.323 94.7685 245.368 93.8201 246.101 92.6453C246.834 91.4705 247.227 90.1153 247.236 88.7305Z" fill="#263238"/>
<path d="M189.856 119.939L190.893 165.748L251.952 165.987C251.952 165.987 247.419 101.683 246.116 101.054C245.132 100.588 233.067 96.6285 233.067 96.6285L227.702 95.0668L205.528 99.3233L197.485 101.082L189.856 119.939Z" fill="#455A64"/>
<path d="M193.394 112.286C193.394 112.165 199.226 100.699 199.226 100.699C193.511 101.3 188.408 103.317 185.092 107.667C183.547 109.692 182.856 112.76 182.086 114.947C181.568 116.429 178.147 136.367 178.147 136.367L191.694 141.909L193.394 112.286Z" fill="#455A64"/>
<path d="M214.915 129.06L202.131 99.5791C197.474 100.616 192.24 101.797 188.902 103.946L190.668 125.616L190.409 165.987L214.87 166.115L216.376 137.387L214.915 129.06Z" fill="url(#paint6_linear_2604_270)"/>
<path d="M247.495 136.571L244.862 100.159L230.027 95.4089L214.877 128.811V166.114L252.318 165.99L247.495 136.571Z" fill="url(#paint7_linear_2604_270)"/>
<path d="M247.498 136.571C247.498 136.571 247.533 136.748 247.592 137.09C247.65 137.432 247.737 137.946 247.851 138.61C248.075 139.95 248.403 141.923 248.828 144.462C249.668 149.545 250.884 156.9 252.384 165.98V166.056H252.335L214.894 166.201H214.808V166.115C214.808 156.98 214.808 147.033 214.808 136.713V128.78C220.266 116.757 225.404 105.442 229.968 95.3815L229.999 95.3193L230.065 95.34L244.883 100.104H244.928V100.153C245.722 111.305 246.369 120.409 246.818 126.725C247.039 129.883 247.212 132.343 247.326 134.015C247.384 134.847 247.426 135.487 247.453 135.918C247.481 136.35 247.491 136.568 247.491 136.568C247.491 136.568 247.467 136.35 247.433 135.922C247.398 135.493 247.35 134.851 247.288 134.018C247.16 132.346 246.977 129.889 246.742 126.735C246.275 120.416 245.608 111.316 244.786 100.163L244.835 100.225L229.999 95.4817L230.096 95.4402C225.535 105.501 220.422 116.819 214.956 128.846V128.808V136.727C214.956 147.047 214.956 156.994 214.956 166.128L214.87 166.042L252.311 165.938L252.245 166.014C250.77 156.928 249.575 149.572 248.746 144.483C248.338 141.944 248.02 139.971 247.802 138.631C247.699 137.964 247.619 137.452 247.564 137.107C247.509 136.761 247.498 136.571 247.498 136.571Z" fill="#263238"/>
<path d="M243.46 135.614H190.889V142.486H243.46V135.614Z" fill="white"/>
<path d="M245.118 100.681C245.118 100.681 248.535 100.64 253.486 109.536C259.045 119.525 262.596 132.201 262.596 132.201L248.911 139.67L245.118 100.681Z" fill="#455A64"/>
<path d="M193.912 101.7L195.401 165.99L201.254 166.021L199.226 100.191C199.226 100.191 194.831 101.224 193.912 101.7Z" fill="white"/>
<path d="M235.389 97.1261L233.596 166.021H241.248L241.608 99.1991L235.389 97.1261Z" fill="white"/>
<path d="M219.69 115.524C219.834 116.88 220.291 118.185 221.024 119.335C221.757 120.485 222.746 121.45 223.915 122.154C225.031 122.814 226.302 123.228 227.28 124.082C228.258 124.935 228.804 126.047 229.353 127.167C233.499 135.476 237.645 143.806 240.855 152.526C241.57 154.475 242.237 156.465 243.394 158.199C244.551 159.934 246.234 161.409 248.276 161.803C250.318 162.197 252.681 161.257 253.493 159.346L227.674 111.16L219.69 115.524Z" fill="black"/>
<path d="M214.877 128.811C214.877 128.811 214.877 129.039 214.877 129.502C214.877 129.965 214.877 130.615 214.877 131.482C214.877 133.21 214.877 135.77 214.898 139.021C214.898 145.533 214.918 154.858 214.932 166.128V166.204H214.856L190.354 166.073H190.267V165.983C190.312 158.728 190.36 150.909 190.409 142.835C190.447 136.848 190.485 131.005 190.523 125.394C189.915 117.794 189.338 110.6 188.795 103.974V103.905L188.837 103.877C191.007 102.55 193.328 101.735 195.574 101.051C197.82 100.367 200.027 99.8727 202.138 99.3993H202.197L202.218 99.4546L211.46 120.875C212.552 123.422 213.405 125.405 213.982 126.749L214.635 128.283C214.783 128.628 214.853 128.808 214.853 128.808C214.853 128.808 214.77 128.632 214.614 128.286L213.985 126.759L211.425 120.886L202.131 99.4892L202.211 99.5306C200.107 100.004 197.913 100.519 195.667 101.189C193.422 101.859 191.114 102.688 188.968 104.008L189.006 103.932C189.542 110.562 190.126 117.752 190.734 125.353C190.699 130.967 190.661 136.806 190.623 142.794C190.571 150.878 190.519 158.686 190.474 165.942L190.388 165.855L214.887 166.011L214.811 166.083C214.811 154.813 214.835 145.488 214.846 138.976C214.846 135.728 214.846 133.178 214.866 131.441C214.866 130.577 214.866 129.913 214.866 129.461C214.866 129.008 214.877 128.811 214.877 128.811Z" fill="#263238"/>
<path d="M193.947 62.2692C193.542 61.6276 193.31 60.8915 193.276 60.1334C193.242 59.3753 193.405 58.6214 193.751 57.9457C194.096 57.2701 194.612 56.6961 195.246 56.2801C195.881 55.8641 196.613 55.6206 197.371 55.5735L204.281 56.5823L202.27 68.2566C202.08 69.3726 201.852 70.5576 201.078 71.3833C200.688 71.7541 200.227 72.042 199.723 72.2296C199.219 72.4173 198.682 72.5008 198.145 72.4751C196.966 72.4667 195.816 72.1103 194.839 71.4507C193.862 70.7911 193.101 69.8577 192.653 68.7675C192.205 67.6773 192.088 66.479 192.318 65.323C192.549 64.1669 193.115 63.1045 193.947 62.2692Z" fill="#263238"/>
<path d="M214.877 107.131C220.646 107.131 226.886 101.04 227 95.2706L227.615 63.6509C228.095 54.3226 223.068 46.2794 213.737 46.0583L212.873 46.0894C208.682 46.2343 204.699 47.9516 201.717 50.8997C198.735 53.8478 196.973 57.8106 196.78 61.9995C196.41 70.0806 196.728 77.3809 196.932 81.6927C197.353 90.641 205.711 92.0575 205.711 92.0575C205.711 92.0575 204.992 99.9348 206.222 102.257C208.986 107.46 211.17 107.014 214.877 107.093V107.131Z" fill="#FFBF9D"/>
<path d="M205.642 92.0887C205.642 92.0887 211.298 92.2269 217.178 88.2399C217.178 88.2399 214.507 95.0185 205.549 94.521L205.642 92.0887Z" fill="#FF9A6C"/>
<path d="M200.884 69.1755C200.893 69.5088 201.032 69.8256 201.27 70.0584C201.509 70.2913 201.829 70.422 202.163 70.4228C202.326 70.4297 202.488 70.404 202.641 70.3472C202.794 70.2904 202.935 70.2036 203.054 70.092C203.173 69.9803 203.268 69.846 203.335 69.697C203.401 69.5479 203.437 69.3871 203.441 69.2239C203.432 68.8906 203.293 68.5738 203.055 68.341C202.816 68.1081 202.496 67.9774 202.163 67.9766C201.999 67.9692 201.836 67.9946 201.683 68.0512C201.53 68.1078 201.39 68.1946 201.27 68.3063C201.151 68.4181 201.056 68.5526 200.989 68.7018C200.923 68.8511 200.887 69.0122 200.884 69.1755Z" fill="#263238"/>
<path d="M198.998 65.4684C199.16 65.6273 200.103 64.8776 201.479 64.8327C202.854 64.7878 203.897 65.4442 204.032 65.268C204.101 65.192 203.928 64.8983 203.479 64.577C202.869 64.1862 202.154 63.9931 201.43 64.0242C200.715 64.046 200.025 64.2953 199.461 64.7359C199.05 65.0883 198.915 65.3958 198.998 65.4684Z" fill="#263238"/>
<path d="M213.408 69.1755C213.417 69.5085 213.554 69.8252 213.792 70.0582C214.031 70.2911 214.35 70.4219 214.683 70.4227C214.847 70.4301 215.01 70.4048 215.163 70.3482C215.316 70.2915 215.456 70.2048 215.576 70.093C215.695 69.9813 215.79 69.8468 215.857 69.6975C215.923 69.5482 215.959 69.3872 215.962 69.2239C215.954 68.8884 215.816 68.5693 215.575 68.3353C215.335 68.1013 215.012 67.9713 214.676 67.9732C214.514 67.9672 214.352 67.9937 214.199 68.0512C214.047 68.1086 213.908 68.1959 213.79 68.3079C213.672 68.4199 213.577 68.5543 213.512 68.7032C213.446 68.8522 213.411 69.0128 213.408 69.1755Z" fill="#263238"/>
<path d="M212.49 65.5548C212.655 65.7137 213.599 64.964 214.974 64.9191C216.349 64.8741 217.392 65.5306 217.527 65.3544C217.596 65.2784 217.427 64.9812 216.974 64.6634C216.365 64.2715 215.649 64.0784 214.925 64.1106C214.209 64.1324 213.518 64.3816 212.952 64.8223C212.545 65.1782 212.41 65.4857 212.49 65.5548Z" fill="#263238"/>
<path d="M207.922 76.296C207.922 76.22 207.065 76.1025 205.673 75.9712C205.327 75.9471 204.982 75.8883 204.92 75.6534C204.858 75.4185 204.961 75.0177 205.117 74.6169C205.418 73.7555 205.734 72.8514 206.063 71.9048C207.373 68.049 208.309 64.8809 208.154 64.829C207.998 64.7772 206.81 67.8625 205.5 71.7217C205.186 72.6718 204.882 73.5804 204.598 74.4476C204.477 74.8484 204.253 75.3114 204.464 75.8296C204.518 75.9518 204.6 76.0599 204.703 76.1456C204.806 76.2312 204.928 76.2921 205.058 76.3236C205.255 76.3708 205.457 76.3918 205.659 76.3858C207.055 76.3997 207.919 76.3755 207.922 76.296Z" fill="#263238"/>
<path d="M209.187 81.3161C209.506 81.6281 209.935 81.8019 210.382 81.7998C210.854 81.7892 211.303 81.5946 211.633 81.2574C212.227 80.7115 212.341 79.827 212.227 79.0704C212.209 78.9405 212.162 78.8163 212.089 78.7076C212.085 78.638 212.071 78.5693 212.047 78.5038C211.968 78.3007 211.848 78.1159 211.695 77.9608C211.541 77.8058 211.358 77.6837 211.156 77.6021C210.74 77.4403 210.283 77.4184 209.853 77.5399C209.501 77.6589 209.188 77.8745 208.952 78.1621C208.716 78.4498 208.565 78.798 208.516 79.1671C208.453 79.5528 208.481 79.9479 208.597 80.3209C208.714 80.694 208.915 81.0348 209.187 81.3161Z" fill="#FF9A6C"/>
<path d="M212.455 77.5226C212.241 77.4604 211.895 78.9046 210.406 79.6509C208.917 80.3971 207.407 79.8651 207.348 80.0655C207.307 80.1518 207.625 80.4282 208.278 80.601C209.127 80.8125 210.023 80.7195 210.81 80.3384C211.566 79.9697 212.148 79.3217 212.434 78.5315C212.635 77.9372 212.555 77.5399 212.455 77.5226Z" fill="#263238"/>
<path d="M212.137 60.8042C212.286 61.1739 213.65 60.9493 215.274 61.0875C216.898 61.2257 218.214 61.623 218.415 61.2775C218.508 61.1151 218.266 60.7696 217.724 60.4276C217.005 60.0102 216.201 59.7621 215.373 59.7022C214.544 59.6424 213.713 59.7723 212.942 60.0821C212.358 60.3274 212.071 60.6314 212.137 60.8042Z" fill="#263238"/>
<path d="M199.361 60.3723C199.613 60.6764 200.549 60.3171 201.689 60.2652C202.829 60.2134 203.8 60.4 204.011 60.0648C204.104 59.9059 203.942 59.595 203.51 59.3151C202.931 58.9809 202.266 58.8258 201.598 58.8695C200.931 58.9132 200.292 59.1536 199.761 59.5604C199.371 59.9094 199.25 60.2376 199.361 60.3723Z" fill="#263238"/>
<path d="M227.29 70.1221C227.439 70.053 233.378 68.0906 233.395 74.2162C233.413 80.3418 227.256 79.098 227.245 78.9218C227.235 78.7456 227.29 70.1221 227.29 70.1221Z" fill="#FFBF9D"/>
<path d="M229.111 76.6104C229.135 76.5897 229.218 76.683 229.398 76.7659C229.654 76.8691 229.94 76.8691 230.196 76.7659C230.842 76.5275 231.385 75.4979 231.412 74.3923C231.425 73.8671 231.321 73.3456 231.108 72.8652C231.05 72.6745 230.946 72.5007 230.806 72.3587C230.666 72.2167 230.493 72.1108 230.303 72.0499C230.181 72.0169 230.05 72.0283 229.935 72.082C229.82 72.1358 229.728 72.2284 229.674 72.3435C229.592 72.5163 229.633 72.6372 229.598 72.6476C229.564 72.6579 229.467 72.5439 229.516 72.3021C229.549 72.15 229.635 72.0144 229.757 71.9186C229.84 71.8548 229.934 71.8079 230.035 71.7807C230.136 71.7534 230.241 71.7463 230.345 71.7597C230.597 71.8088 230.832 71.9215 231.028 72.0872C231.224 72.253 231.374 72.4661 231.464 72.7063C231.727 73.2359 231.855 73.8221 231.837 74.4131C231.803 75.6499 231.174 76.8039 230.289 77.063C230.125 77.1118 229.952 77.1228 229.782 77.0953C229.613 77.0678 229.452 77.0024 229.312 76.9041C229.122 76.7417 229.091 76.6104 229.111 76.6104Z" fill="#FF9A6C"/>
<path d="M219.658 55.5353C220.384 54.8132 221.438 54.5506 222.45 54.4297C225.108 54.1136 227.802 54.5506 230.224 55.6908C231.485 56.2885 232.701 57.1177 233.382 58.3372C234.062 59.5568 234.073 61.2256 233.112 62.2379C234.02 62.7707 234.701 63.6187 235.025 64.6207C235.349 65.6226 235.294 66.7087 234.869 67.6724C234.445 68.6361 233.681 69.4104 232.724 69.848C231.766 70.2857 230.681 70.3561 229.674 70.0461C229.628 70.5148 229.464 70.9642 229.197 71.3523C228.93 71.7404 228.569 72.0545 228.147 72.2653C227.726 72.4761 227.258 72.5767 226.788 72.5578C226.317 72.5389 225.859 72.401 225.456 72.1571C225.035 71.8894 224.663 71.553 224.354 71.162C223.183 69.6591 223.065 66.8088 223.386 64.9431C222.772 64.9202 222.17 64.7584 221.627 64.47C221.084 64.1817 220.613 63.7741 220.249 63.2778C219.53 62.2779 219.057 61.1227 218.867 59.9058C218.563 58.3718 218.574 56.6201 219.658 55.5353Z" fill="#263238"/>
<path d="M221.887 39.3179C222.305 39.4042 232.352 42.3859 234.397 50.156C236.443 57.9262 235.541 60.2099 235.541 60.2099C235.921 60.4893 236.259 60.8208 236.546 61.1946C236.937 61.7232 236.156 64.076 234.843 63.7167C225.169 58.6449 213.422 57.4149 200.242 56.9485L190.188 56.1538C187.351 56.2955 186.411 55.4801 187.645 54.8513C188.591 54.3711 196.8 51.6935 196.8 51.6935L198.448 50.657L202.985 45.1706C202.985 45.1706 202.525 44.3345 203.586 43.7367C204.647 43.139 213.64 37.6077 221.887 39.3179Z" fill="url(#paint8_linear_2604_270)"/>
<path d="M230.915 44.4173C230.915 44.4173 220.038 41.909 214.96 43.9474L215.55 43.6987L210.762 45.4262C209.953 45.7198 209.01 45.9997 208.278 45.5505C208.278 45.5505 210.91 43.4776 215.613 42.2338C220.315 40.99 227.653 40.8103 230.915 44.4173Z" fill="black"/>
<path d="M231.06 44.4795C230.764 44.226 230.45 43.9951 230.12 43.7886C229.224 43.1915 228.26 42.7021 227.249 42.3306C225.75 41.7763 224.179 41.4435 222.585 41.3424C220.629 41.1664 218.658 41.4114 216.805 42.0611C215.859 42.4236 214.936 42.8436 214.041 43.3187C213.177 43.7782 212.313 44.1755 211.55 44.6385C210.843 45.103 210.099 45.5075 209.325 45.8477C208.639 46.1081 207.902 46.2062 207.172 46.1345C204.467 45.9928 202.847 45.326 202.978 45.1602C203.015 45.259 203.088 45.3404 203.182 45.3882C203.436 45.538 203.709 45.6541 203.994 45.7337C205.028 46.0282 206.092 46.2067 207.165 46.2657C207.914 46.347 208.671 46.2523 209.376 45.9894C210.161 45.6532 210.914 45.2498 211.629 44.7836C212.396 44.331 213.253 43.9337 214.117 43.4776C215.004 43.0068 215.919 42.5903 216.856 42.2304C218.686 41.5797 220.633 41.3276 222.567 41.491C224.149 41.5799 225.71 41.8976 227.201 42.4342C228.207 42.793 229.172 43.2623 230.075 43.8335C230.396 44.0339 230.638 44.2031 230.801 44.3206C230.963 44.4381 231.06 44.4795 231.06 44.4795Z" fill="#263238"/>
<path d="M235.143 53.3933C233.174 53.2482 231.713 52.6366 229.785 52.0804C227.712 51.4861 225.687 50.9886 223.666 50.2976C222.129 49.7725 220.304 49.2611 219.358 48.0761C219.255 48.4561 219.253 48.8561 219.35 49.2374C219.448 49.6187 219.642 49.9684 219.914 50.2527C220.474 50.8677 222.37 51.6796 223.158 51.9525C227.65 53.5004 230.759 54.5438 235.468 55.1864C235.4 54.5822 235.291 53.9831 235.143 53.3933Z" fill="black"/>
<path d="M234.135 49.3165C235.347 49.9418 236.09 50.353 236.056 51.424C236.028 52.3119 235.776 53.383 234.895 53.4797C234.623 53.4916 234.351 53.4529 234.093 53.3657L220.671 49.7242C220.202 49.6514 219.774 49.4181 219.458 49.0643C219.05 48.4666 219.43 47.589 220.056 47.2228C220.681 46.8566 221.438 46.8773 222.167 46.898C226.275 47.0949 230.227 48.0381 234.135 49.3165Z" fill="url(#paint9_linear_2604_270)"/>
<path d="M219.655 49.2611C219.483 49.0932 219.364 48.8799 219.309 48.6461C219.256 48.3313 219.29 48.0077 219.409 47.7113C219.528 47.4149 219.727 47.1572 219.983 46.967C220.674 46.5109 221.69 46.4142 222.747 46.542C223.804 46.6699 225.031 46.8253 226.278 47.0292C228.411 47.3585 230.511 47.8764 232.552 48.577C233.333 48.8499 233.934 49.1125 234.376 49.2922L234.867 49.5064C234.921 49.5359 234.98 49.558 235.04 49.572C234.991 49.5346 234.937 49.5033 234.881 49.4787L234.404 49.2334C233.986 49.0331 233.368 48.7532 232.594 48.463C230.555 47.7262 228.449 47.1905 226.306 46.8633C225.052 46.656 223.856 46.5178 222.761 46.3866C221.666 46.2553 220.612 46.3866 219.9 46.8703C219.629 47.0732 219.422 47.3498 219.304 47.6671C219.186 47.9845 219.161 48.3291 219.233 48.6599C219.277 48.8368 219.361 49.0012 219.479 49.1402C219.6 49.23 219.651 49.268 219.655 49.2611Z" fill="#263238"/>
<path d="M201.561 46.8875L210.133 47.278L209.252 49.6411L199.958 48.8292L201.561 46.8875Z" fill="white"/>
<path d="M214.006 55.3419C214.006 55.2935 210.237 54.4989 205.566 53.5591C200.894 52.6194 197.097 51.9008 197.087 51.9457C197.077 51.9906 200.856 52.7887 205.531 53.7284C210.206 54.6682 213.985 55.3868 214.006 55.3419Z" fill="#263238"/>
<path d="M203.14 99.5791L205.559 95.212L214.877 107.131L227.864 91.1006L229.764 95.9894L219.69 113.613L215.416 107.819L214.4 107.968L210.876 114.093L203.14 99.5791Z" fill="#E0E0E0"/>
<path d="M223.29 108.317C223.21 108.471 223.118 108.619 223.013 108.759C222.827 109.039 222.557 109.45 222.236 109.954C221.389 111.293 220.636 112.689 219.98 114.131L219.911 114.28L219.821 114.142L219.555 113.72C218.456 112.065 217.337 110.649 216.584 109.574C216.2 109.046 215.893 108.61 215.706 108.303C215.594 108.149 215.496 107.985 215.416 107.812C215.542 107.953 215.657 108.103 215.761 108.261L216.684 109.502C217.465 110.538 218.601 111.948 219.703 113.616C219.797 113.762 219.89 113.903 219.973 114.038H219.817C220.475 112.589 221.249 111.195 222.132 109.871C222.478 109.367 222.754 108.97 222.958 108.704C223.057 108.565 223.168 108.436 223.29 108.317Z" fill="#263238"/>
<path d="M233.824 63.2986C233.919 63.3728 234.001 63.4614 234.069 63.5612C234.271 63.821 234.442 64.104 234.577 64.4042C235.047 65.4033 235.156 66.5344 234.887 67.6051C234.617 68.6759 233.985 69.6202 233.098 70.2776C232.836 70.4762 232.552 70.6432 232.252 70.7751C232.143 70.8326 232.027 70.8723 231.906 70.8926C232.292 70.6804 232.663 70.4414 233.015 70.1774C233.85 69.5171 234.443 68.5999 234.704 67.568C234.964 66.5362 234.877 65.4472 234.456 64.4699C234.273 64.0649 234.062 63.6735 233.824 63.2986Z" fill="#455A64"/>
<path d="M214.4 107.968C214.4 107.968 214.4 108.013 214.355 108.092L214.2 108.438C214.058 108.745 213.854 109.191 213.557 109.747C212.774 111.258 211.902 112.721 210.945 114.128L210.876 114.27L210.81 114.149L208.665 110.179C207.159 107.367 205.797 104.82 204.802 102.951C204.322 102.039 203.932 101.289 203.648 100.754L203.344 100.149C203.306 100.081 203.273 100.009 203.248 99.9349C203.297 99.9959 203.34 100.062 203.375 100.132L203.721 100.719L204.923 102.892L208.803 110.079C209.556 111.488 210.278 112.843 210.935 114.055H210.793C211.754 112.657 212.642 111.21 213.453 109.719L214.144 108.434L214.324 108.089C214.344 108.045 214.369 108.004 214.4 107.968Z" fill="#263238"/>
<path d="M178.448 128.248L173.476 142.496L166.027 133.831L156.118 139.985L168.726 156.848C172.139 161.713 177.771 163.24 180.849 162.504C187.123 161.008 190.464 152.885 190.464 152.885L190.426 145.105L189.089 133.565L178.448 128.248Z" fill="#455A64"/>
<path d="M178.634 113.613C178.634 113.613 197.778 134.412 201.707 138.223C203.579 140.04 207.539 142.479 207.539 142.479L201.603 143.17L178.634 113.613Z" fill="#E0E0E0"/>
<path d="M172.871 144.673C172.871 144.673 180.721 146.501 186.076 146.794C191.431 147.088 205.424 146.998 205.424 146.998L202.66 144.631L172.871 144.673Z" fill="black"/>
<path d="M177.321 110.932L143 110.093L172.858 144.684L204.536 145.547L177.321 110.932Z" fill="#263238"/>
<path d="M162.534 123.784C162.536 123.563 162.492 123.343 162.404 123.14C162.316 122.937 162.186 122.754 162.024 122.603C161.861 122.453 161.669 122.338 161.459 122.266C161.25 122.194 161.028 122.166 160.807 122.185C160.302 122.223 159.642 122.285 158.831 122.396C156.737 122.675 150.601 125.944 150.476 127.188C150.293 129.012 151.237 129.682 151.237 129.682C151.237 129.682 150.072 131.333 150.566 132.653C150.988 133.783 152.829 134.115 152.829 134.115C152.829 134.115 151.527 135.739 152.964 136.816C153.465 137.19 154.467 137.905 154.692 138.15C154.791 138.485 154.931 138.808 155.106 139.111C155.43 139.534 155.841 139.882 156.311 140.132C156.782 140.382 157.3 140.527 157.832 140.558L158.178 140.579C158.853 140.618 159.519 140.403 160.043 139.974C162.417 138.029 169.126 132.408 169.216 130.909C169.216 130.909 170.494 129.841 169.938 128.787C169.382 127.733 167.444 128.265 167.444 128.265C167.706 128.043 167.89 127.741 167.969 127.406C168.047 127.071 168.016 126.719 167.879 126.403C167.388 125.294 163.916 125.508 162.351 125.768C161.1 125.971 157.611 126.659 157.611 126.659C157.611 126.659 162.227 124.904 162.476 124.099C162.507 123.997 162.527 123.891 162.534 123.784Z" fill="#FFBF9D"/>
<path d="M169.23 130.908C169.084 131.021 168.929 131.121 168.767 131.209C168.466 131.392 168.021 131.648 167.461 131.945C166.349 132.546 164.77 133.306 162.99 134.059C161.211 134.812 159.573 135.441 158.381 135.852C157.787 136.063 157.304 136.229 156.965 136.336C156.794 136.404 156.617 136.455 156.436 136.488C156.6 136.404 156.77 136.332 156.944 136.274L158.326 135.735C159.508 135.282 161.135 134.654 162.911 133.9C164.687 133.147 166.266 132.408 167.402 131.827C167.966 131.544 168.418 131.306 168.732 131.136C168.891 131.046 169.058 130.97 169.23 130.908Z" fill="#FF9A6C"/>
<path d="M167.689 128.217C167.523 128.272 167.354 128.314 167.181 128.342C166.856 128.418 166.38 128.521 165.799 128.687C164.638 128.981 163.056 129.478 161.328 130.086C160.465 130.39 159.632 130.663 158.91 130.95C158.188 131.237 157.528 131.527 156.975 131.779C156.422 132.031 156.001 132.256 155.704 132.408C155.554 132.498 155.397 132.575 155.234 132.639C155.266 132.608 155.302 132.58 155.341 132.557C155.414 132.508 155.524 132.436 155.669 132.349C155.959 132.176 156.384 131.938 156.923 131.658C157.462 131.378 158.112 131.088 158.851 130.791C159.591 130.494 160.42 130.218 161.27 129.91C162.741 129.379 164.241 128.928 165.761 128.559C166.349 128.421 166.829 128.335 167.16 128.279C167.334 128.242 167.511 128.221 167.689 128.217Z" fill="#FF9A6C"/>
<path d="M157.615 126.659C157.386 126.828 157.139 126.97 156.879 127.084C156.409 127.322 155.749 127.623 155.023 127.951C154.298 128.279 153.641 128.597 153.178 128.836C152.935 128.98 152.679 129.104 152.415 129.205C152.625 129.018 152.857 128.858 153.106 128.729C153.699 128.386 154.311 128.074 154.937 127.796C155.666 127.45 156.319 127.181 156.81 126.973C157.067 126.842 157.336 126.737 157.615 126.659Z" fill="#FF9A6C"/>
<path d="M167.123 133.714C167.032 133.849 166.928 133.974 166.812 134.087C166.601 134.322 166.286 134.65 165.886 135.041C165.088 135.832 163.913 136.844 162.652 137.995C162.337 138.281 162.04 138.579 161.729 138.841C161.43 139.094 161.117 139.33 160.793 139.549C160.245 139.924 159.641 140.211 159.003 140.399C158.575 140.528 158.127 140.584 157.68 140.565C157.564 140.561 157.449 140.548 157.335 140.527C157.252 140.513 157.21 140.503 157.21 140.496C157.21 140.479 157.386 140.496 157.697 140.496C158.135 140.491 158.57 140.419 158.986 140.282C159.601 140.079 160.183 139.787 160.714 139.415C161.029 139.2 161.334 138.969 161.626 138.724C161.93 138.465 162.223 138.167 162.541 137.877C163.806 136.723 164.991 135.728 165.81 134.965C166.221 134.585 166.546 134.274 166.77 134.053C166.878 133.93 166.995 133.816 167.123 133.714Z" fill="#FF9A6C"/>
<path d="M167.485 109.737L152.418 109.547C152.345 109.536 152.271 109.55 152.206 109.585C152.141 109.62 152.089 109.675 152.058 109.742C152.027 109.809 152.018 109.884 152.032 109.956C152.047 110.029 152.084 110.095 152.138 110.144L155.421 113.986L170.277 114.435C170.346 114.443 170.415 114.429 170.477 114.396C170.538 114.363 170.587 114.313 170.619 114.251C170.652 114.19 170.664 114.12 170.656 114.051C170.648 113.982 170.619 113.918 170.574 113.865L167.762 109.889C167.731 109.843 167.69 109.806 167.642 109.779C167.594 109.753 167.54 109.738 167.485 109.737Z" fill="#E0E0E0"/>
<path d="M155.344 114.149L152.014 110.252C151.947 110.175 151.904 110.08 151.889 109.979C151.875 109.878 151.89 109.775 151.934 109.683C151.977 109.591 152.046 109.513 152.133 109.459C152.219 109.406 152.32 109.378 152.422 109.381L167.485 109.571C167.568 109.572 167.65 109.592 167.724 109.631C167.798 109.669 167.862 109.724 167.91 109.792L170.722 113.769C170.778 113.848 170.811 113.941 170.817 114.037C170.824 114.134 170.804 114.23 170.759 114.316C170.715 114.402 170.648 114.474 170.565 114.524C170.482 114.575 170.387 114.601 170.291 114.601L155.344 114.149ZM167.496 109.903L152.432 109.713C152.394 109.712 152.357 109.723 152.325 109.743C152.293 109.763 152.267 109.792 152.251 109.826C152.235 109.86 152.23 109.898 152.235 109.936C152.24 109.973 152.255 110.009 152.28 110.037L155.514 113.82L170.308 114.27C170.343 114.27 170.378 114.26 170.408 114.241C170.439 114.222 170.462 114.195 170.477 114.163C170.497 114.132 170.507 114.097 170.507 114.061C170.507 114.025 170.497 113.989 170.477 113.959L167.668 109.985C167.649 109.959 167.622 109.937 167.592 109.922C167.562 109.908 167.529 109.901 167.496 109.903Z" fill="#263238"/>
<path d="M180.203 152.246C180.251 151.597 180.259 150.945 180.227 150.294C180.113 148.722 179.58 147.21 178.683 145.914C177.786 144.618 176.559 143.586 175.128 142.925C174.53 142.662 173.916 142.44 173.29 142.258C173.336 142.253 173.382 142.253 173.428 142.258C173.514 142.275 173.646 142.289 173.811 142.334C174.285 142.445 174.747 142.599 175.193 142.794C176.667 143.434 177.933 144.473 178.849 145.794C179.764 147.115 180.293 148.665 180.376 150.27C180.405 150.752 180.389 151.235 180.327 151.714C180.312 151.844 180.29 151.973 180.262 152.101C180.249 152.152 180.229 152.201 180.203 152.246Z" fill="#263238"/>
<path d="M231.281 124.593C231.281 124.593 238.799 143.212 242.209 149.928C245.743 156.89 250.991 168.554 261.515 162.456C270.121 157.467 262.324 131.268 262.324 131.268L254.578 134.768L243.121 116.436L231.281 124.593Z" fill="#455A64"/>
<path d="M235.707 94.6178C235.663 94.4853 235.592 94.3635 235.498 94.2607C235.404 94.1579 235.289 94.0763 235.161 94.0213C235.032 93.9664 234.894 93.9394 234.755 93.9422C234.615 93.945 234.478 93.9774 234.352 94.0373C233.554 94.4139 232.379 95.3157 232.103 97.3748C231.671 100.564 232.265 102.816 231.519 103.649C230.773 104.482 221.396 105.148 220.671 106.517C219.945 107.885 220.384 109.028 220.353 109.702C220.34 109.944 220.239 110.172 220.069 110.345C219.644 110.78 218.926 111.761 219.613 112.946C219.7 113.092 219.749 113.256 219.755 113.425C219.762 113.594 219.726 113.762 219.651 113.914C219.375 114.466 219.157 115.423 220.125 116.412C220.217 116.502 220.291 116.61 220.342 116.729C220.626 117.386 221.724 119.718 223.283 120.184C224.455 120.501 225.67 120.633 226.883 120.575C227.128 120.567 227.367 120.652 227.553 120.813C228.344 121.504 230.97 123.18 231.747 124.196C231.747 124.196 241.421 117.431 242.033 117.113C242.033 117.113 237.672 110.459 237.451 107.408C237.22 104.153 235.171 100.363 235.724 97.3126C235.962 95.9894 235.879 95.1464 235.707 94.6178Z" fill="#FFBF9D"/>
<path d="M231.281 124.593C231.281 124.593 231.281 124.576 231.333 124.548L231.495 124.424L232.141 123.964L234.577 122.257L243.073 116.367L243.142 116.318L243.19 116.391C244.437 118.308 245.788 120.416 247.181 122.61L255.334 135.69C256.371 137.352 257.227 138.699 257.822 139.639L258.513 140.717L258.685 140.997C258.707 141.028 258.724 141.062 258.737 141.097C258.714 141.069 258.692 141.039 258.672 141.007L258.485 140.734C258.316 140.486 258.081 140.13 257.794 139.677C257.189 138.758 256.319 137.421 255.258 135.759C253.13 132.443 250.266 127.813 247.06 122.72C245.678 120.513 244.32 118.402 243.079 116.481L243.197 116.505L234.667 122.344L232.203 124.009L231.543 124.448L231.371 124.558L231.281 124.593Z" fill="#263238"/>
<path d="M263.488 144.538C263.415 144.442 263.352 144.338 263.302 144.228C263.174 143.986 263.022 143.699 262.845 143.36C262.366 142.4 261.787 141.492 261.118 140.652C260.437 139.822 259.574 139.161 258.596 138.72C258.182 138.56 257.757 138.431 257.324 138.333C257.446 138.319 257.568 138.325 257.687 138.351C258.015 138.399 258.336 138.483 258.644 138.603C259.661 139.02 260.557 139.683 261.253 140.534C261.94 141.381 262.521 142.309 262.98 143.298C263.16 143.671 263.295 143.989 263.384 144.193C263.435 144.303 263.47 144.419 263.488 144.538Z" fill="#263238"/>
<defs>
<linearGradient id="paint0_linear_2604_270" x1="132.781" y1="0" x2="132.781" y2="168.853" gradientUnits="userSpaceOnUse">
<stop stop-color="#FF5722"/>
<stop stop-color="#FF5722"/>
</linearGradient>
<linearGradient id="paint1_linear_2604_270" x1="132.781" y1="0" x2="132.781" y2="168.853" gradientUnits="userSpaceOnUse">
<stop stop-color="#FF5722"/>
<stop stop-color="#FF5722"/>
</linearGradient>
<linearGradient id="paint2_linear_2604_270" x1="132.781" y1="0" x2="132.781" y2="168.853" gradientUnits="userSpaceOnUse">
<stop stop-color="#FF5722"/>
<stop stop-color="#FF5722"/>
</linearGradient>
<linearGradient id="paint3_linear_2604_270" x1="132.781" y1="0" x2="132.781" y2="168.853" gradientUnits="userSpaceOnUse">
<stop stop-color="#FF5722"/>
<stop stop-color="#FF5722"/>
</linearGradient>
<linearGradient id="paint4_linear_2604_270" x1="132.781" y1="0" x2="132.781" y2="168.853" gradientUnits="userSpaceOnUse">
<stop stop-color="#FF5722"/>
<stop stop-color="#FF5722"/>
</linearGradient>
<linearGradient id="paint5_linear_2604_270" x1="132.781" y1="0" x2="132.781" y2="168.853" gradientUnits="userSpaceOnUse">
<stop stop-color="#FF5722"/>
<stop stop-color="#FF5722"/>
</linearGradient>
<linearGradient id="paint6_linear_2604_270" x1="132.781" y1="0" x2="132.781" y2="168.853" gradientUnits="userSpaceOnUse">
<stop stop-color="#FF5722"/>
<stop stop-color="#FF5722"/>
</linearGradient>
<linearGradient id="paint7_linear_2604_270" x1="132.781" y1="0" x2="132.781" y2="168.853" gradientUnits="userSpaceOnUse">
<stop stop-color="#FF5722"/>
<stop stop-color="#FF5722"/>
</linearGradient>
<linearGradient id="paint8_linear_2604_270" x1="132.781" y1="0" x2="132.781" y2="168.853" gradientUnits="userSpaceOnUse">
<stop stop-color="#FF5722"/>
<stop stop-color="#FF5722"/>
</linearGradient>
<linearGradient id="paint9_linear_2604_270" x1="132.781" y1="0" x2="132.781" y2="168.853" gradientUnits="userSpaceOnUse">
<stop stop-color="#FF5722"/>
<stop stop-color="#FF5722"/>
</linearGradient>
</defs>
</svg>
